<?xml version="1.0" encoding="us-ascii" standalone="no"?><svg xmlns="http://www.w3.org/2000/svg" xmlns:xlink="http://www.w3.org/1999/xlink" contentStyleType="text/css" height="736px" preserveAspectRatio="none" style="width:1346px;height:736px;background:#FFFFFF;" version="1.1" viewBox="0 0 1346 736" width="1346px" zoomAndPan="magnify"><defs/><g><!--cluster Online Job Fair Registration--><g id="cluster_Online Job Fair Registration"><path d="M8.5,6 L206.5,6 A3.75,3.75 0 0 1 209,8.5 L216,29.6094 L1336.5,29.6094 A2.5,2.5 0 0 1 1339,32.1094 L1339,726.5 A2.5,2.5 0 0 1 1336.5,729 L8.5,729 A2.5,2.5 0 0 1 6,726.5 L6,8.5 A2.5,2.5 0 0 1 8.5,6 " fill="none" style="stroke:#000000;stroke-width:1.5;"/><line style="stroke:#000000;stroke-width:1.5;" x1="6" x2="216" y1="29.6094" y2="29.6094"/><text fill="#000000" font-family="sans-serif" font-size="14" font-weight="bold" lengthAdjust="spacing" textLength="197" x="10" y="22.5332">Online Job Fair Registration</text></g><!--class JobFairService--><g id="elem_JobFairService"><rect codeLine="6" fill="#F1F1F1" height="61.2188" id="JobFairService" rx="2.5" ry="2.5" style="stroke:#181818;stroke-width:0.5;" width="126" x="862" y="42"/><ellipse cx="877" cy="64.6094" fill="#ADD1B2" rx="11" ry="11" style="stroke:#181818;stroke-width:1.0;"/><path d="M879.7656,60.4844 Q879.9219,60.2656 880.1094,60.1563 Q880.2969,60.0469 880.5156,60.0469 Q880.8906,60.0469 881.125,60.3047 Q881.3594,60.5625 881.3594,61.1719 L881.3594,62.625 Q881.3594,63.2344 881.125,63.5 Q880.8906,63.7656 880.5156,63.7656 Q880.1719,63.7656 879.9688,63.5625 Q879.7656,63.375 879.6563,62.8594 Q879.6094,62.5 879.4219,62.3125 Q879.0938,61.9375 878.4844,61.7188 Q877.875,61.5 877.25,61.5 Q876.4844,61.5 875.8516,61.8281 Q875.2188,62.1563 874.7266,62.9063 Q874.2344,63.6563 874.2344,64.6875 L874.2344,65.7813 Q874.2344,67.0156 875.125,67.8359 Q876.0156,68.6563 877.6094,68.6563 Q878.5469,68.6563 879.2031,68.4063 Q879.5938,68.25 880.0156,67.8125 Q880.2813,67.5469 880.4297,67.4688 Q880.5781,67.3906 880.7813,67.3906 Q881.1094,67.3906 881.3672,67.6484 Q881.625,67.9063 881.625,68.25 Q881.625,68.5938 881.2813,69 Q880.7813,69.5781 879.9844,69.9063 Q878.9063,70.3594 877.6094,70.3594 Q876.0938,70.3594 874.8906,69.7344 Q873.9063,69.2344 873.2188,68.1641 Q872.5313,67.0938 872.5313,65.8125 L872.5313,64.6563 Q872.5313,63.3281 873.1484,62.1797 Q873.7656,61.0313 874.8594,60.4141 Q875.9531,59.7969 877.1875,59.7969 Q877.9219,59.7969 878.5703,59.9609 Q879.2188,60.125 879.7656,60.4844 Z " fill="#000000"/><text fill="#000000" font-family="sans-serif" font-size="14" lengthAdjust="spacing" textLength="85" x="895.5" y="61.5332">&#171;Application&#187;</text><text fill="#000000" font-family="sans-serif" font-size="14" lengthAdjust="spacing" textLength="94" x="891" y="79.1426">JobFairService</text><line style="stroke:#181818;stroke-width:0.5;" x1="863" x2="987" y1="87.2188" y2="87.2188"/><line style="stroke:#181818;stroke-width:0.5;" x1="863" x2="987" y1="95.2188" y2="95.2188"/></g><!--class ResourceAuthentication--><g id="elem_ResourceAuthentication"><rect codeLine="9" fill="#F1F1F1" height="61.2188" id="ResourceAuthentication" rx="2.5" ry="2.5" style="stroke:#181818;stroke-width:0.5;" width="122" x="437" y="180.5"/><ellipse cx="452" cy="203.1094" fill="#ADD1B2" rx="11" ry="11" style="stroke:#181818;stroke-width:1.0;"/><path d="M454.7656,198.9844 Q454.9219,198.7656 455.1094,198.6563 Q455.2969,198.5469 455.5156,198.5469 Q455.8906,198.5469 456.125,198.8047 Q456.3594,199.0625 456.3594,199.6719 L456.3594,201.125 Q456.3594,201.7344 456.125,202 Q455.8906,202.2656 455.5156,202.2656 Q455.1719,202.2656 454.9688,202.0625 Q454.7656,201.875 454.6563,201.3594 Q454.6094,201 454.4219,200.8125 Q454.0938,200.4375 453.4844,200.2188 Q452.875,200 452.25,200 Q451.4844,200 450.8516,200.3281 Q450.2188,200.6563 449.7266,201.4063 Q449.2344,202.1563 449.2344,203.1875 L449.2344,204.2813 Q449.2344,205.5156 450.125,206.3359 Q451.0156,207.1563 452.6094,207.1563 Q453.5469,207.1563 454.2031,206.9063 Q454.5938,206.75 455.0156,206.3125 Q455.2813,206.0469 455.4297,205.9688 Q455.5781,205.8906 455.7813,205.8906 Q456.1094,205.8906 456.3672,206.1484 Q456.625,206.4063 456.625,206.75 Q456.625,207.0938 456.2813,207.5 Q455.7813,208.0781 454.9844,208.4063 Q453.9063,208.8594 452.6094,208.8594 Q451.0938,208.8594 449.8906,208.2344 Q448.9063,207.7344 448.2188,206.6641 Q447.5313,205.5938 447.5313,204.3125 L447.5313,203.1563 Q447.5313,201.8281 448.1484,200.6797 Q448.7656,199.5313 449.8594,198.9141 Q450.9531,198.2969 452.1875,198.2969 Q452.9219,198.2969 453.5703,198.4609 Q454.2188,198.625 454.7656,198.9844 Z " fill="#000000"/><text fill="#000000" font-family="sans-serif" font-size="14" lengthAdjust="spacing" textLength="77" x="472.5" y="200.0332">&#171;Resource&#187;</text><text fill="#000000" font-family="sans-serif" font-size="14" lengthAdjust="spacing" textLength="90" x="466" y="217.6426">Authentication</text><line style="stroke:#181818;stroke-width:0.5;" x1="438" x2="558" y1="225.7188" y2="225.7188"/><line style="stroke:#181818;stroke-width:0.5;" x1="438" x2="558" y1="233.7188" y2="233.7188"/></g><!--class RegisterResource--><g id="elem_RegisterResource"><rect codeLine="11" fill="#F1F1F1" height="78.8281" id="RegisterResource" rx="2.5" ry="2.5" style="stroke:#181818;stroke-width:0.5;" width="173" x="22.5" y="345.5"/><ellipse cx="66.3" cy="368.1094" fill="#ADD1B2" rx="11" ry="11" style="stroke:#181818;stroke-width:1.0;"/><path d="M69.0656,363.9844 Q69.2219,363.7656 69.4094,363.6563 Q69.5969,363.5469 69.8156,363.5469 Q70.1906,363.5469 70.425,363.8047 Q70.6594,364.0625 70.6594,364.6719 L70.6594,366.125 Q70.6594,366.7344 70.425,367 Q70.1906,367.2656 69.8156,367.2656 Q69.4719,367.2656 69.2688,367.0625 Q69.0656,366.875 68.9563,366.3594 Q68.9094,366 68.7219,365.8125 Q68.3938,365.4375 67.7844,365.2188 Q67.175,365 66.55,365 Q65.7844,365 65.1516,365.3281 Q64.5188,365.6563 64.0266,366.4063 Q63.5344,367.1563 63.5344,368.1875 L63.5344,369.2813 Q63.5344,370.5156 64.425,371.3359 Q65.3156,372.1563 66.9094,372.1563 Q67.8469,372.1563 68.5031,371.9063 Q68.8938,371.75 69.3156,371.3125 Q69.5813,371.0469 69.7297,370.9688 Q69.8781,370.8906 70.0813,370.8906 Q70.4094,370.8906 70.6672,371.1484 Q70.925,371.4063 70.925,371.75 Q70.925,372.0938 70.5813,372.5 Q70.0813,373.0781 69.2844,373.4063 Q68.2063,373.8594 66.9094,373.8594 Q65.3938,373.8594 64.1906,373.2344 Q63.2063,372.7344 62.5188,371.6641 Q61.8313,370.5938 61.8313,369.3125 L61.8313,368.1563 Q61.8313,366.8281 62.4484,365.6797 Q63.0656,364.5313 64.1594,363.9141 Q65.2531,363.2969 66.4875,363.2969 Q67.2219,363.2969 67.8703,363.4609 Q68.5188,363.625 69.0656,363.9844 Z " fill="#000000"/><text fill="#000000" font-family="sans-serif" font-size="14" lengthAdjust="spacing" textLength="77" x="86.7" y="365.0332">&#171;Resource&#187;</text><text fill="#000000" font-family="sans-serif" font-size="14" lengthAdjust="spacing" textLength="53" x="98.7" y="382.6426">Register</text><line style="stroke:#181818;stroke-width:0.5;" x1="23.5" x2="194.5" y1="390.7188" y2="390.7188"/><line style="stroke:#181818;stroke-width:0.5;" x1="23.5" x2="194.5" y1="398.7188" y2="398.7188"/><text fill="#000000" font-family="sans-serif" font-size="14" lengthAdjust="spacing" textLength="161" x="28.5" y="417.252">&#171;POST&#187; +register(): User</text></g><!--class LoginResource--><g id="elem_LoginResource"><rect codeLine="15" fill="#F1F1F1" height="78.8281" id="LoginResource" rx="2.5" ry="2.5" style="stroke:#181818;stroke-width:0.5;" width="155" x="230.5" y="345.5"/><ellipse cx="266.2" cy="368.1094" fill="#ADD1B2" rx="11" ry="11" style="stroke:#181818;stroke-width:1.0;"/><path d="M268.9656,363.9844 Q269.1219,363.7656 269.3094,363.6563 Q269.4969,363.5469 269.7156,363.5469 Q270.0906,363.5469 270.325,363.8047 Q270.5594,364.0625 270.5594,364.6719 L270.5594,366.125 Q270.5594,366.7344 270.325,367 Q270.0906,367.2656 269.7156,367.2656 Q269.3719,367.2656 269.1688,367.0625 Q268.9656,366.875 268.8563,366.3594 Q268.8094,366 268.6219,365.8125 Q268.2938,365.4375 267.6844,365.2188 Q267.075,365 266.45,365 Q265.6844,365 265.0516,365.3281 Q264.4188,365.6563 263.9266,366.4063 Q263.4344,367.1563 263.4344,368.1875 L263.4344,369.2813 Q263.4344,370.5156 264.325,371.3359 Q265.2156,372.1563 266.8094,372.1563 Q267.7469,372.1563 268.4031,371.9063 Q268.7938,371.75 269.2156,371.3125 Q269.4813,371.0469 269.6297,370.9688 Q269.7781,370.8906 269.9813,370.8906 Q270.3094,370.8906 270.5672,371.1484 Q270.825,371.4063 270.825,371.75 Q270.825,372.0938 270.4813,372.5 Q269.9813,373.0781 269.1844,373.4063 Q268.1063,373.8594 266.8094,373.8594 Q265.2938,373.8594 264.0906,373.2344 Q263.1063,372.7344 262.4188,371.6641 Q261.7313,370.5938 261.7313,369.3125 L261.7313,368.1563 Q261.7313,366.8281 262.3484,365.6797 Q262.9656,364.5313 264.0594,363.9141 Q265.1531,363.2969 266.3875,363.2969 Q267.1219,363.2969 267.7703,363.4609 Q268.4188,363.625 268.9656,363.9844 Z " fill="#000000"/><text fill="#000000" font-family="sans-serif" font-size="14" lengthAdjust="spacing" textLength="77" x="284.8" y="365.0332">&#171;Resource&#187;</text><text fill="#000000" font-family="sans-serif" font-size="14" lengthAdjust="spacing" textLength="35" x="305.8" y="382.6426">Login</text><line style="stroke:#181818;stroke-width:0.5;" x1="231.5" x2="384.5" y1="390.7188" y2="390.7188"/><line style="stroke:#181818;stroke-width:0.5;" x1="231.5" x2="384.5" y1="398.7188" y2="398.7188"/><text fill="#000000" font-family="sans-serif" font-size="14" lengthAdjust="spacing" textLength="143" x="236.5" y="417.252">&#171;POST&#187; +login(): User</text></g><!--class GetMeResource--><g id="elem_GetMeResource"><rect codeLine="19" fill="#F1F1F1" height="78.8281" id="GetMeResource" rx="2.5" ry="2.5" style="stroke:#181818;stroke-width:0.5;" width="155" x="420.5" y="345.5"/><ellipse cx="456.2" cy="368.1094" fill="#ADD1B2" rx="11" ry="11" style="stroke:#181818;stroke-width:1.0;"/><path d="M458.9656,363.9844 Q459.1219,363.7656 459.3094,363.6563 Q459.4969,363.5469 459.7156,363.5469 Q460.0906,363.5469 460.325,363.8047 Q460.5594,364.0625 460.5594,364.6719 L460.5594,366.125 Q460.5594,366.7344 460.325,367 Q460.0906,367.2656 459.7156,367.2656 Q459.3719,367.2656 459.1688,367.0625 Q458.9656,366.875 458.8563,366.3594 Q458.8094,366 458.6219,365.8125 Q458.2938,365.4375 457.6844,365.2188 Q457.075,365 456.45,365 Q455.6844,365 455.0516,365.3281 Q454.4188,365.6563 453.9266,366.4063 Q453.4344,367.1563 453.4344,368.1875 L453.4344,369.2813 Q453.4344,370.5156 454.325,371.3359 Q455.2156,372.1563 456.8094,372.1563 Q457.7469,372.1563 458.4031,371.9063 Q458.7938,371.75 459.2156,371.3125 Q459.4813,371.0469 459.6297,370.9688 Q459.7781,370.8906 459.9813,370.8906 Q460.3094,370.8906 460.5672,371.1484 Q460.825,371.4063 460.825,371.75 Q460.825,372.0938 460.4813,372.5 Q459.9813,373.0781 459.1844,373.4063 Q458.1063,373.8594 456.8094,373.8594 Q455.2938,373.8594 454.0906,373.2344 Q453.1063,372.7344 452.4188,371.6641 Q451.7313,370.5938 451.7313,369.3125 L451.7313,368.1563 Q451.7313,366.8281 452.3484,365.6797 Q452.9656,364.5313 454.0594,363.9141 Q455.1531,363.2969 456.3875,363.2969 Q457.1219,363.2969 457.7703,363.4609 Q458.4188,363.625 458.9656,363.9844 Z " fill="#000000"/><text fill="#000000" font-family="sans-serif" font-size="14" lengthAdjust="spacing" textLength="77" x="474.8" y="365.0332">&#171;Resource&#187;</text><text fill="#000000" font-family="sans-serif" font-size="14" lengthAdjust="spacing" textLength="42" x="492.3" y="382.6426">GetMe</text><line style="stroke:#181818;stroke-width:0.5;" x1="421.5" x2="574.5" y1="390.7188" y2="390.7188"/><line style="stroke:#181818;stroke-width:0.5;" x1="421.5" x2="574.5" y1="398.7188" y2="398.7188"/><text fill="#000000" font-family="sans-serif" font-size="14" lengthAdjust="spacing" textLength="143" x="426.5" y="417.252">&#171;GET&#187; +getMe(): User</text></g><!--class LogoutResource--><g id="elem_LogoutResource"><rect codeLine="23" fill="#F1F1F1" height="78.8281" id="LogoutResource" rx="2.5" ry="2.5" style="stroke:#181818;stroke-width:0.5;" width="154" x="611" y="345.5"/><ellipse cx="646.25" cy="368.1094" fill="#ADD1B2" rx="11" ry="11" style="stroke:#181818;stroke-width:1.0;"/><path d="M649.0156,363.9844 Q649.1719,363.7656 649.3594,363.6563 Q649.5469,363.5469 649.7656,363.5469 Q650.1406,363.5469 650.375,363.8047 Q650.6094,364.0625 650.6094,364.6719 L650.6094,366.125 Q650.6094,366.7344 650.375,367 Q650.1406,367.2656 649.7656,367.2656 Q649.4219,367.2656 649.2188,367.0625 Q649.0156,366.875 648.9063,366.3594 Q648.8594,366 648.6719,365.8125 Q648.3438,365.4375 647.7344,365.2188 Q647.125,365 646.5,365 Q645.7344,365 645.1016,365.3281 Q644.4688,365.6563 643.9766,366.4063 Q643.4844,367.1563 643.4844,368.1875 L643.4844,369.2813 Q643.4844,370.5156 644.375,371.3359 Q645.2656,372.1563 646.8594,372.1563 Q647.7969,372.1563 648.4531,371.9063 Q648.8438,371.75 649.2656,371.3125 Q649.5313,371.0469 649.6797,370.9688 Q649.8281,370.8906 650.0313,370.8906 Q650.3594,370.8906 650.6172,371.1484 Q650.875,371.4063 650.875,371.75 Q650.875,372.0938 650.5313,372.5 Q650.0313,373.0781 649.2344,373.4063 Q648.1563,373.8594 646.8594,373.8594 Q645.3438,373.8594 644.1406,373.2344 Q643.1563,372.7344 642.4688,371.6641 Q641.7813,370.5938 641.7813,369.3125 L641.7813,368.1563 Q641.7813,366.8281 642.3984,365.6797 Q643.0156,364.5313 644.1094,363.9141 Q645.2031,363.2969 646.4375,363.2969 Q647.1719,363.2969 647.8203,363.4609 Q648.4688,363.625 649.0156,363.9844 Z " fill="#000000"/><text fill="#000000" font-family="sans-serif" font-size="14" lengthAdjust="spacing" textLength="77" x="664.75" y="365.0332">&#171;Resource&#187;</text><text fill="#000000" font-family="sans-serif" font-size="14" lengthAdjust="spacing" textLength="44" x="681.25" y="382.6426">Logout</text><line style="stroke:#181818;stroke-width:0.5;" x1="612" x2="764" y1="390.7188" y2="390.7188"/><line style="stroke:#181818;stroke-width:0.5;" x1="612" x2="764" y1="398.7188" y2="398.7188"/><text fill="#000000" font-family="sans-serif" font-size="14" lengthAdjust="spacing" textLength="142" x="617" y="417.252">&#171;GET&#187; +logout(): Void</text></g><!--class RepresentationUser--><g id="elem_RepresentationUser"><rect codeLine="28" fill="#F1F1F1" height="202.0938" id="RepresentationUser" rx="2.5" ry="2.5" style="stroke:#181818;stroke-width:0.5;" width="206" x="205" y="511"/><ellipse cx="247.45" cy="533.6094" fill="#ADD1B2" rx="11" ry="11" style="stroke:#181818;stroke-width:1.0;"/><path d="M250.2156,529.4844 Q250.3719,529.2656 250.5594,529.1563 Q250.7469,529.0469 250.9656,529.0469 Q251.3406,529.0469 251.575,529.3047 Q251.8094,529.5625 251.8094,530.1719 L251.8094,531.625 Q251.8094,532.2344 251.575,532.5 Q251.3406,532.7656 250.9656,532.7656 Q250.6219,532.7656 250.4188,532.5625 Q250.2156,532.375 250.1063,531.8594 Q250.0594,531.5 249.8719,531.3125 Q249.5438,530.9375 248.9344,530.7188 Q248.325,530.5 247.7,530.5 Q246.9344,530.5 246.3016,530.8281 Q245.6688,531.1563 245.1766,531.9063 Q244.6844,532.6563 244.6844,533.6875 L244.6844,534.7813 Q244.6844,536.0156 245.575,536.8359 Q246.4656,537.6563 248.0594,537.6563 Q248.9969,537.6563 249.6531,537.4063 Q250.0438,537.25 250.4656,536.8125 Q250.7313,536.5469 250.8797,536.4688 Q251.0281,536.3906 251.2313,536.3906 Q251.5594,536.3906 251.8172,536.6484 Q252.075,536.9063 252.075,537.25 Q252.075,537.5938 251.7313,538 Q251.2313,538.5781 250.4344,538.9063 Q249.3563,539.3594 248.0594,539.3594 Q246.5438,539.3594 245.3406,538.7344 Q244.3563,538.2344 243.6688,537.1641 Q242.9813,536.0938 242.9813,534.8125 L242.9813,533.6563 Q242.9813,532.3281 243.5984,531.1797 Q244.2156,530.0313 245.3094,529.4141 Q246.4031,528.7969 247.6375,528.7969 Q248.3719,528.7969 249.0203,528.9609 Q249.6688,529.125 250.2156,529.4844 Z " fill="#000000"/><text fill="#000000" font-family="sans-serif" font-size="14" lengthAdjust="spacing" textLength="113" x="267.55" y="530.5332">&#171;Representation&#187;</text><text fill="#000000" font-family="sans-serif" font-size="14" lengthAdjust="spacing" textLength="29" x="309.55" y="548.1426">User</text><line style="stroke:#181818;stroke-width:0.5;" x1="206" x2="410" y1="556.2188" y2="556.2188"/><rect fill="none" height="6" style="stroke:#C82930;stroke-width:1.0;" width="6" x="213" y="567.5234"/><text fill="#000000" font-family="sans-serif" font-size="14" lengthAdjust="spacing" textLength="82" x="225" y="574.752">name : string</text><rect fill="none" height="6" style="stroke:#C82930;stroke-width:1.0;" width="6" x="213" y="585.1328"/><text fill="#000000" font-family="sans-serif" font-size="14" lengthAdjust="spacing" textLength="58" x="225" y="592.3613">tel: string</text><rect fill="none" height="6" style="stroke:#C82930;stroke-width:1.0;" width="6" x="213" y="602.7422"/><text fill="#000000" font-family="sans-serif" font-size="14" lengthAdjust="spacing" textLength="80" x="225" y="609.9707">email : string</text><rect fill="none" height="6" style="stroke:#C82930;stroke-width:1.0;" width="6" x="213" y="620.3516"/><text fill="#000000" font-family="sans-serif" font-size="14" lengthAdjust="spacing" textLength="107" x="225" y="627.5801">password : string</text><rect fill="none" height="6" style="stroke:#C82930;stroke-width:1.0;" width="6" x="213" y="637.9609"/><text fill="#000000" font-family="sans-serif" font-size="14" lengthAdjust="spacing" textLength="71" x="225" y="645.1895">role : string</text><rect fill="none" height="6" style="stroke:#C82930;stroke-width:1.0;" width="6" x="213" y="655.5703"/><text fill="#000000" font-family="sans-serif" font-size="14" lengthAdjust="spacing" textLength="101" x="225" y="662.7988">createdAt : date</text><rect fill="none" height="6" style="stroke:#C82930;stroke-width:1.0;" width="6" x="213" y="673.1797"/><text fill="#000000" font-family="sans-serif" font-size="14" lengthAdjust="spacing" textLength="180" x="225" y="680.4082">resetPasswordToken : string</text><rect fill="none" height="6" style="stroke:#C82930;stroke-width:1.0;" width="6" x="213" y="690.7891"/><text fill="#000000" font-family="sans-serif" font-size="14" lengthAdjust="spacing" textLength="172" x="225" y="698.0176">resetPasswordExpire : date</text><line style="stroke:#181818;stroke-width:0.5;" x1="206" x2="410" y1="705.0938" y2="705.0938"/></g><!--class ResourceCompanies--><g id="elem_ResourceCompanies"><rect codeLine="40" fill="#F1F1F1" height="96.4375" id="ResourceCompanies" rx="2.5" ry="2.5" style="stroke:#181818;stroke-width:0.5;" width="256" x="797" y="163"/><ellipse cx="882.25" cy="185.6094" fill="#ADD1B2" rx="11" ry="11" style="stroke:#181818;stroke-width:1.0;"/><path d="M885.0156,181.4844 Q885.1719,181.2656 885.3594,181.1563 Q885.5469,181.0469 885.7656,181.0469 Q886.1406,181.0469 886.375,181.3047 Q886.6094,181.5625 886.6094,182.1719 L886.6094,183.625 Q886.6094,184.2344 886.375,184.5 Q886.1406,184.7656 885.7656,184.7656 Q885.4219,184.7656 885.2188,184.5625 Q885.0156,184.375 884.9063,183.8594 Q884.8594,183.5 884.6719,183.3125 Q884.3438,182.9375 883.7344,182.7188 Q883.125,182.5 882.5,182.5 Q881.7344,182.5 881.1016,182.8281 Q880.4688,183.1563 879.9766,183.9063 Q879.4844,184.6563 879.4844,185.6875 L879.4844,186.7813 Q879.4844,188.0156 880.375,188.8359 Q881.2656,189.6563 882.8594,189.6563 Q883.7969,189.6563 884.4531,189.4063 Q884.8438,189.25 885.2656,188.8125 Q885.5313,188.5469 885.6797,188.4688 Q885.8281,188.3906 886.0313,188.3906 Q886.3594,188.3906 886.6172,188.6484 Q886.875,188.9063 886.875,189.25 Q886.875,189.5938 886.5313,190 Q886.0313,190.5781 885.2344,190.9063 Q884.1563,191.3594 882.8594,191.3594 Q881.3438,191.3594 880.1406,190.7344 Q879.1563,190.2344 878.4688,189.1641 Q877.7813,188.0938 877.7813,186.8125 L877.7813,185.6563 Q877.7813,184.3281 878.3984,183.1797 Q879.0156,182.0313 880.1094,181.4141 Q881.2031,180.7969 882.4375,180.7969 Q883.1719,180.7969 883.8203,180.9609 Q884.4688,181.125 885.0156,181.4844 Z " fill="#000000"/><text fill="#000000" font-family="sans-serif" font-size="14" lengthAdjust="spacing" textLength="77" x="902.75" y="182.5332">&#171;Resource&#187;</text><text fill="#000000" font-family="sans-serif" font-size="14" lengthAdjust="spacing" textLength="71" x="905.75" y="200.1426">Companies</text><line style="stroke:#181818;stroke-width:0.5;" x1="798" x2="1052" y1="208.2188" y2="208.2188"/><line style="stroke:#181818;stroke-width:0.5;" x1="798" x2="1052" y1="216.2188" y2="216.2188"/><text fill="#000000" font-family="sans-serif" font-size="14" lengthAdjust="spacing" textLength="234" x="803" y="234.752">&#171;GET&#187; +getCompanies(): Company[]</text><text fill="#000000" font-family="sans-serif" font-size="14" lengthAdjust="spacing" textLength="244" x="803" y="252.3613">&#171;POST&#187; +createCompany(): Company</text></g><!--class ResourceCompany--><g id="elem_ResourceCompany"><rect codeLine="45" fill="#F1F1F1" height="114.0469" id="ResourceCompany" rx="2.5" ry="2.5" style="stroke:#181818;stroke-width:0.5;" width="249" x="800.5" y="328"/><ellipse cx="882.25" cy="350.6094" fill="#ADD1B2" rx="11" ry="11" style="stroke:#181818;stroke-width:1.0;"/><path d="M885.0156,346.4844 Q885.1719,346.2656 885.3594,346.1563 Q885.5469,346.0469 885.7656,346.0469 Q886.1406,346.0469 886.375,346.3047 Q886.6094,346.5625 886.6094,347.1719 L886.6094,348.625 Q886.6094,349.2344 886.375,349.5 Q886.1406,349.7656 885.7656,349.7656 Q885.4219,349.7656 885.2188,349.5625 Q885.0156,349.375 884.9063,348.8594 Q884.8594,348.5 884.6719,348.3125 Q884.3438,347.9375 883.7344,347.7188 Q883.125,347.5 882.5,347.5 Q881.7344,347.5 881.1016,347.8281 Q880.4688,348.1563 879.9766,348.9063 Q879.4844,349.6563 879.4844,350.6875 L879.4844,351.7813 Q879.4844,353.0156 880.375,353.8359 Q881.2656,354.6563 882.8594,354.6563 Q883.7969,354.6563 884.4531,354.4063 Q884.8438,354.25 885.2656,353.8125 Q885.5313,353.5469 885.6797,353.4688 Q885.8281,353.3906 886.0313,353.3906 Q886.3594,353.3906 886.6172,353.6484 Q886.875,353.9063 886.875,354.25 Q886.875,354.5938 886.5313,355 Q886.0313,355.5781 885.2344,355.9063 Q884.1563,356.3594 882.8594,356.3594 Q881.3438,356.3594 880.1406,355.7344 Q879.1563,355.2344 878.4688,354.1641 Q877.7813,353.0938 877.7813,351.8125 L877.7813,350.6563 Q877.7813,349.3281 878.3984,348.1797 Q879.0156,347.0313 880.1094,346.4141 Q881.2031,345.7969 882.4375,345.7969 Q883.1719,345.7969 883.8203,345.9609 Q884.4688,346.125 885.0156,346.4844 Z " fill="#000000"/><text fill="#000000" font-family="sans-serif" font-size="14" lengthAdjust="spacing" textLength="77" x="902.75" y="347.5332">&#171;Resource&#187;</text><text fill="#000000" font-family="sans-serif" font-size="14" lengthAdjust="spacing" textLength="60" x="911.25" y="365.1426">Company</text><line style="stroke:#181818;stroke-width:0.5;" x1="801.5" x2="1048.5" y1="373.2188" y2="373.2188"/><line style="stroke:#181818;stroke-width:0.5;" x1="801.5" x2="1048.5" y1="381.2188" y2="381.2188"/><text fill="#000000" font-family="sans-serif" font-size="14" lengthAdjust="spacing" textLength="215" x="806.5" y="399.752">&#171;GET&#187; +getCompany(): Company</text><text fill="#000000" font-family="sans-serif" font-size="14" lengthAdjust="spacing" textLength="237" x="806.5" y="417.3613">&#171;PUT&#187; +updateCompany(): Company</text><text fill="#000000" font-family="sans-serif" font-size="14" lengthAdjust="spacing" textLength="225" x="806.5" y="434.9707">&#171;DELETE&#187; +deleteCompany(): void</text></g><!--class RepresentationCompany--><g id="elem_RepresentationCompany"><rect codeLine="51" fill="#F1F1F1" height="149.2656" id="RepresentationCompany" rx="2.5" ry="2.5" style="stroke:#181818;stroke-width:0.5;" width="145" x="852.5" y="537.5"/><ellipse cx="867.5" cy="560.1094" fill="#ADD1B2" rx="11" ry="11" style="stroke:#181818;stroke-width:1.0;"/><path d="M870.2656,555.9844 Q870.4219,555.7656 870.6094,555.6563 Q870.7969,555.5469 871.0156,555.5469 Q871.3906,555.5469 871.625,555.8047 Q871.8594,556.0625 871.8594,556.6719 L871.8594,558.125 Q871.8594,558.7344 871.625,559 Q871.3906,559.2656 871.0156,559.2656 Q870.6719,559.2656 870.4688,559.0625 Q870.2656,558.875 870.1563,558.3594 Q870.1094,558 869.9219,557.8125 Q869.5938,557.4375 868.9844,557.2188 Q868.375,557 867.75,557 Q866.9844,557 866.3516,557.3281 Q865.7188,557.6563 865.2266,558.4063 Q864.7344,559.1563 864.7344,560.1875 L864.7344,561.2813 Q864.7344,562.5156 865.625,563.3359 Q866.5156,564.1563 868.1094,564.1563 Q869.0469,564.1563 869.7031,563.9063 Q870.0938,563.75 870.5156,563.3125 Q870.7813,563.0469 870.9297,562.9688 Q871.0781,562.8906 871.2813,562.8906 Q871.6094,562.8906 871.8672,563.1484 Q872.125,563.4063 872.125,563.75 Q872.125,564.0938 871.7813,564.5 Q871.2813,565.0781 870.4844,565.4063 Q869.4063,565.8594 868.1094,565.8594 Q866.5938,565.8594 865.3906,565.2344 Q864.4063,564.7344 863.7188,563.6641 Q863.0313,562.5938 863.0313,561.3125 L863.0313,560.1563 Q863.0313,558.8281 863.6484,557.6797 Q864.2656,556.5313 865.3594,555.9141 Q866.4531,555.2969 867.6875,555.2969 Q868.4219,555.2969 869.0703,555.4609 Q869.7188,555.625 870.2656,555.9844 Z " fill="#000000"/><text fill="#000000" font-family="sans-serif" font-size="14" lengthAdjust="spacing" textLength="113" x="881.5" y="557.0332">&#171;Representation&#187;</text><text fill="#000000" font-family="sans-serif" font-size="14" lengthAdjust="spacing" textLength="60" x="908" y="574.6426">Company</text><line style="stroke:#181818;stroke-width:0.5;" x1="853.5" x2="996.5" y1="582.7188" y2="582.7188"/><rect fill="none" height="6" style="stroke:#C82930;stroke-width:1.0;" width="6" x="860.5" y="594.0234"/><text fill="#000000" font-family="sans-serif" font-size="14" lengthAdjust="spacing" textLength="82" x="872.5" y="601.252">name : string</text><rect fill="none" height="6" style="stroke:#C82930;stroke-width:1.0;" width="6" x="860.5" y="611.6328"/><text fill="#000000" font-family="sans-serif" font-size="14" lengthAdjust="spacing" textLength="98" x="872.5" y="618.8613">address : string</text><rect fill="none" height="6" style="stroke:#C82930;stroke-width:1.0;" width="6" x="860.5" y="629.2422"/><text fill="#000000" font-family="sans-serif" font-size="14" lengthAdjust="spacing" textLength="94" x="872.5" y="636.4707">website : string</text><rect fill="none" height="6" style="stroke:#C82930;stroke-width:1.0;" width="6" x="860.5" y="646.8516"/><text fill="#000000" font-family="sans-serif" font-size="14" lengthAdjust="spacing" textLength="62" x="872.5" y="654.0801">tel : string</text><rect fill="none" height="6" style="stroke:#C82930;stroke-width:1.0;" width="6" x="860.5" y="664.4609"/><text fill="#000000" font-family="sans-serif" font-size="14" lengthAdjust="spacing" textLength="116" x="872.5" y="671.6895">description : string</text><line style="stroke:#181818;stroke-width:0.5;" x1="853.5" x2="996.5" y1="678.7656" y2="678.7656"/></g><!--class ResourceBookings--><g id="elem_ResourceBookings"><rect codeLine="60" fill="#F1F1F1" height="78.8281" id="ResourceBookings" rx="2.5" ry="2.5" style="stroke:#181818;stroke-width:0.5;" width="224" x="1090" y="171.5"/><ellipse cx="1159.25" cy="194.1094" fill="#ADD1B2" rx="11" ry="11" style="stroke:#181818;stroke-width:1.0;"/><path d="M1162.0156,189.9844 Q1162.1719,189.7656 1162.3594,189.6563 Q1162.5469,189.5469 1162.7656,189.5469 Q1163.1406,189.5469 1163.375,189.8047 Q1163.6094,190.0625 1163.6094,190.6719 L1163.6094,192.125 Q1163.6094,192.7344 1163.375,193 Q1163.1406,193.2656 1162.7656,193.2656 Q1162.4219,193.2656 1162.2188,193.0625 Q1162.0156,192.875 1161.9063,192.3594 Q1161.8594,192 1161.6719,191.8125 Q1161.3438,191.4375 1160.7344,191.2188 Q1160.125,191 1159.5,191 Q1158.7344,191 1158.1016,191.3281 Q1157.4688,191.6563 1156.9766,192.4063 Q1156.4844,193.1563 1156.4844,194.1875 L1156.4844,195.2813 Q1156.4844,196.5156 1157.375,197.3359 Q1158.2656,198.1563 1159.8594,198.1563 Q1160.7969,198.1563 1161.4531,197.9063 Q1161.8438,197.75 1162.2656,197.3125 Q1162.5313,197.0469 1162.6797,196.9688 Q1162.8281,196.8906 1163.0313,196.8906 Q1163.3594,196.8906 1163.6172,197.1484 Q1163.875,197.4063 1163.875,197.75 Q1163.875,198.0938 1163.5313,198.5 Q1163.0313,199.0781 1162.2344,199.4063 Q1161.1563,199.8594 1159.8594,199.8594 Q1158.3438,199.8594 1157.1406,199.2344 Q1156.1563,198.7344 1155.4688,197.6641 Q1154.7813,196.5938 1154.7813,195.3125 L1154.7813,194.1563 Q1154.7813,192.8281 1155.3984,191.6797 Q1156.0156,190.5313 1157.1094,189.9141 Q1158.2031,189.2969 1159.4375,189.2969 Q1160.1719,189.2969 1160.8203,189.4609 Q1161.4688,189.625 1162.0156,189.9844 Z " fill="#000000"/><text fill="#000000" font-family="sans-serif" font-size="14" lengthAdjust="spacing" textLength="77" x="1179.75" y="191.0332">&#171;Resource&#187;</text><text fill="#000000" font-family="sans-serif" font-size="14" lengthAdjust="spacing" textLength="58" x="1189.25" y="208.6426">Bookings</text><line style="stroke:#181818;stroke-width:0.5;" x1="1091" x2="1313" y1="216.7188" y2="216.7188"/><line style="stroke:#181818;stroke-width:0.5;" x1="1091" x2="1313" y1="224.7188" y2="224.7188"/><text fill="#000000" font-family="sans-serif" font-size="14" lengthAdjust="spacing" textLength="212" x="1096" y="243.252">&#171;GET&#187; +getBookings(): Booking[]</text></g><!--class ResourceBooking--><g id="elem_ResourceBooking"><rect codeLine="64" fill="#F1F1F1" height="131.6563" id="ResourceBooking" rx="2.5" ry="2.5" style="stroke:#181818;stroke-width:0.5;" width="238" x="1085" y="319"/><ellipse cx="1161.25" cy="341.6094" fill="#ADD1B2" rx="11" ry="11" style="stroke:#181818;stroke-width:1.0;"/><path d="M1164.0156,337.4844 Q1164.1719,337.2656 1164.3594,337.1563 Q1164.5469,337.0469 1164.7656,337.0469 Q1165.1406,337.0469 1165.375,337.3047 Q1165.6094,337.5625 1165.6094,338.1719 L1165.6094,339.625 Q1165.6094,340.2344 1165.375,340.5 Q1165.1406,340.7656 1164.7656,340.7656 Q1164.4219,340.7656 1164.2188,340.5625 Q1164.0156,340.375 1163.9063,339.8594 Q1163.8594,339.5 1163.6719,339.3125 Q1163.3438,338.9375 1162.7344,338.7188 Q1162.125,338.5 1161.5,338.5 Q1160.7344,338.5 1160.1016,338.8281 Q1159.4688,339.1563 1158.9766,339.9063 Q1158.4844,340.6563 1158.4844,341.6875 L1158.4844,342.7813 Q1158.4844,344.0156 1159.375,344.8359 Q1160.2656,345.6563 1161.8594,345.6563 Q1162.7969,345.6563 1163.4531,345.4063 Q1163.8438,345.25 1164.2656,344.8125 Q1164.5313,344.5469 1164.6797,344.4688 Q1164.8281,344.3906 1165.0313,344.3906 Q1165.3594,344.3906 1165.6172,344.6484 Q1165.875,344.9063 1165.875,345.25 Q1165.875,345.5938 1165.5313,346 Q1165.0313,346.5781 1164.2344,346.9063 Q1163.1563,347.3594 1161.8594,347.3594 Q1160.3438,347.3594 1159.1406,346.7344 Q1158.1563,346.2344 1157.4688,345.1641 Q1156.7813,344.0938 1156.7813,342.8125 L1156.7813,341.6563 Q1156.7813,340.3281 1157.3984,339.1797 Q1158.0156,338.0313 1159.1094,337.4141 Q1160.2031,336.7969 1161.4375,336.7969 Q1162.1719,336.7969 1162.8203,336.9609 Q1163.4688,337.125 1164.0156,337.4844 Z " fill="#000000"/><text fill="#000000" font-family="sans-serif" font-size="14" lengthAdjust="spacing" textLength="77" x="1181.75" y="338.5332">&#171;Resource&#187;</text><text fill="#000000" font-family="sans-serif" font-size="14" lengthAdjust="spacing" textLength="51" x="1194.75" y="356.1426">Booking</text><line style="stroke:#181818;stroke-width:0.5;" x1="1086" x2="1322" y1="364.2188" y2="364.2188"/><line style="stroke:#181818;stroke-width:0.5;" x1="1086" x2="1322" y1="372.2188" y2="372.2188"/><text fill="#000000" font-family="sans-serif" font-size="14" lengthAdjust="spacing" textLength="226" x="1091" y="390.752">&#171;POST&#187; +createBooking(): Booking</text><text fill="#000000" font-family="sans-serif" font-size="14" lengthAdjust="spacing" textLength="197" x="1091" y="408.3613">&#171;GET&#187; +getBooking(): Booking</text><text fill="#000000" font-family="sans-serif" font-size="14" lengthAdjust="spacing" textLength="219" x="1091" y="425.9707">&#171;PUT&#187; +updateBooking(): Booking</text><text fill="#000000" font-family="sans-serif" font-size="14" lengthAdjust="spacing" textLength="216" x="1091" y="443.5801">&#171;DELETE&#187; +deleteBooking(): void</text></g><!--class RepresentationBooking--><g id="elem_RepresentationBooking"><rect codeLine="71" fill="#F1F1F1" height="131.6563" id="RepresentationBooking" rx="2.5" ry="2.5" style="stroke:#181818;stroke-width:0.5;" width="145" x="1131.5" y="546"/><ellipse cx="1146.5" cy="568.6094" fill="#ADD1B2" rx="11" ry="11" style="stroke:#181818;stroke-width:1.0;"/><path d="M1149.2656,564.4844 Q1149.4219,564.2656 1149.6094,564.1563 Q1149.7969,564.0469 1150.0156,564.0469 Q1150.3906,564.0469 1150.625,564.3047 Q1150.8594,564.5625 1150.8594,565.1719 L1150.8594,566.625 Q1150.8594,567.2344 1150.625,567.5 Q1150.3906,567.7656 1150.0156,567.7656 Q1149.6719,567.7656 1149.4688,567.5625 Q1149.2656,567.375 1149.1563,566.8594 Q1149.1094,566.5 1148.9219,566.3125 Q1148.5938,565.9375 1147.9844,565.7188 Q1147.375,565.5 1146.75,565.5 Q1145.9844,565.5 1145.3516,565.8281 Q1144.7188,566.1563 1144.2266,566.9063 Q1143.7344,567.6563 1143.7344,568.6875 L1143.7344,569.7813 Q1143.7344,571.0156 1144.625,571.8359 Q1145.5156,572.6563 1147.1094,572.6563 Q1148.0469,572.6563 1148.7031,572.4063 Q1149.0938,572.25 1149.5156,571.8125 Q1149.7813,571.5469 1149.9297,571.4688 Q1150.0781,571.3906 1150.2813,571.3906 Q1150.6094,571.3906 1150.8672,571.6484 Q1151.125,571.9063 1151.125,572.25 Q1151.125,572.5938 1150.7813,573 Q1150.2813,573.5781 1149.4844,573.9063 Q1148.4063,574.3594 1147.1094,574.3594 Q1145.5938,574.3594 1144.3906,573.7344 Q1143.4063,573.2344 1142.7188,572.1641 Q1142.0313,571.0938 1142.0313,569.8125 L1142.0313,568.6563 Q1142.0313,567.3281 1142.6484,566.1797 Q1143.2656,565.0313 1144.3594,564.4141 Q1145.4531,563.7969 1146.6875,563.7969 Q1147.4219,563.7969 1148.0703,563.9609 Q1148.7188,564.125 1149.2656,564.4844 Z " fill="#000000"/><text fill="#000000" font-family="sans-serif" font-size="14" lengthAdjust="spacing" textLength="113" x="1160.5" y="565.5332">&#171;Representation&#187;</text><text fill="#000000" font-family="sans-serif" font-size="14" lengthAdjust="spacing" textLength="51" x="1191.5" y="583.1426">Booking</text><line style="stroke:#181818;stroke-width:0.5;" x1="1132.5" x2="1275.5" y1="591.2188" y2="591.2188"/><rect fill="none" height="6" style="stroke:#C82930;stroke-width:1.0;" width="6" x="1139.5" y="602.5234"/><text fill="#000000" font-family="sans-serif" font-size="14" lengthAdjust="spacing" textLength="66" x="1151.5" y="609.752">userId : int</text><rect fill="none" height="6" style="stroke:#C82930;stroke-width:1.0;" width="6" x="1139.5" y="620.1328"/><text fill="#000000" font-family="sans-serif" font-size="14" lengthAdjust="spacing" textLength="95" x="1151.5" y="627.3613">companyId : int</text><rect fill="none" height="6" style="stroke:#C82930;stroke-width:1.0;" width="6" x="1139.5" y="637.7422"/><text fill="#000000" font-family="sans-serif" font-size="14" lengthAdjust="spacing" textLength="98" x="1151.5" y="644.9707">apptDate : date</text><rect fill="none" height="6" style="stroke:#C82930;stroke-width:1.0;" width="6" x="1139.5" y="655.3516"/><text fill="#000000" font-family="sans-serif" font-size="14" lengthAdjust="spacing" textLength="101" x="1151.5" y="662.5801">createdAt : date</text><line style="stroke:#181818;stroke-width:0.5;" x1="1132.5" x2="1275.5" y1="669.6563" y2="669.6563"/></g><!--link JobFairService to ResourceAuthentication--><g id="link_JobFairService_ResourceAuthentication"><path codeLine="80" d="M861.99,73 C743.22,73 498,73 498,73 C498,73 498,133.72 498,174.37 " fill="none" id="JobFairService-to-ResourceAuthentication" style="stroke:#181818;stroke-width:1.0;stroke-dasharray:7.0,7.0;"/><polygon fill="#181818" points="498,180.37,502,171.37,498,175.37,494,171.37,498,180.37" style="stroke:#181818;stroke-width:1.0;"/><text fill="#000000" font-family="sans-serif" font-size="13" lengthAdjust="spacing" textLength="29" x="590.31" y="53.4951">/auth</text><text fill="#000000" font-family="sans-serif" font-size="13" lengthAdjust="spacing" textLength="41" x="584.31" y="69.8467">&#171;Path&#187;</text></g><!--link ResourceAuthentication to RegisterResource--><g id="link_ResourceAuthentication_RegisterResource"><path codeLine="81" d="M436.79,201 C327.24,201 109,201 109,201 C109,201 109,284.96 109,339.07 " fill="none" id="ResourceAuthentication-to-RegisterResource" style="stroke:#181818;stroke-width:1.0;stroke-dasharray:7.0,7.0;"/><polygon fill="#181818" points="109,345.07,113,336.07,109,340.07,105,336.07,109,345.07" style="stroke:#181818;stroke-width:1.0;"/><text fill="#000000" font-family="sans-serif" font-size="13" lengthAdjust="spacing" textLength="47" x="152.86" y="181.4951">/register</text><text fill="#000000" font-family="sans-serif" font-size="13" lengthAdjust="spacing" textLength="41" x="155.86" y="197.8467">&#171;Path&#187;</text></g><!--link ResourceAuthentication to LoginResource--><g id="link_ResourceAuthentication_LoginResource"><path codeLine="82" d="M436.84,222 C381.29,222 308,222 308,222 C308,222 308,290.87 308,339.13 " fill="none" id="ResourceAuthentication-to-LoginResource" style="stroke:#181818;stroke-width:1.0;stroke-dasharray:7.0,7.0;"/><polygon fill="#181818" points="308,345.13,312,336.13,308,340.13,304,336.13,308,345.13" style="stroke:#181818;stroke-width:1.0;"/><text fill="#000000" font-family="sans-serif" font-size="13" lengthAdjust="spacing" textLength="31" x="273.86" y="202.4951">/login</text><text fill="#000000" font-family="sans-serif" font-size="13" lengthAdjust="spacing" textLength="41" x="268.86" y="218.8467">&#171;Path&#187;</text></g><!--link ResourceAuthentication to GetMeResource--><g id="link_ResourceAuthentication_GetMeResource"><path codeLine="83" d="M498,241.71 C498,270.59 498,307.97 498,339.43 " fill="none" id="ResourceAuthentication-to-GetMeResource" style="stroke:#181818;stroke-width:1.0;stroke-dasharray:7.0,7.0;"/><polygon fill="#181818" points="498,345.43,502,336.43,498,340.43,494,336.43,498,345.43" style="stroke:#181818;stroke-width:1.0;"/><text fill="#000000" font-family="sans-serif" font-size="13" lengthAdjust="spacing" textLength="40" x="456.5" y="274.0651">/getMe</text><text fill="#000000" font-family="sans-serif" font-size="13" lengthAdjust="spacing" textLength="41" x="456" y="290.4167">&#171;Path&#187;</text></g><!--link ResourceAuthentication to LogoutResource--><g id="link_ResourceAuthentication_LogoutResource"><path codeLine="84" d="M559.16,211 C614.71,211 688,211 688,211 C688,211 688,287.71 688,339.08 " fill="none" id="ResourceAuthentication-to-LogoutResource" style="stroke:#181818;stroke-width:1.0;stroke-dasharray:7.0,7.0;"/><polygon fill="#181818" points="688,345.08,692,336.08,688,340.08,684,336.08,688,345.08" style="stroke:#181818;stroke-width:1.0;"/><text fill="#000000" font-family="sans-serif" font-size="13" lengthAdjust="spacing" textLength="39" x="647" y="194.1151">/logout</text><text fill="#000000" font-family="sans-serif" font-size="13" lengthAdjust="spacing" textLength="41" x="646" y="210.4667">&#171;Path&#187;</text></g><!--link JobFairService to ResourceCompanies--><g id="link_JobFairService_ResourceCompanies"><path codeLine="86" d="M925,103.24 C925,120.77 925,137.13 925,156.94 " fill="none" id="JobFairService-to-ResourceCompanies" style="stroke:#181818;stroke-width:1.0;stroke-dasharray:7.0,7.0;"/><polygon fill="#181818" points="925,162.94,929,153.94,925,157.94,921,153.94,925,162.94" style="stroke:#181818;stroke-width:1.0;"/><text fill="#000000" font-family="sans-serif" font-size="13" lengthAdjust="spacing" textLength="67" x="857" y="113.5851">/companies</text><text fill="#000000" font-family="sans-serif" font-size="13" lengthAdjust="spacing" textLength="41" x="870" y="129.9367">&#171;Path&#187;</text></g><!--link ResourceCompanies to ResourceCompany--><g id="link_ResourceCompanies_ResourceCompany"><path codeLine="87" d="M925,259.01 C925,280.33 925,299.6 925,321.89 " fill="none" id="ResourceCompanies-to-ResourceCompany" style="stroke:#181818;stroke-width:1.0;stroke-dasharray:7.0,7.0;"/><polygon fill="#181818" points="925,327.89,929,318.89,925,322.89,921,318.89,925,327.89" style="stroke:#181818;stroke-width:1.0;"/><text fill="#000000" font-family="sans-serif" font-size="13" lengthAdjust="spacing" textLength="75" x="849" y="273.9451">/{companyId}</text><text fill="#000000" font-family="sans-serif" font-size="13" lengthAdjust="spacing" textLength="41" x="866" y="290.2967">&#171;Path&#187;</text></g><!--link ResourceCompany to RepresentationCompany--><g id="link_ResourceCompany_RepresentationCompany"><path codeLine="88" d="M925,442.28 C925,471.05 925,500.25 925,531.13 " fill="none" id="ResourceCompany-to-RepresentationCompany" style="stroke:#181818;stroke-width:1.0;stroke-dasharray:7.0,7.0;"/><polygon fill="#181818" points="925,537.13,929,528.13,925,532.13,921,528.13,925,537.13" style="stroke:#181818;stroke-width:1.0;"/><text fill="#000000" font-family="sans-serif" font-size="13" lengthAdjust="spacing" textLength="35" x="889" y="486.2051">&#171;use&#187;</text></g><!--link JobFairService to ResourceBookings--><g id="link_JobFairService_ResourceBookings"><path codeLine="90" d="M988.2,73 C1069.96,73 1202,73 1202,73 C1202,73 1202,124.68 1202,165.45 " fill="none" id="JobFairService-to-ResourceBookings" style="stroke:#181818;stroke-width:1.0;stroke-dasharray:7.0,7.0;"/><polygon fill="#181818" points="1202,171.45,1206,162.45,1202,166.45,1198,162.45,1202,171.45" style="stroke:#181818;stroke-width:1.0;"/><text fill="#000000" font-family="sans-serif" font-size="13" lengthAdjust="spacing" textLength="61" x="1082.33" y="53.4951">"/bookings</text><text fill="#000000" font-family="sans-serif" font-size="13" lengthAdjust="spacing" textLength="41" x="1092.33" y="69.8467">&#171;Path&#187;</text></g><!--link ResourceBookings to ResourceBooking--><g id="link_ResourceBookings_ResourceBooking"><path codeLine="91" d="M1202,250.92 C1202,270.99 1202,289.83 1202,312.67 " fill="none" id="ResourceBookings-to-ResourceBooking" style="stroke:#181818;stroke-width:1.0;stroke-dasharray:7.0,7.0;"/><polygon fill="#181818" points="1202,318.67,1206,309.67,1202,313.67,1198,309.67,1202,318.67" style="stroke:#181818;stroke-width:1.0;"/><text fill="#000000" font-family="sans-serif" font-size="13" lengthAdjust="spacing" textLength="63" x="1138" y="265.2851">/:bookingId</text><text fill="#000000" font-family="sans-serif" font-size="13" lengthAdjust="spacing" textLength="41" x="1149" y="281.6367">&#171;Path&#187;</text></g><!--link ResourceBooking to RepresentationBooking--><g id="link_ResourceBooking_RepresentationBooking"><path codeLine="92" d="M1204,451.27 C1204,480.97 1204,509.93 1204,539.65 " fill="none" id="ResourceBooking-to-RepresentationBooking" style="stroke:#181818;stroke-width:1.0;stroke-dasharray:7.0,7.0;"/><polygon fill="#181818" points="1204,545.65,1208,536.65,1204,540.65,1200,536.65,1204,545.65" style="stroke:#181818;stroke-width:1.0;"/><text fill="#000000" font-family="sans-serif" font-size="13" lengthAdjust="spacing" textLength="35" x="1168" y="494.9551">&#171;use&#187;</text></g><!--link RegisterResource to RepresentationUser--><g id="link_RegisterResource_RepresentationUser"><path codeLine="94" d="M195.74,385 C208.66,385 217.75,385 217.75,385 C217.75,385 217.75,444.25 217.75,504.78 " fill="none" id="RegisterResource-to-RepresentationUser" style="stroke:#181818;stroke-width:1.0;stroke-dasharray:7.0,7.0;"/><polygon fill="#181818" points="217.75,510.78,221.75,501.78,217.75,505.78,213.75,501.78,217.75,510.78" style="stroke:#181818;stroke-width:1.0;"/><text fill="#000000" font-family="sans-serif" font-size="13" lengthAdjust="spacing" textLength="35" x="181.75" y="451.3851">&#171;use&#187;</text></g><!--link LoginResource to RepresentationUser--><g id="link_LoginResource_RepresentationUser"><path codeLine="95" d="M308,424.54 C308,448.55 308,474.38 308,504.98 " fill="none" id="LoginResource-to-RepresentationUser" style="stroke:#181818;stroke-width:1.0;stroke-dasharray:7.0,7.0;"/><polygon fill="#181818" points="308,510.98,312,501.98,308,505.98,304,501.98,308,510.98" style="stroke:#181818;stroke-width:1.0;"/><text fill="#000000" font-family="sans-serif" font-size="13" lengthAdjust="spacing" textLength="35" x="272" y="464.2551">&#171;use&#187;</text></g><!--link GetMeResource to RepresentationUser--><g id="link_GetMeResource_RepresentationUser"><path codeLine="96" d="M420.39,385 C407.51,385 398.25,385 398.25,385 C398.25,385 398.25,444.25 398.25,504.78 " fill="none" id="GetMeResource-to-RepresentationUser" style="stroke:#181818;stroke-width:1.0;stroke-dasharray:7.0,7.0;"/><polygon fill="#181818" points="398.25,510.78,402.25,501.78,398.25,505.78,394.25,501.78,398.25,510.78" style="stroke:#181818;stroke-width:1.0;"/><text fill="#000000" font-family="sans-serif" font-size="13" lengthAdjust="spacing" textLength="35" x="362.25" y="451.3151">&#171;use&#187;</text></g><!--SRC=[bLRVRzem47xFNs7nqarJktU4a2XDExQMLFpODArxCCa9h8ROiaqxLFL_d-qumIPEe7b0pjrttvtjBtU8Pr8mpF4MvQG0kMU0A9SR6adAaAHeHQMaMvGH3gaaj8WYXjDdl0RKImeTWhxJ5Rh5XACPh8cG76jO3xr5I3tc9ysn4AWt68mOoqbg0CFXKw4YTU0S-0j9eOUmGBu9lRr7Xk42ZPQBR_5qCHcF5fDaYcxlary-zmm4tV4KDF5e9pTGI9lA45TktrKd2DAK6m9k2SgN2c0tg9_1u36PBuP3z8LRqAVFVRGKm0saAyKzNPEoGBFg9CyrucpcEv0FvPcQLP3vBZR4QmtuICbq9wkQrRABEZS8pVsJaipbla3BUJn3itYUB6VZ-3WVuo3KFTLQqQNPUt1TskpalKG5tWBg8wL3KgmTkuGyO8Kj9da8pbGXhvHd8H-dUJ15oW5Bo4PIEJErSaDKnVBHSYxeCnH1OXSL_sFgctEfweCR9m-Fe-dlrhCxtDMORXak20Zl6wYjBMAe_VhUofVzdxy1HPOxjWW7V5935XUeQjzPKoE9hMTfO3kMjPTJ8c_Y-tWHQt06ENZWboE1TeZHBz_rDZVHBacSPIfIX5oli194jWavPCv0f9mmqzGyTwsQwoJvCPdUdQ6QQqhLL5ZxegcCBVTJkVL9shMLZ2tWLBPGic0RB4Ld4KwwhhB2C4ysdSXZsJZW3yZ6twdhRUxt4krKQvle1aGAwNQPKc413sPCtc09pVOJx4plaQfO3TR3JDRplcxc779Z51l2H7Gqbw-kXcqJjOzwNx4oFHNgWB7S38Uzg0LQiXoDLHrVZT4pEVpHgGdCg3mpsX-FEjhCm_DpkoFG9bScDxxh-0xDMCUcrLie_G7Q9DYRyBTQ7U_j17iR7kfRVQrSfRnJLTVTG6TTsPT3ogY12mIRsBuDdcIXWYjais27ur1mGqpDEFs7mOtnjNCQxwlb9Fu_]--></g></svg>