<?xml version="1.0" encoding="us-ascii" standalone="no"?><svg xmlns="http://www.w3.org/2000/svg" xmlns:xlink="http://www.w3.org/1999/xlink" contentStyleType="text/css" height="759px" preserveAspectRatio="none" style="width:1179px;height:759px;background:#FFFFFF;" version="1.1" viewBox="0 0 1179 759" width="1179px" zoomAndPan="magnify"><defs/><g><text fill="#000000" font-family="sans-serif" font-size="14" font-weight="bold" lengthAdjust="spacing" textLength="226" x="472.5" y="43.1113">Create a Single Company (POST)</text><rect fill="#FFFFFF" height="482.1094" style="stroke:#181818;stroke-width:1.0;" width="10" x="190" y="170.7578"/><rect fill="#FFFFFF" height="451.7578" style="stroke:#181818;stroke-width:1.0;" width="10" x="415" y="201.1094"/><rect fill="#FFFFFF" height="116.4063" style="stroke:#181818;stroke-width:1.0;" width="10" x="550" y="231.4609"/><rect fill="#FFFFFF" height="30.3516" style="stroke:#181818;stroke-width:1.0;" width="10" x="550" y="424.4063"/><rect fill="#FFFFFF" height="30.3516" style="stroke:#181818;stroke-width:1.0;" width="10" x="692" y="261.8125"/><rect fill="#FFFFFF" height="151.7578" style="stroke:#181818;stroke-width:1.0;" width="10" x="787.5" y="485.1094"/><rect fill="#FFFFFF" height="91.0547" style="stroke:#181818;stroke-width:1.0;" width="10" x="973.5" y="515.4609"/><rect fill="#FFFFFF" height="30.3516" style="stroke:#181818;stroke-width:1.0;" width="10" x="1105.5" y="545.8125"/><rect fill="none" height="337.7031" style="stroke:#000000;stroke-width:1.5;" width="1152" x="10" y="307.1641"/><line style="stroke:#181818;stroke-width:0.5;stroke-dasharray:5.0,5.0;" x1="45" x2="45" y1="138.4063" y2="661.8672"/><line style="stroke:#181818;stroke-width:0.5;stroke-dasharray:5.0,5.0;" x1="195" x2="195" y1="138.4063" y2="661.8672"/><line style="stroke:#181818;stroke-width:0.5;stroke-dasharray:5.0,5.0;" x1="420" x2="420" y1="138.4063" y2="661.8672"/><line style="stroke:#181818;stroke-width:0.5;stroke-dasharray:5.0,5.0;" x1="554.5" x2="554.5" y1="138.4063" y2="661.8672"/><line style="stroke:#181818;stroke-width:0.5;stroke-dasharray:5.0,5.0;" x1="696.5" x2="696.5" y1="138.4063" y2="661.8672"/><line style="stroke:#181818;stroke-width:0.5;stroke-dasharray:5.0,5.0;" x1="792.5" x2="792.5" y1="138.4063" y2="661.8672"/><line style="stroke:#181818;stroke-width:0.5;stroke-dasharray:5.0,5.0;" x1="978.5" x2="978.5" y1="138.4063" y2="661.8672"/><line style="stroke:#181818;stroke-width:0.5;stroke-dasharray:5.0,5.0;" x1="1110" x2="1110" y1="138.4063" y2="661.8672"/><rect fill="#E2E2F0" height="31.6094" rx="2.5" ry="2.5" style="stroke:#181818;stroke-width:0.5;" width="50" x="20" y="105.7969"/><text fill="#000000" font-family="sans-serif" font-size="14" lengthAdjust="spacing" textLength="36" x="27" y="127.3301">Client</text><rect fill="#E2E2F0" height="31.6094" rx="2.5" ry="2.5" style="stroke:#181818;stroke-width:0.5;" width="50" x="20" y="660.8672"/><text fill="#000000" font-family="sans-serif" font-size="14" lengthAdjust="spacing" textLength="36" x="27" y="682.4004">Client</text><rect fill="#E2E2F0" height="49.2188" rx="2.5" ry="2.5" style="stroke:#181818;stroke-width:0.5;" width="92" x="149" y="88.1875"/><text fill="#000000" font-family="sans-serif" font-size="14" lengthAdjust="spacing" textLength="78" x="156" y="109.7207">&#171;javaScript&#187;</text><text fill="#000000" font-family="sans-serif" font-size="14" lengthAdjust="spacing" textLength="44" x="173" y="127.3301">:server</text><rect fill="#E2E2F0" height="49.2188" rx="2.5" ry="2.5" style="stroke:#181818;stroke-width:0.5;" width="92" x="149" y="660.8672"/><text fill="#000000" font-family="sans-serif" font-size="14" lengthAdjust="spacing" textLength="78" x="156" y="682.4004">&#171;javaScript&#187;</text><text fill="#000000" font-family="sans-serif" font-size="14" lengthAdjust="spacing" textLength="44" x="173" y="700.0098">:server</text><rect fill="#E2E2F0" height="49.2188" rx="2.5" ry="2.5" style="stroke:#181818;stroke-width:0.5;" width="86" x="377" y="88.1875"/><text fill="#000000" font-family="sans-serif" font-size="14" lengthAdjust="spacing" textLength="54" x="393" y="109.7207">&#171;router&#187;</text><text fill="#000000" font-family="sans-serif" font-size="14" lengthAdjust="spacing" textLength="72" x="384" y="127.3301">:companies</text><rect fill="#E2E2F0" height="49.2188" rx="2.5" ry="2.5" style="stroke:#181818;stroke-width:0.5;" width="86" x="377" y="660.8672"/><text fill="#000000" font-family="sans-serif" font-size="14" lengthAdjust="spacing" textLength="54" x="393" y="682.4004">&#171;router&#187;</text><text fill="#000000" font-family="sans-serif" font-size="14" lengthAdjust="spacing" textLength="72" x="384" y="700.0098">:companies</text><rect fill="#E2E2F0" height="49.2188" rx="2.5" ry="2.5" style="stroke:#181818;stroke-width:0.5;" width="101" x="504.5" y="88.1875"/><text fill="#000000" font-family="sans-serif" font-size="14" lengthAdjust="spacing" textLength="87" x="511.5" y="109.7207">&#171;middleware&#187;</text><text fill="#000000" font-family="sans-serif" font-size="14" lengthAdjust="spacing" textLength="32" x="539" y="127.3301">:auth</text><rect fill="#E2E2F0" height="49.2188" rx="2.5" ry="2.5" style="stroke:#181818;stroke-width:0.5;" width="101" x="504.5" y="660.8672"/><text fill="#000000" font-family="sans-serif" font-size="14" lengthAdjust="spacing" textLength="87" x="511.5" y="682.4004">&#171;middleware&#187;</text><text fill="#000000" font-family="sans-serif" font-size="14" lengthAdjust="spacing" textLength="32" x="539" y="700.0098">:auth</text><rect fill="#E2E2F0" height="49.2188" rx="2.5" ry="2.5" style="stroke:#181818;stroke-width:0.5;" width="75" x="659.5" y="88.1875"/><text fill="#000000" font-family="sans-serif" font-size="14" lengthAdjust="spacing" textLength="61" x="666.5" y="109.7207">&#171;service&#187;</text><text fill="#000000" font-family="sans-serif" font-size="14" lengthAdjust="spacing" textLength="20" x="687" y="127.3301">:jwt</text><rect fill="#E2E2F0" height="49.2188" rx="2.5" ry="2.5" style="stroke:#181818;stroke-width:0.5;" width="75" x="659.5" y="660.8672"/><text fill="#000000" font-family="sans-serif" font-size="14" lengthAdjust="spacing" textLength="61" x="666.5" y="682.4004">&#171;service&#187;</text><text fill="#000000" font-family="sans-serif" font-size="14" lengthAdjust="spacing" textLength="20" x="687" y="700.0098">:jwt</text><rect fill="#E2E2F0" height="49.2188" rx="2.5" ry="2.5" style="stroke:#181818;stroke-width:0.5;" width="96" x="744.5" y="88.1875"/><text fill="#000000" font-family="sans-serif" font-size="14" lengthAdjust="spacing" textLength="82" x="751.5" y="109.7207">&#171;controllers&#187;</text><text fill="#000000" font-family="sans-serif" font-size="14" lengthAdjust="spacing" textLength="72" x="756.5" y="127.3301">:companies</text><rect fill="#E2E2F0" height="49.2188" rx="2.5" ry="2.5" style="stroke:#181818;stroke-width:0.5;" width="96" x="744.5" y="660.8672"/><text fill="#000000" font-family="sans-serif" font-size="14" lengthAdjust="spacing" textLength="82" x="751.5" y="682.4004">&#171;controllers&#187;</text><text fill="#000000" font-family="sans-serif" font-size="14" lengthAdjust="spacing" textLength="72" x="756.5" y="700.0098">:companies</text><rect fill="#E2E2F0" height="49.2188" rx="2.5" ry="2.5" style="stroke:#181818;stroke-width:0.5;" width="78" x="939.5" y="88.1875"/><text fill="#000000" font-family="sans-serif" font-size="14" lengthAdjust="spacing" textLength="54" x="951.5" y="109.7207">&#171;model&#187;</text><text fill="#000000" font-family="sans-serif" font-size="14" lengthAdjust="spacing" textLength="64" x="946.5" y="127.3301">:Company</text><rect fill="#E2E2F0" height="49.2188" rx="2.5" ry="2.5" style="stroke:#181818;stroke-width:0.5;" width="78" x="939.5" y="660.8672"/><text fill="#000000" font-family="sans-serif" font-size="14" lengthAdjust="spacing" textLength="54" x="951.5" y="682.4004">&#171;model&#187;</text><text fill="#000000" font-family="sans-serif" font-size="14" lengthAdjust="spacing" textLength="64" x="946.5" y="700.0098">:Company</text><text fill="#000000" font-family="sans-serif" font-size="14" lengthAdjust="spacing" textLength="77" x="1069" y="117.7207">&#171;Database&#187;</text><text fill="#000000" font-family="sans-serif" font-size="14" lengthAdjust="spacing" textLength="66" x="1074.5" y="135.3301">:MongoDB</text><path d="M1092.5,67.1875 C1092.5,57.1875 1110.5,57.1875 1110.5,57.1875 C1110.5,57.1875 1128.5,57.1875 1128.5,67.1875 L1128.5,93.1875 C1128.5,103.1875 1110.5,103.1875 1110.5,103.1875 C1110.5,103.1875 1092.5,103.1875 1092.5,93.1875 L1092.5,67.1875 " fill="#E2E2F0" style="stroke:#181818;stroke-width:1.5;"/><path d="M1092.5,67.1875 C1092.5,77.1875 1110.5,77.1875 1110.5,77.1875 C1110.5,77.1875 1128.5,77.1875 1128.5,67.1875 " fill="none" style="stroke:#181818;stroke-width:1.5;"/><text fill="#000000" font-family="sans-serif" font-size="14" lengthAdjust="spacing" textLength="77" x="1069" y="675.4004">&#171;Database&#187;</text><text fill="#000000" font-family="sans-serif" font-size="14" lengthAdjust="spacing" textLength="66" x="1074.5" y="693.0098">:MongoDB</text><path d="M1092.5,706.0859 C1092.5,696.0859 1110.5,696.0859 1110.5,696.0859 C1110.5,696.0859 1128.5,696.0859 1128.5,706.0859 L1128.5,732.0859 C1128.5,742.0859 1110.5,742.0859 1110.5,742.0859 C1110.5,742.0859 1092.5,742.0859 1092.5,732.0859 L1092.5,706.0859 " fill="#E2E2F0" style="stroke:#181818;stroke-width:1.5;"/><path d="M1092.5,706.0859 C1092.5,716.0859 1110.5,716.0859 1110.5,716.0859 C1110.5,716.0859 1128.5,716.0859 1128.5,706.0859 " fill="none" style="stroke:#181818;stroke-width:1.5;"/><rect fill="#FFFFFF" height="482.1094" style="stroke:#181818;stroke-width:1.0;" width="10" x="190" y="170.7578"/><rect fill="#FFFFFF" height="451.7578" style="stroke:#181818;stroke-width:1.0;" width="10" x="415" y="201.1094"/><rect fill="#FFFFFF" height="116.4063" style="stroke:#181818;stroke-width:1.0;" width="10" x="550" y="231.4609"/><rect fill="#FFFFFF" height="30.3516" style="stroke:#181818;stroke-width:1.0;" width="10" x="550" y="424.4063"/><rect fill="#FFFFFF" height="30.3516" style="stroke:#181818;stroke-width:1.0;" width="10" x="692" y="261.8125"/><rect fill="#FFFFFF" height="151.7578" style="stroke:#181818;stroke-width:1.0;" width="10" x="787.5" y="485.1094"/><rect fill="#FFFFFF" height="91.0547" style="stroke:#181818;stroke-width:1.0;" width="10" x="973.5" y="515.4609"/><rect fill="#FFFFFF" height="30.3516" style="stroke:#181818;stroke-width:1.0;" width="10" x="1105.5" y="545.8125"/><polygon fill="#181818" points="178,166.7578,188,170.7578,178,174.7578,182,170.7578" style="stroke:#181818;stroke-width:1.0;"/><line style="stroke:#181818;stroke-width:1.0;" x1="45" x2="184" y1="170.7578" y2="170.7578"/><text fill="#000000" font-family="sans-serif" font-size="13" lengthAdjust="spacing" textLength="126" x="52" y="165.9014">req.post('/companies')</text><polygon fill="#181818" points="403,197.1094,413,201.1094,403,205.1094,407,201.1094" style="stroke:#181818;stroke-width:1.0;"/><line style="stroke:#181818;stroke-width:1.0;" x1="200" x2="409" y1="201.1094" y2="201.1094"/><text fill="#000000" font-family="sans-serif" font-size="13" lengthAdjust="spacing" textLength="196" x="207" y="196.2529">app.use('/companies', companies)</text><polygon fill="#181818" points="538,227.4609,548,231.4609,538,235.4609,542,231.4609" style="stroke:#181818;stroke-width:1.0;"/><line style="stroke:#181818;stroke-width:1.0;" x1="425" x2="544" y1="231.4609" y2="231.4609"/><text fill="#000000" font-family="sans-serif" font-size="13" lengthAdjust="spacing" textLength="48" x="432" y="226.6045">protect()</text><polygon fill="#181818" points="680,257.8125,690,261.8125,680,265.8125,684,261.8125" style="stroke:#181818;stroke-width:1.0;"/><line style="stroke:#181818;stroke-width:1.0;" x1="560" x2="686" y1="261.8125" y2="261.8125"/><text fill="#000000" font-family="sans-serif" font-size="13" lengthAdjust="spacing" textLength="113" x="567" y="256.9561">verify(token, secret)</text><polygon fill="#181818" points="571,288.1641,561,292.1641,571,296.1641,567,292.1641" style="stroke:#181818;stroke-width:1.0;"/><line style="stroke:#181818;stroke-width:1.0;stroke-dasharray:2.0,2.0;" x1="565" x2="696" y1="292.1641" y2="292.1641"/><text fill="#000000" font-family="sans-serif" font-size="13" lengthAdjust="spacing" textLength="49" x="577" y="287.3076">decoded</text><path d="M10,307.1641 L71,307.1641 L71,315.5156 L61,325.5156 L10,325.5156 L10,307.1641 " fill="#EEEEEE" style="stroke:#000000;stroke-width:1.5;"/><rect fill="none" height="337.7031" style="stroke:#000000;stroke-width:1.5;" width="1152" x="10" y="307.1641"/><text fill="#000000" font-family="sans-serif" font-size="13" font-weight="bold" lengthAdjust="spacing" textLength="16" x="25" y="321.6592">alt</text><a href="Fail" target="_top" title="Fail" xlink:actuate="onRequest" xlink:href="Fail" xlink:show="new" xlink:title="Fail" xlink:type="simple"><text fill="#0000FF" font-family="sans-serif" font-size="11" font-weight="bold" lengthAdjust="spacing" text-decoration="underline" textLength="18" x="86" y="320.583">Fail</text></a><polygon fill="#181818" points="56,343.8672,46,347.8672,56,351.8672,52,347.8672" style="stroke:#181818;stroke-width:1.0;"/><line style="stroke:#181818;stroke-width:1.0;" x1="50" x2="554" y1="347.8672" y2="347.8672"/><text fill="#000000" font-family="sans-serif" font-size="13" lengthAdjust="spacing" textLength="73" x="62" y="343.0107">response fail</text><line style="stroke:#000000;stroke-width:1.0;stroke-dasharray:2.0,2.0;" x1="10" x2="1162" y1="356.8672" y2="356.8672"/><a href="Success" target="_top" title="Success" xlink:actuate="onRequest" xlink:href="Success" xlink:show="new" xlink:title="Success" xlink:type="simple"><text fill="#0000FF" font-family="sans-serif" font-size="11" font-weight="bold" lengthAdjust="spacing" text-decoration="underline" textLength="47" x="15" y="368.2861">Success</text></a><polygon fill="#181818" points="436,390.0547,426,394.0547,436,398.0547,432,394.0547" style="stroke:#181818;stroke-width:1.0;"/><line style="stroke:#181818;stroke-width:1.0;stroke-dasharray:2.0,2.0;" x1="430" x2="554" y1="394.0547" y2="394.0547"/><text fill="#000000" font-family="sans-serif" font-size="13" lengthAdjust="spacing" textLength="33" x="442" y="389.1982">next()</text><polygon fill="#181818" points="538,420.4063,548,424.4063,538,428.4063,542,424.4063" style="stroke:#181818;stroke-width:1.0;"/><line style="stroke:#181818;stroke-width:1.0;" x1="425" x2="544" y1="424.4063" y2="424.4063"/><text fill="#000000" font-family="sans-serif" font-size="13" lengthAdjust="spacing" textLength="106" x="432" y="419.5498">authorize("admin")</text><polygon fill="#181818" points="436,450.7578,426,454.7578,436,458.7578,432,454.7578" style="stroke:#181818;stroke-width:1.0;"/><line style="stroke:#181818;stroke-width:1.0;stroke-dasharray:2.0,2.0;" x1="430" x2="554" y1="454.7578" y2="454.7578"/><text fill="#000000" font-family="sans-serif" font-size="13" lengthAdjust="spacing" textLength="33" x="442" y="449.9014">next()</text><polygon fill="#181818" points="775.5,481.1094,785.5,485.1094,775.5,489.1094,779.5,485.1094" style="stroke:#181818;stroke-width:1.0;"/><line style="stroke:#181818;stroke-width:1.0;" x1="425" x2="781.5" y1="485.1094" y2="485.1094"/><text fill="#000000" font-family="sans-serif" font-size="13" lengthAdjust="spacing" textLength="99" x="432" y="480.2529">createCompany()</text><polygon fill="#181818" points="961.5,511.4609,971.5,515.4609,961.5,519.4609,965.5,515.4609" style="stroke:#181818;stroke-width:1.0;"/><line style="stroke:#181818;stroke-width:1.0;" x1="797.5" x2="967.5" y1="515.4609" y2="515.4609"/><text fill="#000000" font-family="sans-serif" font-size="13" lengthAdjust="spacing" textLength="157" x="804.5" y="510.6045">Company.create(req.body);</text><polygon fill="#181818" points="1093.5,541.8125,1103.5,545.8125,1093.5,549.8125,1097.5,545.8125" style="stroke:#181818;stroke-width:1.0;"/><line style="stroke:#181818;stroke-width:1.0;" x1="983.5" x2="1099.5" y1="545.8125" y2="545.8125"/><text fill="#000000" font-family="sans-serif" font-size="13" lengthAdjust="spacing" textLength="103" x="990.5" y="540.9561">CompanySchema</text><polygon fill="#181818" points="994.5,572.1641,984.5,576.1641,994.5,580.1641,990.5,576.1641" style="stroke:#181818;stroke-width:1.0;"/><line style="stroke:#181818;stroke-width:1.0;stroke-dasharray:2.0,2.0;" x1="988.5" x2="1109.5" y1="576.1641" y2="576.1641"/><text fill="#000000" font-family="sans-serif" font-size="13" lengthAdjust="spacing" textLength="53" x="1000.5" y="571.3076">company</text><polygon fill="#181818" points="808.5,602.5156,798.5,606.5156,808.5,610.5156,804.5,606.5156" style="stroke:#181818;stroke-width:1.0;"/><line style="stroke:#181818;stroke-width:1.0;stroke-dasharray:2.0,2.0;" x1="802.5" x2="977.5" y1="606.5156" y2="606.5156"/><text fill="#000000" font-family="sans-serif" font-size="13" lengthAdjust="spacing" textLength="53" x="814.5" y="601.6592">company</text><polygon fill="#181818" points="56,632.8672,46,636.8672,56,640.8672,52,636.8672" style="stroke:#181818;stroke-width:1.0;"/><line style="stroke:#181818;stroke-width:1.0;" x1="50" x2="791.5" y1="636.8672" y2="636.8672"/><text fill="#000000" font-family="sans-serif" font-size="13" lengthAdjust="spacing" textLength="53" x="62" y="632.0107">response</text><text fill="#888888" font-family="sans-serif" font-size="10" lengthAdjust="spacing" textLength="132" x="1039" y="15.3809">Online Job Fair Registration</text><!--SRC=[fPDDRzim38Rl-XM2BxNHAhrdWGzBiSE0eKMzMxS38x69EaNo9APjzkkd3oU83NUN-IA2V5wH8kaTWaBFxwtH5lbNj-5VG7l-Y5iTo0DfPnbfCiYhjKSWvC0xRRVHiNRx7koHrm_ttVUcOgm7JrhgwAH86usMAWw1osoEmwlL2xn29xtkgMr_s6L0_ue-yyMSyjuT27rcPSwiCMIy1DOdtrItrqePV0EFMGi7scLPCgPiognb0L_UIlNnd6BIMVBE6FHXffwBwCT5EOKcQuSkPcNs3WwcW6030HD-DzXPyStPhRlxd1MdG2Ttk0V6Igj5Mrh8hw-N7dylUXUelhezbtdLi0A8TjAyf82-Nnm2ZWGt_6mtRAeHRMvcqlRU4Kgg6vOzCHBRbm8ncNu-rkH-eRs94vOUQO1MGcHAYAL26LkW60D3_2bkeld9UFpAio9P4aNIO-YTZTrvZX134wsdxY0bXb0aqo9JbfFOudigSPQxU4mwdTT_iAv0xRMjcl-zUMurKYQPVwrXydL9CyUAzd95ad8m5-M6EarxuzIn-PJl6D6Y7MzBafz-uc5_acO2YLZs-1gn79RX-66TkIV_LfqdEgk_c313gzXV]--></g></svg>