<?xml version="1.0" encoding="us-ascii" standalone="no"?><svg xmlns="http://www.w3.org/2000/svg" xmlns:xlink="http://www.w3.org/1999/xlink" contentStyleType="text/css" height="1018px" preserveAspectRatio="none" style="width:1489px;height:1018px;background:#FFFFFF;" version="1.1" viewBox="0 0 1489 1018" width="1489px" zoomAndPan="magnify"><defs/><g><text fill="#000000" font-family="sans-serif" font-size="14" font-weight="bold" lengthAdjust="spacing" textLength="241" x="620" y="43.1113">Delete a Single Company (DELETE)</text><rect fill="#FFFFFF" height="741.2734" style="stroke:#181818;stroke-width:1.0;" width="10" x="218" y="170.7578"/><rect fill="#FFFFFF" height="710.9219" style="stroke:#181818;stroke-width:1.0;" width="10" x="443" y="201.1094"/><rect fill="#FFFFFF" height="116.4063" style="stroke:#181818;stroke-width:1.0;" width="10" x="578" y="231.4609"/><rect fill="#FFFFFF" height="30.3516" style="stroke:#181818;stroke-width:1.0;" width="10" x="578" y="424.4063"/><rect fill="#FFFFFF" height="30.3516" style="stroke:#181818;stroke-width:1.0;" width="10" x="720" y="261.8125"/><rect fill="#FFFFFF" height="410.9219" style="stroke:#181818;stroke-width:1.0;" width="10" x="815.5" y="485.1094"/><rect fill="#FFFFFF" height="91.0547" style="stroke:#181818;stroke-width:1.0;" width="10" x="1049.5" y="531.8125"/><rect fill="#FFFFFF" height="212.4609" style="stroke:#181818;stroke-width:1.0;" width="10" x="1049.5" y="653.2188"/><rect fill="#FFFFFF" height="91.0547" style="stroke:#181818;stroke-width:1.0;" width="10" x="1291.5" y="683.5703"/><rect fill="#FFFFFF" height="30.3516" style="stroke:#181818;stroke-width:1.0;" width="10" x="1415.5" y="562.1641"/><rect fill="#FFFFFF" height="30.3516" style="stroke:#181818;stroke-width:1.0;" width="10" x="1415.5" y="713.9219"/><rect fill="#FFFFFF" height="30.3516" style="stroke:#181818;stroke-width:1.0;" width="10" x="1415.5" y="804.9766"/><rect fill="none" height="596.8672" style="stroke:#000000;stroke-width:1.5;" width="1462" x="10" y="307.1641"/><line style="stroke:#181818;stroke-width:0.5;stroke-dasharray:5.0,5.0;" x1="45" x2="45" y1="138.4063" y2="921.0313"/><line style="stroke:#181818;stroke-width:0.5;stroke-dasharray:5.0,5.0;" x1="223" x2="223" y1="138.4063" y2="921.0313"/><line style="stroke:#181818;stroke-width:0.5;stroke-dasharray:5.0,5.0;" x1="448" x2="448" y1="138.4063" y2="921.0313"/><line style="stroke:#181818;stroke-width:0.5;stroke-dasharray:5.0,5.0;" x1="582.5" x2="582.5" y1="138.4063" y2="921.0313"/><line style="stroke:#181818;stroke-width:0.5;stroke-dasharray:5.0,5.0;" x1="724.5" x2="724.5" y1="138.4063" y2="921.0313"/><line style="stroke:#181818;stroke-width:0.5;stroke-dasharray:5.0,5.0;" x1="820.5" x2="820.5" y1="138.4063" y2="921.0313"/><line style="stroke:#181818;stroke-width:0.5;stroke-dasharray:5.0,5.0;" x1="1054.5" x2="1054.5" y1="138.4063" y2="921.0313"/><line style="stroke:#181818;stroke-width:0.5;stroke-dasharray:5.0,5.0;" x1="1296" x2="1296" y1="138.4063" y2="921.0313"/><line style="stroke:#181818;stroke-width:0.5;stroke-dasharray:5.0,5.0;" x1="1420" x2="1420" y1="138.4063" y2="921.0313"/><rect fill="#E2E2F0" height="31.6094" rx="2.5" ry="2.5" style="stroke:#181818;stroke-width:0.5;" width="50" x="20" y="105.7969"/><text fill="#000000" font-family="sans-serif" font-size="14" lengthAdjust="spacing" textLength="36" x="27" y="127.3301">Client</text><rect fill="#E2E2F0" height="31.6094" rx="2.5" ry="2.5" style="stroke:#181818;stroke-width:0.5;" width="50" x="20" y="920.0313"/><text fill="#000000" font-family="sans-serif" font-size="14" lengthAdjust="spacing" textLength="36" x="27" y="941.5645">Client</text><rect fill="#E2E2F0" height="49.2188" rx="2.5" ry="2.5" style="stroke:#181818;stroke-width:0.5;" width="92" x="177" y="88.1875"/><text fill="#000000" font-family="sans-serif" font-size="14" lengthAdjust="spacing" textLength="78" x="184" y="109.7207">&#171;javaScript&#187;</text><text fill="#000000" font-family="sans-serif" font-size="14" lengthAdjust="spacing" textLength="44" x="201" y="127.3301">:server</text><rect fill="#E2E2F0" height="49.2188" rx="2.5" ry="2.5" style="stroke:#181818;stroke-width:0.5;" width="92" x="177" y="920.0313"/><text fill="#000000" font-family="sans-serif" font-size="14" lengthAdjust="spacing" textLength="78" x="184" y="941.5645">&#171;javaScript&#187;</text><text fill="#000000" font-family="sans-serif" font-size="14" lengthAdjust="spacing" textLength="44" x="201" y="959.1738">:server</text><rect fill="#E2E2F0" height="49.2188" rx="2.5" ry="2.5" style="stroke:#181818;stroke-width:0.5;" width="86" x="405" y="88.1875"/><text fill="#000000" font-family="sans-serif" font-size="14" lengthAdjust="spacing" textLength="54" x="421" y="109.7207">&#171;router&#187;</text><text fill="#000000" font-family="sans-serif" font-size="14" lengthAdjust="spacing" textLength="72" x="412" y="127.3301">:companies</text><rect fill="#E2E2F0" height="49.2188" rx="2.5" ry="2.5" style="stroke:#181818;stroke-width:0.5;" width="86" x="405" y="920.0313"/><text fill="#000000" font-family="sans-serif" font-size="14" lengthAdjust="spacing" textLength="54" x="421" y="941.5645">&#171;router&#187;</text><text fill="#000000" font-family="sans-serif" font-size="14" lengthAdjust="spacing" textLength="72" x="412" y="959.1738">:companies</text><rect fill="#E2E2F0" height="49.2188" rx="2.5" ry="2.5" style="stroke:#181818;stroke-width:0.5;" width="101" x="532.5" y="88.1875"/><text fill="#000000" font-family="sans-serif" font-size="14" lengthAdjust="spacing" textLength="87" x="539.5" y="109.7207">&#171;middleware&#187;</text><text fill="#000000" font-family="sans-serif" font-size="14" lengthAdjust="spacing" textLength="32" x="567" y="127.3301">:auth</text><rect fill="#E2E2F0" height="49.2188" rx="2.5" ry="2.5" style="stroke:#181818;stroke-width:0.5;" width="101" x="532.5" y="920.0313"/><text fill="#000000" font-family="sans-serif" font-size="14" lengthAdjust="spacing" textLength="87" x="539.5" y="941.5645">&#171;middleware&#187;</text><text fill="#000000" font-family="sans-serif" font-size="14" lengthAdjust="spacing" textLength="32" x="567" y="959.1738">:auth</text><rect fill="#E2E2F0" height="49.2188" rx="2.5" ry="2.5" style="stroke:#181818;stroke-width:0.5;" width="75" x="687.5" y="88.1875"/><text fill="#000000" font-family="sans-serif" font-size="14" lengthAdjust="spacing" textLength="61" x="694.5" y="109.7207">&#171;service&#187;</text><text fill="#000000" font-family="sans-serif" font-size="14" lengthAdjust="spacing" textLength="20" x="715" y="127.3301">:jwt</text><rect fill="#E2E2F0" height="49.2188" rx="2.5" ry="2.5" style="stroke:#181818;stroke-width:0.5;" width="75" x="687.5" y="920.0313"/><text fill="#000000" font-family="sans-serif" font-size="14" lengthAdjust="spacing" textLength="61" x="694.5" y="941.5645">&#171;service&#187;</text><text fill="#000000" font-family="sans-serif" font-size="14" lengthAdjust="spacing" textLength="20" x="715" y="959.1738">:jwt</text><rect fill="#E2E2F0" height="49.2188" rx="2.5" ry="2.5" style="stroke:#181818;stroke-width:0.5;" width="96" x="772.5" y="88.1875"/><text fill="#000000" font-family="sans-serif" font-size="14" lengthAdjust="spacing" textLength="82" x="779.5" y="109.7207">&#171;controllers&#187;</text><text fill="#000000" font-family="sans-serif" font-size="14" lengthAdjust="spacing" textLength="72" x="784.5" y="127.3301">:companies</text><rect fill="#E2E2F0" height="49.2188" rx="2.5" ry="2.5" style="stroke:#181818;stroke-width:0.5;" width="96" x="772.5" y="920.0313"/><text fill="#000000" font-family="sans-serif" font-size="14" lengthAdjust="spacing" textLength="82" x="779.5" y="941.5645">&#171;controllers&#187;</text><text fill="#000000" font-family="sans-serif" font-size="14" lengthAdjust="spacing" textLength="72" x="784.5" y="959.1738">:companies</text><rect fill="#E2E2F0" height="49.2188" rx="2.5" ry="2.5" style="stroke:#181818;stroke-width:0.5;" width="78" x="1015.5" y="88.1875"/><text fill="#000000" font-family="sans-serif" font-size="14" lengthAdjust="spacing" textLength="54" x="1027.5" y="109.7207">&#171;model&#187;</text><text fill="#000000" font-family="sans-serif" font-size="14" lengthAdjust="spacing" textLength="64" x="1022.5" y="127.3301">:Company</text><rect fill="#E2E2F0" height="49.2188" rx="2.5" ry="2.5" style="stroke:#181818;stroke-width:0.5;" width="78" x="1015.5" y="920.0313"/><text fill="#000000" font-family="sans-serif" font-size="14" lengthAdjust="spacing" textLength="54" x="1027.5" y="941.5645">&#171;model&#187;</text><text fill="#000000" font-family="sans-serif" font-size="14" lengthAdjust="spacing" textLength="64" x="1022.5" y="959.1738">:Company</text><rect fill="#E2E2F0" height="49.2188" rx="2.5" ry="2.5" style="stroke:#181818;stroke-width:0.5;" width="69" x="1262" y="88.1875"/><text fill="#000000" font-family="sans-serif" font-size="14" lengthAdjust="spacing" textLength="54" x="1269.5" y="109.7207">&#171;model&#187;</text><text fill="#000000" font-family="sans-serif" font-size="14" lengthAdjust="spacing" textLength="55" x="1269" y="127.3301">:Booking</text><rect fill="#E2E2F0" height="49.2188" rx="2.5" ry="2.5" style="stroke:#181818;stroke-width:0.5;" width="69" x="1262" y="920.0313"/><text fill="#000000" font-family="sans-serif" font-size="14" lengthAdjust="spacing" textLength="54" x="1269.5" y="941.5645">&#171;model&#187;</text><text fill="#000000" font-family="sans-serif" font-size="14" lengthAdjust="spacing" textLength="55" x="1269" y="959.1738">:Booking</text><text fill="#000000" font-family="sans-serif" font-size="14" lengthAdjust="spacing" textLength="77" x="1379" y="117.7207">&#171;Database&#187;</text><text fill="#000000" font-family="sans-serif" font-size="14" lengthAdjust="spacing" textLength="66" x="1384.5" y="135.3301">:MongoDB</text><path d="M1402.5,67.1875 C1402.5,57.1875 1420.5,57.1875 1420.5,57.1875 C1420.5,57.1875 1438.5,57.1875 1438.5,67.1875 L1438.5,93.1875 C1438.5,103.1875 1420.5,103.1875 1420.5,103.1875 C1420.5,103.1875 1402.5,103.1875 1402.5,93.1875 L1402.5,67.1875 " fill="#E2E2F0" style="stroke:#181818;stroke-width:1.5;"/><path d="M1402.5,67.1875 C1402.5,77.1875 1420.5,77.1875 1420.5,77.1875 C1420.5,77.1875 1438.5,77.1875 1438.5,67.1875 " fill="none" style="stroke:#181818;stroke-width:1.5;"/><text fill="#000000" font-family="sans-serif" font-size="14" lengthAdjust="spacing" textLength="77" x="1379" y="934.5645">&#171;Database&#187;</text><text fill="#000000" font-family="sans-serif" font-size="14" lengthAdjust="spacing" textLength="66" x="1384.5" y="952.1738">:MongoDB</text><path d="M1402.5,965.25 C1402.5,955.25 1420.5,955.25 1420.5,955.25 C1420.5,955.25 1438.5,955.25 1438.5,965.25 L1438.5,991.25 C1438.5,1001.25 1420.5,1001.25 1420.5,1001.25 C1420.5,1001.25 1402.5,1001.25 1402.5,991.25 L1402.5,965.25 " fill="#E2E2F0" style="stroke:#181818;stroke-width:1.5;"/><path d="M1402.5,965.25 C1402.5,975.25 1420.5,975.25 1420.5,975.25 C1420.5,975.25 1438.5,975.25 1438.5,965.25 " fill="none" style="stroke:#181818;stroke-width:1.5;"/><rect fill="#FFFFFF" height="741.2734" style="stroke:#181818;stroke-width:1.0;" width="10" x="218" y="170.7578"/><rect fill="#FFFFFF" height="710.9219" style="stroke:#181818;stroke-width:1.0;" width="10" x="443" y="201.1094"/><rect fill="#FFFFFF" height="116.4063" style="stroke:#181818;stroke-width:1.0;" width="10" x="578" y="231.4609"/><rect fill="#FFFFFF" height="30.3516" style="stroke:#181818;stroke-width:1.0;" width="10" x="578" y="424.4063"/><rect fill="#FFFFFF" height="30.3516" style="stroke:#181818;stroke-width:1.0;" width="10" x="720" y="261.8125"/><rect fill="#FFFFFF" height="410.9219" style="stroke:#181818;stroke-width:1.0;" width="10" x="815.5" y="485.1094"/><rect fill="#FFFFFF" height="91.0547" style="stroke:#181818;stroke-width:1.0;" width="10" x="1049.5" y="531.8125"/><rect fill="#FFFFFF" height="212.4609" style="stroke:#181818;stroke-width:1.0;" width="10" x="1049.5" y="653.2188"/><rect fill="#FFFFFF" height="91.0547" style="stroke:#181818;stroke-width:1.0;" width="10" x="1291.5" y="683.5703"/><rect fill="#FFFFFF" height="30.3516" style="stroke:#181818;stroke-width:1.0;" width="10" x="1415.5" y="562.1641"/><rect fill="#FFFFFF" height="30.3516" style="stroke:#181818;stroke-width:1.0;" width="10" x="1415.5" y="713.9219"/><rect fill="#FFFFFF" height="30.3516" style="stroke:#181818;stroke-width:1.0;" width="10" x="1415.5" y="804.9766"/><polygon fill="#181818" points="206,166.7578,216,170.7578,206,174.7578,210,170.7578" style="stroke:#181818;stroke-width:1.0;"/><line style="stroke:#181818;stroke-width:1.0;" x1="45" x2="212" y1="170.7578" y2="170.7578"/><text fill="#000000" font-family="sans-serif" font-size="13" lengthAdjust="spacing" textLength="154" x="52" y="165.9014">req.delete('/companies/:id')</text><polygon fill="#181818" points="431,197.1094,441,201.1094,431,205.1094,435,201.1094" style="stroke:#181818;stroke-width:1.0;"/><line style="stroke:#181818;stroke-width:1.0;" x1="228" x2="437" y1="201.1094" y2="201.1094"/><text fill="#000000" font-family="sans-serif" font-size="13" lengthAdjust="spacing" textLength="196" x="235" y="196.2529">app.use('/companies', companies)</text><polygon fill="#181818" points="566,227.4609,576,231.4609,566,235.4609,570,231.4609" style="stroke:#181818;stroke-width:1.0;"/><line style="stroke:#181818;stroke-width:1.0;" x1="453" x2="572" y1="231.4609" y2="231.4609"/><text fill="#000000" font-family="sans-serif" font-size="13" lengthAdjust="spacing" textLength="48" x="460" y="226.6045">protect()</text><polygon fill="#181818" points="708,257.8125,718,261.8125,708,265.8125,712,261.8125" style="stroke:#181818;stroke-width:1.0;"/><line style="stroke:#181818;stroke-width:1.0;" x1="588" x2="714" y1="261.8125" y2="261.8125"/><text fill="#000000" font-family="sans-serif" font-size="13" lengthAdjust="spacing" textLength="113" x="595" y="256.9561">verify(token, secret)</text><polygon fill="#181818" points="599,288.1641,589,292.1641,599,296.1641,595,292.1641" style="stroke:#181818;stroke-width:1.0;"/><line style="stroke:#181818;stroke-width:1.0;stroke-dasharray:2.0,2.0;" x1="593" x2="724" y1="292.1641" y2="292.1641"/><text fill="#000000" font-family="sans-serif" font-size="13" lengthAdjust="spacing" textLength="49" x="605" y="287.3076">decoded</text><path d="M10,307.1641 L71,307.1641 L71,315.5156 L61,325.5156 L10,325.5156 L10,307.1641 " fill="#EEEEEE" style="stroke:#000000;stroke-width:1.5;"/><rect fill="none" height="596.8672" style="stroke:#000000;stroke-width:1.5;" width="1462" x="10" y="307.1641"/><text fill="#000000" font-family="sans-serif" font-size="13" font-weight="bold" lengthAdjust="spacing" textLength="16" x="25" y="321.6592">alt</text><a href="Fail" target="_top" title="Fail" xlink:actuate="onRequest" xlink:href="Fail" xlink:show="new" xlink:title="Fail" xlink:type="simple"><text fill="#0000FF" font-family="sans-serif" font-size="11" font-weight="bold" lengthAdjust="spacing" text-decoration="underline" textLength="18" x="86" y="320.583">Fail</text></a><polygon fill="#181818" points="56,343.8672,46,347.8672,56,351.8672,52,347.8672" style="stroke:#181818;stroke-width:1.0;"/><line style="stroke:#181818;stroke-width:1.0;" x1="50" x2="582" y1="347.8672" y2="347.8672"/><text fill="#000000" font-family="sans-serif" font-size="13" lengthAdjust="spacing" textLength="73" x="62" y="343.0107">response fail</text><line style="stroke:#000000;stroke-width:1.0;stroke-dasharray:2.0,2.0;" x1="10" x2="1472" y1="356.8672" y2="356.8672"/><a href="Success" target="_top" title="Success" xlink:actuate="onRequest" xlink:href="Success" xlink:show="new" xlink:title="Success" xlink:type="simple"><text fill="#0000FF" font-family="sans-serif" font-size="11" font-weight="bold" lengthAdjust="spacing" text-decoration="underline" textLength="47" x="15" y="368.2861">Success</text></a><polygon fill="#181818" points="464,390.0547,454,394.0547,464,398.0547,460,394.0547" style="stroke:#181818;stroke-width:1.0;"/><line style="stroke:#181818;stroke-width:1.0;stroke-dasharray:2.0,2.0;" x1="458" x2="582" y1="394.0547" y2="394.0547"/><text fill="#000000" font-family="sans-serif" font-size="13" lengthAdjust="spacing" textLength="33" x="470" y="389.1982">next()</text><polygon fill="#181818" points="566,420.4063,576,424.4063,566,428.4063,570,424.4063" style="stroke:#181818;stroke-width:1.0;"/><line style="stroke:#181818;stroke-width:1.0;" x1="453" x2="572" y1="424.4063" y2="424.4063"/><text fill="#000000" font-family="sans-serif" font-size="13" lengthAdjust="spacing" textLength="106" x="460" y="419.5498">authorize("admin")</text><polygon fill="#181818" points="464,450.7578,454,454.7578,464,458.7578,460,454.7578" style="stroke:#181818;stroke-width:1.0;"/><line style="stroke:#181818;stroke-width:1.0;stroke-dasharray:2.0,2.0;" x1="458" x2="582" y1="454.7578" y2="454.7578"/><text fill="#000000" font-family="sans-serif" font-size="13" lengthAdjust="spacing" textLength="33" x="470" y="449.9014">next()</text><polygon fill="#181818" points="803.5,481.1094,813.5,485.1094,803.5,489.1094,807.5,485.1094" style="stroke:#181818;stroke-width:1.0;"/><line style="stroke:#181818;stroke-width:1.0;" x1="453" x2="809.5" y1="485.1094" y2="485.1094"/><text fill="#000000" font-family="sans-serif" font-size="13" lengthAdjust="spacing" textLength="98" x="460" y="480.2529">deleteCompany()</text><polygon fill="#181818" points="1037.5,527.8125,1047.5,531.8125,1037.5,535.8125,1041.5,531.8125" style="stroke:#181818;stroke-width:1.0;"/><line style="stroke:#181818;stroke-width:1.0;" x1="825.5" x2="1043.5" y1="531.8125" y2="531.8125"/><text fill="#000000" font-family="sans-serif" font-size="13" lengthAdjust="spacing" textLength="105" x="832.5" y="510.6045">Company.findById</text><text fill="#000000" font-family="sans-serif" font-size="13" lengthAdjust="spacing" textLength="145" x="832.5" y="526.9561">(req.params.id, req.body)</text><polygon fill="#181818" points="1403.5,558.1641,1413.5,562.1641,1403.5,566.1641,1407.5,562.1641" style="stroke:#181818;stroke-width:1.0;"/><line style="stroke:#181818;stroke-width:1.0;" x1="1059.5" x2="1409.5" y1="562.1641" y2="562.1641"/><text fill="#000000" font-family="sans-serif" font-size="13" lengthAdjust="spacing" textLength="103" x="1066.5" y="557.3076">CompanySchema</text><polygon fill="#181818" points="1070.5,588.5156,1060.5,592.5156,1070.5,596.5156,1066.5,592.5156" style="stroke:#181818;stroke-width:1.0;"/><line style="stroke:#181818;stroke-width:1.0;stroke-dasharray:2.0,2.0;" x1="1064.5" x2="1419.5" y1="592.5156" y2="592.5156"/><text fill="#000000" font-family="sans-serif" font-size="13" lengthAdjust="spacing" textLength="53" x="1076.5" y="587.6592">company</text><polygon fill="#181818" points="836.5,618.8672,826.5,622.8672,836.5,626.8672,832.5,622.8672" style="stroke:#181818;stroke-width:1.0;"/><line style="stroke:#181818;stroke-width:1.0;stroke-dasharray:2.0,2.0;" x1="830.5" x2="1053.5" y1="622.8672" y2="622.8672"/><text fill="#000000" font-family="sans-serif" font-size="13" lengthAdjust="spacing" textLength="53" x="842.5" y="618.0107">company</text><polygon fill="#181818" points="1037.5,649.2188,1047.5,653.2188,1037.5,657.2188,1041.5,653.2188" style="stroke:#181818;stroke-width:1.0;"/><line style="stroke:#181818;stroke-width:1.0;" x1="825.5" x2="1043.5" y1="653.2188" y2="653.2188"/><text fill="#000000" font-family="sans-serif" font-size="13" lengthAdjust="spacing" textLength="205" x="832.5" y="648.3623">Company.deleteOne(req.params.id)</text><polygon fill="#181818" points="1279.5,679.5703,1289.5,683.5703,1279.5,687.5703,1283.5,683.5703" style="stroke:#181818;stroke-width:1.0;"/><line style="stroke:#181818;stroke-width:1.0;" x1="1059.5" x2="1285.5" y1="683.5703" y2="683.5703"/><text fill="#000000" font-family="sans-serif" font-size="13" lengthAdjust="spacing" textLength="213" x="1066.5" y="678.7139">Company.deleteMany(req.params.id)</text><polygon fill="#181818" points="1403.5,709.9219,1413.5,713.9219,1403.5,717.9219,1407.5,713.9219" style="stroke:#181818;stroke-width:1.0;"/><line style="stroke:#181818;stroke-width:1.0;" x1="1301.5" x2="1409.5" y1="713.9219" y2="713.9219"/><text fill="#000000" font-family="sans-serif" font-size="13" lengthAdjust="spacing" textLength="95" x="1308.5" y="709.0654">BookingSchema</text><polygon fill="#181818" points="1312.5,740.2734,1302.5,744.2734,1312.5,748.2734,1308.5,744.2734" style="stroke:#181818;stroke-width:1.0;"/><line style="stroke:#181818;stroke-width:1.0;stroke-dasharray:2.0,2.0;" x1="1306.5" x2="1419.5" y1="744.2734" y2="744.2734"/><text fill="#000000" font-family="sans-serif" font-size="13" lengthAdjust="spacing" textLength="45" x="1318.5" y="739.417">booking</text><polygon fill="#181818" points="1070.5,770.625,1060.5,774.625,1070.5,778.625,1066.5,774.625" style="stroke:#181818;stroke-width:1.0;"/><line style="stroke:#181818;stroke-width:1.0;stroke-dasharray:2.0,2.0;" x1="1064.5" x2="1295.5" y1="774.625" y2="774.625"/><text fill="#000000" font-family="sans-serif" font-size="13" lengthAdjust="spacing" textLength="45" x="1076.5" y="769.7686">booking</text><polygon fill="#181818" points="1403.5,800.9766,1413.5,804.9766,1403.5,808.9766,1407.5,804.9766" style="stroke:#181818;stroke-width:1.0;"/><line style="stroke:#181818;stroke-width:1.0;" x1="1059.5" x2="1409.5" y1="804.9766" y2="804.9766"/><text fill="#000000" font-family="sans-serif" font-size="13" lengthAdjust="spacing" textLength="103" x="1066.5" y="800.1201">CompanySchema</text><polygon fill="#181818" points="1070.5,831.3281,1060.5,835.3281,1070.5,839.3281,1066.5,835.3281" style="stroke:#181818;stroke-width:1.0;"/><line style="stroke:#181818;stroke-width:1.0;stroke-dasharray:2.0,2.0;" x1="1064.5" x2="1419.5" y1="835.3281" y2="835.3281"/><text fill="#000000" font-family="sans-serif" font-size="13" lengthAdjust="spacing" textLength="53" x="1076.5" y="830.4717">company</text><polygon fill="#181818" points="836.5,861.6797,826.5,865.6797,836.5,869.6797,832.5,865.6797" style="stroke:#181818;stroke-width:1.0;"/><line style="stroke:#181818;stroke-width:1.0;stroke-dasharray:2.0,2.0;" x1="830.5" x2="1053.5" y1="865.6797" y2="865.6797"/><text fill="#000000" font-family="sans-serif" font-size="13" lengthAdjust="spacing" textLength="53" x="842.5" y="860.8232">company</text><polygon fill="#181818" points="56,892.0313,46,896.0313,56,900.0313,52,896.0313" style="stroke:#181818;stroke-width:1.0;"/><line style="stroke:#181818;stroke-width:1.0;" x1="50" x2="819.5" y1="896.0313" y2="896.0313"/><text fill="#000000" font-family="sans-serif" font-size="13" lengthAdjust="spacing" textLength="53" x="62" y="891.1748">response</text><text fill="#888888" font-family="sans-serif" font-size="10" lengthAdjust="spacing" textLength="132" x="1349" y="15.3809">Online Job Fair Registration</text><!--SRC=[nLJ9Rjim4BtpAmXTB26MSpSC7Rm4QD4WGDrRqWDDZcqc5AcIT5BtwyjDZgL8HM_nnUEPzsPvC_GH20ED7wJW4l1NjSDtX6ly7GxSM4qiLn9PRWNWR0q2B622jrmUd6EbweR8CyxNcs-R7viYGwWXsdBAdTlYR2KuI9jXOZ0DPZUyM3oJLxAbcZUsgfxat81-1HtmqUpZjJfPq05BGsqE9i1ZODNw-hoQCoRWZMW8N7Aonq3pHX_hAtCQWSzliNlttOTH9QrMGe0s0_rSHSURKWn4u2OT0pDuasESiLJgnUtWdP4SY15BTiI0Xw-J7HZtIXxKUXaORM1BZr0JXE9ooYgAZczkvXf-pLZOTZwvlOnsE-TiKg08AwkUw9v7ccPsCXtIP8elTe7wdB8AI_3SHYiBrEO52XuNSRBxW2l6z-VSgXUGKtSPL8DDe4LP1bHPpXbG9mH3Y0YB7zqDYvy8kqySpY5Z8OVKO1ebdKPx1q8WdFMuFL4AnaHAlqbVfILB-ErR789TpUA_bUP_8Cy8gxdCYlzDF9PvwA9yfRYbT30jVmXSLjUdvQd9dEsvPClp5_OaSxztTtIaDZFEfjZ_t2bsZjrt-6NLlIAViFr3I7VrWUF7xR7SuEaypgET1rwt-1LhdEPK6nivglOWeJlnu9oT1_OnoRtNVInBot9P1kHAqRvSBMb4hbrwweFoTgl-2ptSqkTjyF9CXtVv_cmHI8R-0W00]--></g></svg>