<?xml version="1.0" encoding="us-ascii" standalone="no"?><svg xmlns="http://www.w3.org/2000/svg" xmlns:xlink="http://www.w3.org/1999/xlink" contentStyleType="text/css" height="775px" preserveAspectRatio="none" style="width:1223px;height:775px;background:#FFFFFF;" version="1.1" viewBox="0 0 1223 775" width="1223px" zoomAndPan="magnify"><defs/><g><text fill="#000000" font-family="sans-serif" font-size="14" font-weight="bold" lengthAdjust="spacing" textLength="226" x="494.5" y="43.1113">"Update a Single Company (PUT)</text><rect fill="#FFFFFF" height="498.4609" style="stroke:#181818;stroke-width:1.0;" width="10" x="222" y="170.7578"/><rect fill="#FFFFFF" height="468.1094" style="stroke:#181818;stroke-width:1.0;" width="10" x="447" y="201.1094"/><rect fill="#FFFFFF" height="116.4063" style="stroke:#181818;stroke-width:1.0;" width="10" x="582" y="231.4609"/><rect fill="#FFFFFF" height="30.3516" style="stroke:#181818;stroke-width:1.0;" width="10" x="582" y="424.4063"/><rect fill="#FFFFFF" height="30.3516" style="stroke:#181818;stroke-width:1.0;" width="10" x="724" y="261.8125"/><rect fill="#FFFFFF" height="168.1094" style="stroke:#181818;stroke-width:1.0;" width="10" x="819.5" y="485.1094"/><rect fill="#FFFFFF" height="91.0547" style="stroke:#181818;stroke-width:1.0;" width="10" x="1017.5" y="531.8125"/><rect fill="#FFFFFF" height="30.3516" style="stroke:#181818;stroke-width:1.0;" width="10" x="1149.5" y="562.1641"/><rect fill="none" height="354.0547" style="stroke:#000000;stroke-width:1.5;" width="1196" x="10" y="307.1641"/><line style="stroke:#181818;stroke-width:0.5;stroke-dasharray:5.0,5.0;" x1="45" x2="45" y1="138.4063" y2="678.2188"/><line style="stroke:#181818;stroke-width:0.5;stroke-dasharray:5.0,5.0;" x1="227" x2="227" y1="138.4063" y2="678.2188"/><line style="stroke:#181818;stroke-width:0.5;stroke-dasharray:5.0,5.0;" x1="452" x2="452" y1="138.4063" y2="678.2188"/><line style="stroke:#181818;stroke-width:0.5;stroke-dasharray:5.0,5.0;" x1="586.5" x2="586.5" y1="138.4063" y2="678.2188"/><line style="stroke:#181818;stroke-width:0.5;stroke-dasharray:5.0,5.0;" x1="728.5" x2="728.5" y1="138.4063" y2="678.2188"/><line style="stroke:#181818;stroke-width:0.5;stroke-dasharray:5.0,5.0;" x1="824.5" x2="824.5" y1="138.4063" y2="678.2188"/><line style="stroke:#181818;stroke-width:0.5;stroke-dasharray:5.0,5.0;" x1="1022.5" x2="1022.5" y1="138.4063" y2="678.2188"/><line style="stroke:#181818;stroke-width:0.5;stroke-dasharray:5.0,5.0;" x1="1154" x2="1154" y1="138.4063" y2="678.2188"/><rect fill="#E2E2F0" height="31.6094" rx="2.5" ry="2.5" style="stroke:#181818;stroke-width:0.5;" width="50" x="20" y="105.7969"/><text fill="#000000" font-family="sans-serif" font-size="14" lengthAdjust="spacing" textLength="36" x="27" y="127.3301">Client</text><rect fill="#E2E2F0" height="31.6094" rx="2.5" ry="2.5" style="stroke:#181818;stroke-width:0.5;" width="50" x="20" y="677.2188"/><text fill="#000000" font-family="sans-serif" font-size="14" lengthAdjust="spacing" textLength="36" x="27" y="698.752">Client</text><rect fill="#E2E2F0" height="49.2188" rx="2.5" ry="2.5" style="stroke:#181818;stroke-width:0.5;" width="92" x="181" y="88.1875"/><text fill="#000000" font-family="sans-serif" font-size="14" lengthAdjust="spacing" textLength="78" x="188" y="109.7207">&#171;javaScript&#187;</text><text fill="#000000" font-family="sans-serif" font-size="14" lengthAdjust="spacing" textLength="44" x="205" y="127.3301">:server</text><rect fill="#E2E2F0" height="49.2188" rx="2.5" ry="2.5" style="stroke:#181818;stroke-width:0.5;" width="92" x="181" y="677.2188"/><text fill="#000000" font-family="sans-serif" font-size="14" lengthAdjust="spacing" textLength="78" x="188" y="698.752">&#171;javaScript&#187;</text><text fill="#000000" font-family="sans-serif" font-size="14" lengthAdjust="spacing" textLength="44" x="205" y="716.3613">:server</text><rect fill="#E2E2F0" height="49.2188" rx="2.5" ry="2.5" style="stroke:#181818;stroke-width:0.5;" width="86" x="409" y="88.1875"/><text fill="#000000" font-family="sans-serif" font-size="14" lengthAdjust="spacing" textLength="54" x="425" y="109.7207">&#171;router&#187;</text><text fill="#000000" font-family="sans-serif" font-size="14" lengthAdjust="spacing" textLength="72" x="416" y="127.3301">:companies</text><rect fill="#E2E2F0" height="49.2188" rx="2.5" ry="2.5" style="stroke:#181818;stroke-width:0.5;" width="86" x="409" y="677.2188"/><text fill="#000000" font-family="sans-serif" font-size="14" lengthAdjust="spacing" textLength="54" x="425" y="698.752">&#171;router&#187;</text><text fill="#000000" font-family="sans-serif" font-size="14" lengthAdjust="spacing" textLength="72" x="416" y="716.3613">:companies</text><rect fill="#E2E2F0" height="49.2188" rx="2.5" ry="2.5" style="stroke:#181818;stroke-width:0.5;" width="101" x="536.5" y="88.1875"/><text fill="#000000" font-family="sans-serif" font-size="14" lengthAdjust="spacing" textLength="87" x="543.5" y="109.7207">&#171;middleware&#187;</text><text fill="#000000" font-family="sans-serif" font-size="14" lengthAdjust="spacing" textLength="32" x="571" y="127.3301">:auth</text><rect fill="#E2E2F0" height="49.2188" rx="2.5" ry="2.5" style="stroke:#181818;stroke-width:0.5;" width="101" x="536.5" y="677.2188"/><text fill="#000000" font-family="sans-serif" font-size="14" lengthAdjust="spacing" textLength="87" x="543.5" y="698.752">&#171;middleware&#187;</text><text fill="#000000" font-family="sans-serif" font-size="14" lengthAdjust="spacing" textLength="32" x="571" y="716.3613">:auth</text><rect fill="#E2E2F0" height="49.2188" rx="2.5" ry="2.5" style="stroke:#181818;stroke-width:0.5;" width="75" x="691.5" y="88.1875"/><text fill="#000000" font-family="sans-serif" font-size="14" lengthAdjust="spacing" textLength="61" x="698.5" y="109.7207">&#171;service&#187;</text><text fill="#000000" font-family="sans-serif" font-size="14" lengthAdjust="spacing" textLength="20" x="719" y="127.3301">:jwt</text><rect fill="#E2E2F0" height="49.2188" rx="2.5" ry="2.5" style="stroke:#181818;stroke-width:0.5;" width="75" x="691.5" y="677.2188"/><text fill="#000000" font-family="sans-serif" font-size="14" lengthAdjust="spacing" textLength="61" x="698.5" y="698.752">&#171;service&#187;</text><text fill="#000000" font-family="sans-serif" font-size="14" lengthAdjust="spacing" textLength="20" x="719" y="716.3613">:jwt</text><rect fill="#E2E2F0" height="49.2188" rx="2.5" ry="2.5" style="stroke:#181818;stroke-width:0.5;" width="96" x="776.5" y="88.1875"/><text fill="#000000" font-family="sans-serif" font-size="14" lengthAdjust="spacing" textLength="82" x="783.5" y="109.7207">&#171;controllers&#187;</text><text fill="#000000" font-family="sans-serif" font-size="14" lengthAdjust="spacing" textLength="72" x="788.5" y="127.3301">:companies</text><rect fill="#E2E2F0" height="49.2188" rx="2.5" ry="2.5" style="stroke:#181818;stroke-width:0.5;" width="96" x="776.5" y="677.2188"/><text fill="#000000" font-family="sans-serif" font-size="14" lengthAdjust="spacing" textLength="82" x="783.5" y="698.752">&#171;controllers&#187;</text><text fill="#000000" font-family="sans-serif" font-size="14" lengthAdjust="spacing" textLength="72" x="788.5" y="716.3613">:companies</text><rect fill="#E2E2F0" height="49.2188" rx="2.5" ry="2.5" style="stroke:#181818;stroke-width:0.5;" width="78" x="983.5" y="88.1875"/><text fill="#000000" font-family="sans-serif" font-size="14" lengthAdjust="spacing" textLength="54" x="995.5" y="109.7207">&#171;model&#187;</text><text fill="#000000" font-family="sans-serif" font-size="14" lengthAdjust="spacing" textLength="64" x="990.5" y="127.3301">:Company</text><rect fill="#E2E2F0" height="49.2188" rx="2.5" ry="2.5" style="stroke:#181818;stroke-width:0.5;" width="78" x="983.5" y="677.2188"/><text fill="#000000" font-family="sans-serif" font-size="14" lengthAdjust="spacing" textLength="54" x="995.5" y="698.752">&#171;model&#187;</text><text fill="#000000" font-family="sans-serif" font-size="14" lengthAdjust="spacing" textLength="64" x="990.5" y="716.3613">:Company</text><text fill="#000000" font-family="sans-serif" font-size="14" lengthAdjust="spacing" textLength="77" x="1113" y="117.7207">&#171;Database&#187;</text><text fill="#000000" font-family="sans-serif" font-size="14" lengthAdjust="spacing" textLength="66" x="1118.5" y="135.3301">:MongoDB</text><path d="M1136.5,67.1875 C1136.5,57.1875 1154.5,57.1875 1154.5,57.1875 C1154.5,57.1875 1172.5,57.1875 1172.5,67.1875 L1172.5,93.1875 C1172.5,103.1875 1154.5,103.1875 1154.5,103.1875 C1154.5,103.1875 1136.5,103.1875 1136.5,93.1875 L1136.5,67.1875 " fill="#E2E2F0" style="stroke:#181818;stroke-width:1.5;"/><path d="M1136.5,67.1875 C1136.5,77.1875 1154.5,77.1875 1154.5,77.1875 C1154.5,77.1875 1172.5,77.1875 1172.5,67.1875 " fill="none" style="stroke:#181818;stroke-width:1.5;"/><text fill="#000000" font-family="sans-serif" font-size="14" lengthAdjust="spacing" textLength="77" x="1113" y="691.752">&#171;Database&#187;</text><text fill="#000000" font-family="sans-serif" font-size="14" lengthAdjust="spacing" textLength="66" x="1118.5" y="709.3613">:MongoDB</text><path d="M1136.5,722.4375 C1136.5,712.4375 1154.5,712.4375 1154.5,712.4375 C1154.5,712.4375 1172.5,712.4375 1172.5,722.4375 L1172.5,748.4375 C1172.5,758.4375 1154.5,758.4375 1154.5,758.4375 C1154.5,758.4375 1136.5,758.4375 1136.5,748.4375 L1136.5,722.4375 " fill="#E2E2F0" style="stroke:#181818;stroke-width:1.5;"/><path d="M1136.5,722.4375 C1136.5,732.4375 1154.5,732.4375 1154.5,732.4375 C1154.5,732.4375 1172.5,732.4375 1172.5,722.4375 " fill="none" style="stroke:#181818;stroke-width:1.5;"/><rect fill="#FFFFFF" height="498.4609" style="stroke:#181818;stroke-width:1.0;" width="10" x="222" y="170.7578"/><rect fill="#FFFFFF" height="468.1094" style="stroke:#181818;stroke-width:1.0;" width="10" x="447" y="201.1094"/><rect fill="#FFFFFF" height="116.4063" style="stroke:#181818;stroke-width:1.0;" width="10" x="582" y="231.4609"/><rect fill="#FFFFFF" height="30.3516" style="stroke:#181818;stroke-width:1.0;" width="10" x="582" y="424.4063"/><rect fill="#FFFFFF" height="30.3516" style="stroke:#181818;stroke-width:1.0;" width="10" x="724" y="261.8125"/><rect fill="#FFFFFF" height="168.1094" style="stroke:#181818;stroke-width:1.0;" width="10" x="819.5" y="485.1094"/><rect fill="#FFFFFF" height="91.0547" style="stroke:#181818;stroke-width:1.0;" width="10" x="1017.5" y="531.8125"/><rect fill="#FFFFFF" height="30.3516" style="stroke:#181818;stroke-width:1.0;" width="10" x="1149.5" y="562.1641"/><polygon fill="#181818" points="210,166.7578,220,170.7578,210,174.7578,214,170.7578" style="stroke:#181818;stroke-width:1.0;"/><line style="stroke:#181818;stroke-width:1.0;" x1="45" x2="216" y1="170.7578" y2="170.7578"/><text fill="#000000" font-family="sans-serif" font-size="13" lengthAdjust="spacing" textLength="158" x="52" y="165.9014">req.update('/companies/:id')</text><polygon fill="#181818" points="435,197.1094,445,201.1094,435,205.1094,439,201.1094" style="stroke:#181818;stroke-width:1.0;"/><line style="stroke:#181818;stroke-width:1.0;" x1="232" x2="441" y1="201.1094" y2="201.1094"/><text fill="#000000" font-family="sans-serif" font-size="13" lengthAdjust="spacing" textLength="196" x="239" y="196.2529">app.use('/companies', companies)</text><polygon fill="#181818" points="570,227.4609,580,231.4609,570,235.4609,574,231.4609" style="stroke:#181818;stroke-width:1.0;"/><line style="stroke:#181818;stroke-width:1.0;" x1="457" x2="576" y1="231.4609" y2="231.4609"/><text fill="#000000" font-family="sans-serif" font-size="13" lengthAdjust="spacing" textLength="48" x="464" y="226.6045">protect()</text><polygon fill="#181818" points="712,257.8125,722,261.8125,712,265.8125,716,261.8125" style="stroke:#181818;stroke-width:1.0;"/><line style="stroke:#181818;stroke-width:1.0;" x1="592" x2="718" y1="261.8125" y2="261.8125"/><text fill="#000000" font-family="sans-serif" font-size="13" lengthAdjust="spacing" textLength="113" x="599" y="256.9561">verify(token, secret)</text><polygon fill="#181818" points="603,288.1641,593,292.1641,603,296.1641,599,292.1641" style="stroke:#181818;stroke-width:1.0;"/><line style="stroke:#181818;stroke-width:1.0;stroke-dasharray:2.0,2.0;" x1="597" x2="728" y1="292.1641" y2="292.1641"/><text fill="#000000" font-family="sans-serif" font-size="13" lengthAdjust="spacing" textLength="49" x="609" y="287.3076">decoded</text><path d="M10,307.1641 L71,307.1641 L71,315.5156 L61,325.5156 L10,325.5156 L10,307.1641 " fill="#EEEEEE" style="stroke:#000000;stroke-width:1.5;"/><rect fill="none" height="354.0547" style="stroke:#000000;stroke-width:1.5;" width="1196" x="10" y="307.1641"/><text fill="#000000" font-family="sans-serif" font-size="13" font-weight="bold" lengthAdjust="spacing" textLength="16" x="25" y="321.6592">alt</text><a href="Fail" target="_top" title="Fail" xlink:actuate="onRequest" xlink:href="Fail" xlink:show="new" xlink:title="Fail" xlink:type="simple"><text fill="#0000FF" font-family="sans-serif" font-size="11" font-weight="bold" lengthAdjust="spacing" text-decoration="underline" textLength="18" x="86" y="320.583">Fail</text></a><polygon fill="#181818" points="56,343.8672,46,347.8672,56,351.8672,52,347.8672" style="stroke:#181818;stroke-width:1.0;"/><line style="stroke:#181818;stroke-width:1.0;" x1="50" x2="586" y1="347.8672" y2="347.8672"/><text fill="#000000" font-family="sans-serif" font-size="13" lengthAdjust="spacing" textLength="73" x="62" y="343.0107">response fail</text><line style="stroke:#000000;stroke-width:1.0;stroke-dasharray:2.0,2.0;" x1="10" x2="1206" y1="356.8672" y2="356.8672"/><a href="Success" target="_top" title="Success" xlink:actuate="onRequest" xlink:href="Success" xlink:show="new" xlink:title="Success" xlink:type="simple"><text fill="#0000FF" font-family="sans-serif" font-size="11" font-weight="bold" lengthAdjust="spacing" text-decoration="underline" textLength="47" x="15" y="368.2861">Success</text></a><polygon fill="#181818" points="468,390.0547,458,394.0547,468,398.0547,464,394.0547" style="stroke:#181818;stroke-width:1.0;"/><line style="stroke:#181818;stroke-width:1.0;stroke-dasharray:2.0,2.0;" x1="462" x2="586" y1="394.0547" y2="394.0547"/><text fill="#000000" font-family="sans-serif" font-size="13" lengthAdjust="spacing" textLength="33" x="474" y="389.1982">next()</text><polygon fill="#181818" points="570,420.4063,580,424.4063,570,428.4063,574,424.4063" style="stroke:#181818;stroke-width:1.0;"/><line style="stroke:#181818;stroke-width:1.0;" x1="457" x2="576" y1="424.4063" y2="424.4063"/><text fill="#000000" font-family="sans-serif" font-size="13" lengthAdjust="spacing" textLength="106" x="464" y="419.5498">authorize("admin")</text><polygon fill="#181818" points="468,450.7578,458,454.7578,468,458.7578,464,454.7578" style="stroke:#181818;stroke-width:1.0;"/><line style="stroke:#181818;stroke-width:1.0;stroke-dasharray:2.0,2.0;" x1="462" x2="586" y1="454.7578" y2="454.7578"/><text fill="#000000" font-family="sans-serif" font-size="13" lengthAdjust="spacing" textLength="33" x="474" y="449.9014">next()</text><polygon fill="#181818" points="807.5,481.1094,817.5,485.1094,807.5,489.1094,811.5,485.1094" style="stroke:#181818;stroke-width:1.0;"/><line style="stroke:#181818;stroke-width:1.0;" x1="457" x2="813.5" y1="485.1094" y2="485.1094"/><text fill="#000000" font-family="sans-serif" font-size="13" lengthAdjust="spacing" textLength="102" x="464" y="480.2529">updateCompany()</text><polygon fill="#181818" points="1005.5,527.8125,1015.5,531.8125,1005.5,535.8125,1009.5,531.8125" style="stroke:#181818;stroke-width:1.0;"/><line style="stroke:#181818;stroke-width:1.0;" x1="829.5" x2="1011.5" y1="531.8125" y2="531.8125"/><text fill="#000000" font-family="sans-serif" font-size="13" lengthAdjust="spacing" textLength="169" x="836.5" y="510.6045">Company.findByIdAndUpdate</text><text fill="#000000" font-family="sans-serif" font-size="13" lengthAdjust="spacing" textLength="145" x="836.5" y="526.9561">(req.params.id, req.body)</text><polygon fill="#181818" points="1137.5,558.1641,1147.5,562.1641,1137.5,566.1641,1141.5,562.1641" style="stroke:#181818;stroke-width:1.0;"/><line style="stroke:#181818;stroke-width:1.0;" x1="1027.5" x2="1143.5" y1="562.1641" y2="562.1641"/><text fill="#000000" font-family="sans-serif" font-size="13" lengthAdjust="spacing" textLength="103" x="1034.5" y="557.3076">CompanySchema</text><polygon fill="#181818" points="1038.5,588.5156,1028.5,592.5156,1038.5,596.5156,1034.5,592.5156" style="stroke:#181818;stroke-width:1.0;"/><line style="stroke:#181818;stroke-width:1.0;stroke-dasharray:2.0,2.0;" x1="1032.5" x2="1153.5" y1="592.5156" y2="592.5156"/><text fill="#000000" font-family="sans-serif" font-size="13" lengthAdjust="spacing" textLength="53" x="1044.5" y="587.6592">company</text><polygon fill="#181818" points="840.5,618.8672,830.5,622.8672,840.5,626.8672,836.5,622.8672" style="stroke:#181818;stroke-width:1.0;"/><line style="stroke:#181818;stroke-width:1.0;stroke-dasharray:2.0,2.0;" x1="834.5" x2="1021.5" y1="622.8672" y2="622.8672"/><text fill="#000000" font-family="sans-serif" font-size="13" lengthAdjust="spacing" textLength="53" x="846.5" y="618.0107">company</text><polygon fill="#181818" points="56,649.2188,46,653.2188,56,657.2188,52,653.2188" style="stroke:#181818;stroke-width:1.0;"/><line style="stroke:#181818;stroke-width:1.0;" x1="50" x2="823.5" y1="653.2188" y2="653.2188"/><text fill="#000000" font-family="sans-serif" font-size="13" lengthAdjust="spacing" textLength="53" x="62" y="648.3623">response</text><text fill="#888888" font-family="sans-serif" font-size="10" lengthAdjust="spacing" textLength="132" x="1083" y="15.3809">Online Job Fair Registration</text><!--SRC=[fLDDRzim3BthLmY-n4RZz1u41jOK0pfWsB2iftO7Hc8IjRBaIN8xxzTF7tPXk-vfleWctnF9H-g2mD7GRqeAXVIBFjBF80pzWMTXdG4dj29EE8aqo-uR3Wufq8DGP-_Pwxe1rT7y-_tF8YEa0UC44zxdQBQN0fNBA5ZAeZaDxtPFy087PaJZgkfHRIsQ5pGHdymvtkZMeObO5XCBj16U0ll1D-VLWdE9hs0mSg5rbqWBnXmRCWkMW4-lgNf_pc5CAsUqb6ZiGZsZwCT5QOuoSdiH8pDwUmVnMiCHB0RuRMz7nbUjplhs9ZA6m85Ti0P2ajHbbIIaLrTRWxytRHnSlhf-A_HwA_Yg80bMLZC90m-QPjFQ2McrfczsGUQSiegI1cvZj4Fcye94Zuzu4KF09nEdBdVw6TNQpvaPT3reLvOHLPPRZimBmGa1wUY3tqVvYr3_fUOyCYNoI8EsqSfhTF8WWj9R3uUMCRGsKUP5XYm3MU6VKE8YRjHCEBKHVp7FWDT2PSN_thoq825J6bC__u6_12whyQO4QczkJaBnc-wEVr8ylTP7bOSDyEi7jTq8lgRXzwXvbzgON5HMqtqADm-llD-mTvpGzupb5UWNfVkmXSYR9X-nPkDUl60qVeAAaty0]--></g></svg>