<?xml version="1.0" encoding="us-ascii" standalone="no"?><svg xmlns="http://www.w3.org/2000/svg" xmlns:xlink="http://www.w3.org/1999/xlink" contentStyleType="text/css" height="741px" preserveAspectRatio="none" style="width:992px;height:741px;background:#FFFFFF;" version="1.1" viewBox="0 0 992 741" width="992px" zoomAndPan="magnify"><defs/><g><text fill="#000000" font-family="sans-serif" font-size="14" font-weight="bold" lengthAdjust="spacing" textLength="93" x="445.75" y="43.1113">Get Me (GET)</text><rect fill="#FFFFFF" height="464.2734" style="stroke:#181818;stroke-width:1.0;" width="10" x="152" y="170.7578"/><rect fill="#FFFFFF" height="433.9219" style="stroke:#181818;stroke-width:1.0;" width="10" x="301" y="201.1094"/><rect fill="#FFFFFF" height="212.4609" style="stroke:#181818;stroke-width:1.0;" width="10" x="395.5" y="231.4609"/><rect fill="#FFFFFF" height="30.3516" style="stroke:#181818;stroke-width:1.0;" width="10" x="537.5" y="261.8125"/><rect fill="#FFFFFF" height="151.7578" style="stroke:#181818;stroke-width:1.0;" width="10" x="633" y="474.2734"/><rect fill="#FFFFFF" height="91.0547" style="stroke:#181818;stroke-width:1.0;" width="10" x="795" y="322.5156"/><rect fill="#FFFFFF" height="91.0547" style="stroke:#181818;stroke-width:1.0;" width="10" x="795" y="504.625"/><rect fill="#FFFFFF" height="30.3516" style="stroke:#181818;stroke-width:1.0;" width="10" x="934" y="352.8672"/><rect fill="#FFFFFF" height="30.3516" style="stroke:#181818;stroke-width:1.0;" width="10" x="934" y="534.9766"/><line style="stroke:#181818;stroke-width:0.5;stroke-dasharray:5.0,5.0;" x1="30" x2="30" y1="138.4063" y2="644.0313"/><line style="stroke:#181818;stroke-width:0.5;stroke-dasharray:5.0,5.0;" x1="157" x2="157" y1="138.4063" y2="644.0313"/><line style="stroke:#181818;stroke-width:0.5;stroke-dasharray:5.0,5.0;" x1="306" x2="306" y1="138.4063" y2="644.0313"/><line style="stroke:#181818;stroke-width:0.5;stroke-dasharray:5.0,5.0;" x1="400" x2="400" y1="138.4063" y2="644.0313"/><line style="stroke:#181818;stroke-width:0.5;stroke-dasharray:5.0,5.0;" x1="542" x2="542" y1="138.4063" y2="644.0313"/><line style="stroke:#181818;stroke-width:0.5;stroke-dasharray:5.0,5.0;" x1="638" x2="638" y1="138.4063" y2="644.0313"/><line style="stroke:#181818;stroke-width:0.5;stroke-dasharray:5.0,5.0;" x1="800" x2="800" y1="138.4063" y2="644.0313"/><line style="stroke:#181818;stroke-width:0.5;stroke-dasharray:5.0,5.0;" x1="938.5" x2="938.5" y1="138.4063" y2="644.0313"/><rect fill="#E2E2F0" height="31.6094" rx="2.5" ry="2.5" style="stroke:#181818;stroke-width:0.5;" width="50" x="5" y="105.7969"/><text fill="#000000" font-family="sans-serif" font-size="14" lengthAdjust="spacing" textLength="36" x="12" y="127.3301">Client</text><rect fill="#E2E2F0" height="31.6094" rx="2.5" ry="2.5" style="stroke:#181818;stroke-width:0.5;" width="50" x="5" y="643.0313"/><text fill="#000000" font-family="sans-serif" font-size="14" lengthAdjust="spacing" textLength="36" x="12" y="664.5645">Client</text><rect fill="#E2E2F0" height="49.2188" rx="2.5" ry="2.5" style="stroke:#181818;stroke-width:0.5;" width="92" x="111" y="88.1875"/><text fill="#000000" font-family="sans-serif" font-size="14" lengthAdjust="spacing" textLength="78" x="118" y="109.7207">&#171;javaScript&#187;</text><text fill="#000000" font-family="sans-serif" font-size="14" lengthAdjust="spacing" textLength="44" x="135" y="127.3301">:server</text><rect fill="#E2E2F0" height="49.2188" rx="2.5" ry="2.5" style="stroke:#181818;stroke-width:0.5;" width="92" x="111" y="643.0313"/><text fill="#000000" font-family="sans-serif" font-size="14" lengthAdjust="spacing" textLength="78" x="118" y="664.5645">&#171;javaScript&#187;</text><text fill="#000000" font-family="sans-serif" font-size="14" lengthAdjust="spacing" textLength="44" x="135" y="682.1738">:server</text><rect fill="#E2E2F0" height="49.2188" rx="2.5" ry="2.5" style="stroke:#181818;stroke-width:0.5;" width="68" x="272" y="88.1875"/><text fill="#000000" font-family="sans-serif" font-size="14" lengthAdjust="spacing" textLength="54" x="279" y="109.7207">&#171;router&#187;</text><text fill="#000000" font-family="sans-serif" font-size="14" lengthAdjust="spacing" textLength="32" x="290" y="127.3301">:auth</text><rect fill="#E2E2F0" height="49.2188" rx="2.5" ry="2.5" style="stroke:#181818;stroke-width:0.5;" width="68" x="272" y="643.0313"/><text fill="#000000" font-family="sans-serif" font-size="14" lengthAdjust="spacing" textLength="54" x="279" y="664.5645">&#171;router&#187;</text><text fill="#000000" font-family="sans-serif" font-size="14" lengthAdjust="spacing" textLength="32" x="290" y="682.1738">:auth</text><rect fill="#E2E2F0" height="49.2188" rx="2.5" ry="2.5" style="stroke:#181818;stroke-width:0.5;" width="101" x="350" y="88.1875"/><text fill="#000000" font-family="sans-serif" font-size="14" lengthAdjust="spacing" textLength="87" x="357" y="109.7207">&#171;middleware&#187;</text><text fill="#000000" font-family="sans-serif" font-size="14" lengthAdjust="spacing" textLength="32" x="384.5" y="127.3301">:auth</text><rect fill="#E2E2F0" height="49.2188" rx="2.5" ry="2.5" style="stroke:#181818;stroke-width:0.5;" width="101" x="350" y="643.0313"/><text fill="#000000" font-family="sans-serif" font-size="14" lengthAdjust="spacing" textLength="87" x="357" y="664.5645">&#171;middleware&#187;</text><text fill="#000000" font-family="sans-serif" font-size="14" lengthAdjust="spacing" textLength="32" x="384.5" y="682.1738">:auth</text><rect fill="#E2E2F0" height="49.2188" rx="2.5" ry="2.5" style="stroke:#181818;stroke-width:0.5;" width="75" x="505" y="88.1875"/><text fill="#000000" font-family="sans-serif" font-size="14" lengthAdjust="spacing" textLength="61" x="512" y="109.7207">&#171;service&#187;</text><text fill="#000000" font-family="sans-serif" font-size="14" lengthAdjust="spacing" textLength="20" x="532.5" y="127.3301">:jwt</text><rect fill="#E2E2F0" height="49.2188" rx="2.5" ry="2.5" style="stroke:#181818;stroke-width:0.5;" width="75" x="505" y="643.0313"/><text fill="#000000" font-family="sans-serif" font-size="14" lengthAdjust="spacing" textLength="61" x="512" y="664.5645">&#171;service&#187;</text><text fill="#000000" font-family="sans-serif" font-size="14" lengthAdjust="spacing" textLength="20" x="532.5" y="682.1738">:jwt</text><rect fill="#E2E2F0" height="49.2188" rx="2.5" ry="2.5" style="stroke:#181818;stroke-width:0.5;" width="96" x="590" y="88.1875"/><text fill="#000000" font-family="sans-serif" font-size="14" lengthAdjust="spacing" textLength="82" x="597" y="109.7207">&#171;controllers&#187;</text><text fill="#000000" font-family="sans-serif" font-size="14" lengthAdjust="spacing" textLength="32" x="622" y="127.3301">:auth</text><rect fill="#E2E2F0" height="49.2188" rx="2.5" ry="2.5" style="stroke:#181818;stroke-width:0.5;" width="96" x="590" y="643.0313"/><text fill="#000000" font-family="sans-serif" font-size="14" lengthAdjust="spacing" textLength="82" x="597" y="664.5645">&#171;controllers&#187;</text><text fill="#000000" font-family="sans-serif" font-size="14" lengthAdjust="spacing" textLength="32" x="622" y="682.1738">:auth</text><rect fill="#E2E2F0" height="49.2188" rx="2.5" ry="2.5" style="stroke:#181818;stroke-width:0.5;" width="68" x="766" y="88.1875"/><text fill="#000000" font-family="sans-serif" font-size="14" lengthAdjust="spacing" textLength="54" x="773" y="109.7207">&#171;model&#187;</text><text fill="#000000" font-family="sans-serif" font-size="14" lengthAdjust="spacing" textLength="33" x="783.5" y="127.3301">:User</text><rect fill="#E2E2F0" height="49.2188" rx="2.5" ry="2.5" style="stroke:#181818;stroke-width:0.5;" width="68" x="766" y="643.0313"/><text fill="#000000" font-family="sans-serif" font-size="14" lengthAdjust="spacing" textLength="54" x="773" y="664.5645">&#171;model&#187;</text><text fill="#000000" font-family="sans-serif" font-size="14" lengthAdjust="spacing" textLength="33" x="783.5" y="682.1738">:User</text><text fill="#000000" font-family="sans-serif" font-size="14" lengthAdjust="spacing" textLength="77" x="897.5" y="117.7207">&#171;Database&#187;</text><text fill="#000000" font-family="sans-serif" font-size="14" lengthAdjust="spacing" textLength="66" x="903" y="135.3301">:MongoDB</text><path d="M921,67.1875 C921,57.1875 939,57.1875 939,57.1875 C939,57.1875 957,57.1875 957,67.1875 L957,93.1875 C957,103.1875 939,103.1875 939,103.1875 C939,103.1875 921,103.1875 921,93.1875 L921,67.1875 " fill="#E2E2F0" style="stroke:#181818;stroke-width:1.5;"/><path d="M921,67.1875 C921,77.1875 939,77.1875 939,77.1875 C939,77.1875 957,77.1875 957,67.1875 " fill="none" style="stroke:#181818;stroke-width:1.5;"/><text fill="#000000" font-family="sans-serif" font-size="14" lengthAdjust="spacing" textLength="77" x="897.5" y="657.5645">&#171;Database&#187;</text><text fill="#000000" font-family="sans-serif" font-size="14" lengthAdjust="spacing" textLength="66" x="903" y="675.1738">:MongoDB</text><path d="M921,688.25 C921,678.25 939,678.25 939,678.25 C939,678.25 957,678.25 957,688.25 L957,714.25 C957,724.25 939,724.25 939,724.25 C939,724.25 921,724.25 921,714.25 L921,688.25 " fill="#E2E2F0" style="stroke:#181818;stroke-width:1.5;"/><path d="M921,688.25 C921,698.25 939,698.25 939,698.25 C939,698.25 957,698.25 957,688.25 " fill="none" style="stroke:#181818;stroke-width:1.5;"/><rect fill="#FFFFFF" height="464.2734" style="stroke:#181818;stroke-width:1.0;" width="10" x="152" y="170.7578"/><rect fill="#FFFFFF" height="433.9219" style="stroke:#181818;stroke-width:1.0;" width="10" x="301" y="201.1094"/><rect fill="#FFFFFF" height="212.4609" style="stroke:#181818;stroke-width:1.0;" width="10" x="395.5" y="231.4609"/><rect fill="#FFFFFF" height="30.3516" style="stroke:#181818;stroke-width:1.0;" width="10" x="537.5" y="261.8125"/><rect fill="#FFFFFF" height="151.7578" style="stroke:#181818;stroke-width:1.0;" width="10" x="633" y="474.2734"/><rect fill="#FFFFFF" height="91.0547" style="stroke:#181818;stroke-width:1.0;" width="10" x="795" y="322.5156"/><rect fill="#FFFFFF" height="91.0547" style="stroke:#181818;stroke-width:1.0;" width="10" x="795" y="504.625"/><rect fill="#FFFFFF" height="30.3516" style="stroke:#181818;stroke-width:1.0;" width="10" x="934" y="352.8672"/><rect fill="#FFFFFF" height="30.3516" style="stroke:#181818;stroke-width:1.0;" width="10" x="934" y="534.9766"/><polygon fill="#181818" points="140,166.7578,150,170.7578,140,174.7578,144,170.7578" style="stroke:#181818;stroke-width:1.0;"/><line style="stroke:#181818;stroke-width:1.0;" x1="30" x2="146" y1="170.7578" y2="170.7578"/><text fill="#000000" font-family="sans-serif" font-size="13" lengthAdjust="spacing" textLength="103" x="37" y="165.9014">req.get('/auth/me')</text><polygon fill="#181818" points="289,197.1094,299,201.1094,289,205.1094,293,201.1094" style="stroke:#181818;stroke-width:1.0;"/><line style="stroke:#181818;stroke-width:1.0;" x1="162" x2="295" y1="201.1094" y2="201.1094"/><text fill="#000000" font-family="sans-serif" font-size="13" lengthAdjust="spacing" textLength="120" x="169" y="196.2529">app.use('/auth', auth)</text><polygon fill="#181818" points="383.5,227.4609,393.5,231.4609,383.5,235.4609,387.5,231.4609" style="stroke:#181818;stroke-width:1.0;"/><line style="stroke:#181818;stroke-width:1.0;" x1="311" x2="389.5" y1="231.4609" y2="231.4609"/><text fill="#000000" font-family="sans-serif" font-size="13" lengthAdjust="spacing" textLength="48" x="318" y="226.6045">protect()</text><polygon fill="#181818" points="525.5,257.8125,535.5,261.8125,525.5,265.8125,529.5,261.8125" style="stroke:#181818;stroke-width:1.0;"/><line style="stroke:#181818;stroke-width:1.0;" x1="405.5" x2="531.5" y1="261.8125" y2="261.8125"/><text fill="#000000" font-family="sans-serif" font-size="13" lengthAdjust="spacing" textLength="113" x="412.5" y="256.9561">verify(token, secret)</text><polygon fill="#181818" points="416.5,288.1641,406.5,292.1641,416.5,296.1641,412.5,292.1641" style="stroke:#181818;stroke-width:1.0;"/><line style="stroke:#181818;stroke-width:1.0;" x1="410.5" x2="541.5" y1="292.1641" y2="292.1641"/><text fill="#000000" font-family="sans-serif" font-size="13" lengthAdjust="spacing" textLength="49" x="422.5" y="287.3076">decoded</text><polygon fill="#181818" points="783,318.5156,793,322.5156,783,326.5156,787,322.5156" style="stroke:#181818;stroke-width:1.0;"/><line style="stroke:#181818;stroke-width:1.0;" x1="405.5" x2="789" y1="322.5156" y2="322.5156"/><text fill="#000000" font-family="sans-serif" font-size="13" lengthAdjust="spacing" textLength="117" x="412.5" y="317.6592">findById(decoded.id)</text><polygon fill="#181818" points="922,348.8672,932,352.8672,922,356.8672,926,352.8672" style="stroke:#181818;stroke-width:1.0;"/><line style="stroke:#181818;stroke-width:1.0;" x1="805" x2="928" y1="352.8672" y2="352.8672"/><text fill="#000000" font-family="sans-serif" font-size="13" lengthAdjust="spacing" textLength="110" x="812" y="348.0107">findById(decode.id)</text><polygon fill="#181818" points="816,379.2188,806,383.2188,816,387.2188,812,383.2188" style="stroke:#181818;stroke-width:1.0;"/><line style="stroke:#181818;stroke-width:1.0;" x1="810" x2="938" y1="383.2188" y2="383.2188"/><text fill="#000000" font-family="sans-serif" font-size="13" lengthAdjust="spacing" textLength="25" x="822" y="378.3623">user</text><polygon fill="#181818" points="416.5,409.5703,406.5,413.5703,416.5,417.5703,412.5,413.5703" style="stroke:#181818;stroke-width:1.0;"/><line style="stroke:#181818;stroke-width:1.0;" x1="410.5" x2="799" y1="413.5703" y2="413.5703"/><text fill="#000000" font-family="sans-serif" font-size="13" lengthAdjust="spacing" textLength="47" x="422.5" y="408.7139">req.user</text><polygon fill="#181818" points="322,439.9219,312,443.9219,322,447.9219,318,443.9219" style="stroke:#181818;stroke-width:1.0;"/><line style="stroke:#181818;stroke-width:1.0;" x1="316" x2="399.5" y1="443.9219" y2="443.9219"/><text fill="#000000" font-family="sans-serif" font-size="13" lengthAdjust="spacing" textLength="33" x="328" y="439.0654">next()</text><polygon fill="#181818" points="621,470.2734,631,474.2734,621,478.2734,625,474.2734" style="stroke:#181818;stroke-width:1.0;"/><line style="stroke:#181818;stroke-width:1.0;" x1="311" x2="627" y1="474.2734" y2="474.2734"/><text fill="#000000" font-family="sans-serif" font-size="13" lengthAdjust="spacing" textLength="44" x="318" y="469.417">getMe()</text><polygon fill="#181818" points="783,500.625,793,504.625,783,508.625,787,504.625" style="stroke:#181818;stroke-width:1.0;"/><line style="stroke:#181818;stroke-width:1.0;" x1="643" x2="789" y1="504.625" y2="504.625"/><text fill="#000000" font-family="sans-serif" font-size="13" lengthAdjust="spacing" textLength="133" x="650" y="499.7686">findById(req.params.id)</text><polygon fill="#181818" points="922,530.9766,932,534.9766,922,538.9766,926,534.9766" style="stroke:#181818;stroke-width:1.0;"/><line style="stroke:#181818;stroke-width:1.0;" x1="805" x2="928" y1="534.9766" y2="534.9766"/><text fill="#000000" font-family="sans-serif" font-size="13" lengthAdjust="spacing" textLength="110" x="812" y="530.1201">findById(decode.id)</text><polygon fill="#181818" points="816,561.3281,806,565.3281,816,569.3281,812,565.3281" style="stroke:#181818;stroke-width:1.0;"/><line style="stroke:#181818;stroke-width:1.0;stroke-dasharray:2.0,2.0;" x1="810" x2="938" y1="565.3281" y2="565.3281"/><text fill="#000000" font-family="sans-serif" font-size="13" lengthAdjust="spacing" textLength="25" x="822" y="560.4717">user</text><polygon fill="#181818" points="654,591.6797,644,595.6797,654,599.6797,650,595.6797" style="stroke:#181818;stroke-width:1.0;"/><line style="stroke:#181818;stroke-width:1.0;stroke-dasharray:2.0,2.0;" x1="648" x2="799" y1="595.6797" y2="595.6797"/><text fill="#000000" font-family="sans-serif" font-size="13" lengthAdjust="spacing" textLength="47" x="660" y="590.8232">req.user</text><polygon fill="#181818" points="41,622.0313,31,626.0313,41,630.0313,37,626.0313" style="stroke:#181818;stroke-width:1.0;"/><line style="stroke:#181818;stroke-width:1.0;" x1="35" x2="637" y1="626.0313" y2="626.0313"/><text fill="#000000" font-family="sans-serif" font-size="13" lengthAdjust="spacing" textLength="53" x="47" y="621.1748">response</text><text fill="#888888" font-family="sans-serif" font-size="10" lengthAdjust="spacing" textLength="132" x="852.5" y="15.3809">Online Job Fair Registration</text><!--SRC=[ZPBBJiCm44Nt_WghcoO2btrLHG8A5KWL4eyTcsayRLrIEzXJIlyUFm9DGf5OnV6S6TzxxJM2HCiVTAKqydkpuBUWB7_4bN9aWPJHZ1HLo0Sp93v7dirkdlC1OpLOKgMgGHCVN5SADGquE5x6PRSycMpW0vvAgsegYbSzTcW_q4O-BVkyDJj26rdOqJgIQU_I__RfhPAomZrOx7R02JQSfye4RlP9i__siT9eigQgqBhkp5RXf1GZiOeTBwvn6BV27vD0i0270PmswyZEZLwPwLN40-c-guobF4MHSk9dPsEBxwCLKZQy2A8kjZZCMQgAufXH8A6kHpk73JayZu7ah0M98ku5kBQ6iAGiPz1KV2oXu0UhvI4ZyuRwtDzNQP4QQ28Y9CHOOkbjof_U7zDXmb9fUNMuarb3ZPJCsP7mUCVqYPPUXp-ts-4Lx4B2twfQmqKCB5PRnZsJf8gnni_WkfjAxvg399_v73tOAudYjDTmgdySi7M_xFxBRTzWqJKL3VLLJiHVrd-9JkygCQussh-rBm00]--></g></svg>