<?xml version="1.0" encoding="us-ascii" standalone="no"?><svg xmlns="http://www.w3.org/2000/svg" xmlns:xlink="http://www.w3.org/1999/xlink" contentStyleType="text/css" height="916px" preserveAspectRatio="none" style="width:1018px;height:916px;background:#FFFFFF;" version="1.1" viewBox="0 0 1018 916" width="1018px" zoomAndPan="magnify"><defs/><g><text fill="#000000" font-family="sans-serif" font-size="14" font-weight="bold" lengthAdjust="spacing" textLength="90" x="460.25" y="43.1113">Login (POST)</text><rect fill="#FFFFFF" height="639.1875" style="stroke:#181818;stroke-width:1.0;" width="10" x="203" y="170.7578"/><rect fill="#FFFFFF" height="608.8359" style="stroke:#181818;stroke-width:1.0;" width="10" x="348" y="201.1094"/><rect fill="#FFFFFF" height="55.7031" style="stroke:#181818;stroke-width:1.0;" width="10" x="440" y="231.4609"/><rect fill="#FFFFFF" height="116.4063" style="stroke:#181818;stroke-width:1.0;" width="10" x="620" y="333.3516"/><rect fill="#FFFFFF" height="116.4063" style="stroke:#181818;stroke-width:1.0;" width="10" x="620" y="556.6484"/><rect fill="#FFFFFF" height="30.3516" style="stroke:#181818;stroke-width:1.0;" width="10" x="935" y="363.7031"/><rect fill="#FFFFFF" height="30.3516" style="stroke:#181818;stroke-width:1.0;" width="10" x="935" y="587"/><rect fill="none" height="555.4844" style="stroke:#000000;stroke-width:1.5;" width="991.5" x="10" y="246.4609"/><rect fill="none" height="385.8906" style="stroke:#000000;stroke-width:1.5;" width="971.5" x="20" y="409.0547"/><rect fill="none" height="155.5938" style="stroke:#000000;stroke-width:1.5;" width="639" x="30" y="632.3516"/><line style="stroke:#181818;stroke-width:0.5;stroke-dasharray:5.0,5.0;" x1="65" x2="65" y1="138.4063" y2="818.9453"/><line style="stroke:#181818;stroke-width:0.5;stroke-dasharray:5.0,5.0;" x1="208" x2="208" y1="138.4063" y2="818.9453"/><line style="stroke:#181818;stroke-width:0.5;stroke-dasharray:5.0,5.0;" x1="353" x2="353" y1="138.4063" y2="818.9453"/><line style="stroke:#181818;stroke-width:0.5;stroke-dasharray:5.0,5.0;" x1="445" x2="445" y1="138.4063" y2="818.9453"/><line style="stroke:#181818;stroke-width:0.5;stroke-dasharray:5.0,5.0;" x1="625" x2="625" y1="138.4063" y2="818.9453"/><line style="stroke:#181818;stroke-width:0.5;stroke-dasharray:5.0,5.0;" x1="939.5" x2="939.5" y1="138.4063" y2="818.9453"/><rect fill="#E2E2F0" height="31.6094" rx="2.5" ry="2.5" style="stroke:#181818;stroke-width:0.5;" width="50" x="40" y="105.7969"/><text fill="#000000" font-family="sans-serif" font-size="14" lengthAdjust="spacing" textLength="36" x="47" y="127.3301">Client</text><rect fill="#E2E2F0" height="31.6094" rx="2.5" ry="2.5" style="stroke:#181818;stroke-width:0.5;" width="50" x="40" y="817.9453"/><text fill="#000000" font-family="sans-serif" font-size="14" lengthAdjust="spacing" textLength="36" x="47" y="839.4785">Client</text><rect fill="#E2E2F0" height="49.2188" rx="2.5" ry="2.5" style="stroke:#181818;stroke-width:0.5;" width="92" x="162" y="88.1875"/><text fill="#000000" font-family="sans-serif" font-size="14" lengthAdjust="spacing" textLength="78" x="169" y="109.7207">&#171;javaScript&#187;</text><text fill="#000000" font-family="sans-serif" font-size="14" lengthAdjust="spacing" textLength="44" x="186" y="127.3301">:server</text><rect fill="#E2E2F0" height="49.2188" rx="2.5" ry="2.5" style="stroke:#181818;stroke-width:0.5;" width="92" x="162" y="817.9453"/><text fill="#000000" font-family="sans-serif" font-size="14" lengthAdjust="spacing" textLength="78" x="169" y="839.4785">&#171;javaScript&#187;</text><text fill="#000000" font-family="sans-serif" font-size="14" lengthAdjust="spacing" textLength="44" x="186" y="857.0879">:server</text><rect fill="#E2E2F0" height="49.2188" rx="2.5" ry="2.5" style="stroke:#181818;stroke-width:0.5;" width="68" x="319" y="88.1875"/><text fill="#000000" font-family="sans-serif" font-size="14" lengthAdjust="spacing" textLength="54" x="326" y="109.7207">&#171;router&#187;</text><text fill="#000000" font-family="sans-serif" font-size="14" lengthAdjust="spacing" textLength="32" x="337" y="127.3301">:auth</text><rect fill="#E2E2F0" height="49.2188" rx="2.5" ry="2.5" style="stroke:#181818;stroke-width:0.5;" width="68" x="319" y="817.9453"/><text fill="#000000" font-family="sans-serif" font-size="14" lengthAdjust="spacing" textLength="54" x="326" y="839.4785">&#171;router&#187;</text><text fill="#000000" font-family="sans-serif" font-size="14" lengthAdjust="spacing" textLength="32" x="337" y="857.0879">:auth</text><rect fill="#E2E2F0" height="49.2188" rx="2.5" ry="2.5" style="stroke:#181818;stroke-width:0.5;" width="96" x="397" y="88.1875"/><text fill="#000000" font-family="sans-serif" font-size="14" lengthAdjust="spacing" textLength="82" x="404" y="109.7207">&#171;controllers&#187;</text><text fill="#000000" font-family="sans-serif" font-size="14" lengthAdjust="spacing" textLength="32" x="429" y="127.3301">:auth</text><rect fill="#E2E2F0" height="49.2188" rx="2.5" ry="2.5" style="stroke:#181818;stroke-width:0.5;" width="96" x="397" y="817.9453"/><text fill="#000000" font-family="sans-serif" font-size="14" lengthAdjust="spacing" textLength="82" x="404" y="839.4785">&#171;controllers&#187;</text><text fill="#000000" font-family="sans-serif" font-size="14" lengthAdjust="spacing" textLength="32" x="429" y="857.0879">:auth</text><rect fill="#E2E2F0" height="49.2188" rx="2.5" ry="2.5" style="stroke:#181818;stroke-width:0.5;" width="68" x="591" y="88.1875"/><text fill="#000000" font-family="sans-serif" font-size="14" lengthAdjust="spacing" textLength="54" x="598" y="109.7207">&#171;model&#187;</text><text fill="#000000" font-family="sans-serif" font-size="14" lengthAdjust="spacing" textLength="33" x="608.5" y="127.3301">:User</text><rect fill="#E2E2F0" height="49.2188" rx="2.5" ry="2.5" style="stroke:#181818;stroke-width:0.5;" width="68" x="591" y="817.9453"/><text fill="#000000" font-family="sans-serif" font-size="14" lengthAdjust="spacing" textLength="54" x="598" y="839.4785">&#171;model&#187;</text><text fill="#000000" font-family="sans-serif" font-size="14" lengthAdjust="spacing" textLength="33" x="608.5" y="857.0879">:User</text><text fill="#000000" font-family="sans-serif" font-size="14" lengthAdjust="spacing" textLength="77" x="898.5" y="117.7207">&#171;Database&#187;</text><text fill="#000000" font-family="sans-serif" font-size="14" lengthAdjust="spacing" textLength="66" x="904" y="135.3301">:MongoDB</text><path d="M922,67.1875 C922,57.1875 940,57.1875 940,57.1875 C940,57.1875 958,57.1875 958,67.1875 L958,93.1875 C958,103.1875 940,103.1875 940,103.1875 C940,103.1875 922,103.1875 922,93.1875 L922,67.1875 " fill="#E2E2F0" style="stroke:#181818;stroke-width:1.5;"/><path d="M922,67.1875 C922,77.1875 940,77.1875 940,77.1875 C940,77.1875 958,77.1875 958,67.1875 " fill="none" style="stroke:#181818;stroke-width:1.5;"/><text fill="#000000" font-family="sans-serif" font-size="14" lengthAdjust="spacing" textLength="77" x="898.5" y="832.4785">&#171;Database&#187;</text><text fill="#000000" font-family="sans-serif" font-size="14" lengthAdjust="spacing" textLength="66" x="904" y="850.0879">:MongoDB</text><path d="M922,863.1641 C922,853.1641 940,853.1641 940,853.1641 C940,853.1641 958,853.1641 958,863.1641 L958,889.1641 C958,899.1641 940,899.1641 940,899.1641 C940,899.1641 922,899.1641 922,889.1641 L922,863.1641 " fill="#E2E2F0" style="stroke:#181818;stroke-width:1.5;"/><path d="M922,863.1641 C922,873.1641 940,873.1641 940,873.1641 C940,873.1641 958,873.1641 958,863.1641 " fill="none" style="stroke:#181818;stroke-width:1.5;"/><rect fill="#FFFFFF" height="639.1875" style="stroke:#181818;stroke-width:1.0;" width="10" x="203" y="170.7578"/><rect fill="#FFFFFF" height="608.8359" style="stroke:#181818;stroke-width:1.0;" width="10" x="348" y="201.1094"/><rect fill="#FFFFFF" height="55.7031" style="stroke:#181818;stroke-width:1.0;" width="10" x="440" y="231.4609"/><rect fill="#FFFFFF" height="116.4063" style="stroke:#181818;stroke-width:1.0;" width="10" x="620" y="333.3516"/><rect fill="#FFFFFF" height="116.4063" style="stroke:#181818;stroke-width:1.0;" width="10" x="620" y="556.6484"/><rect fill="#FFFFFF" height="30.3516" style="stroke:#181818;stroke-width:1.0;" width="10" x="935" y="363.7031"/><rect fill="#FFFFFF" height="30.3516" style="stroke:#181818;stroke-width:1.0;" width="10" x="935" y="587"/><polygon fill="#181818" points="191,166.7578,201,170.7578,191,174.7578,195,170.7578" style="stroke:#181818;stroke-width:1.0;"/><line style="stroke:#181818;stroke-width:1.0;" x1="65" x2="197" y1="170.7578" y2="170.7578"/><text fill="#000000" font-family="sans-serif" font-size="13" lengthAdjust="spacing" textLength="119" x="72" y="165.9014">req.post('/auth/login')</text><polygon fill="#181818" points="336,197.1094,346,201.1094,336,205.1094,340,201.1094" style="stroke:#181818;stroke-width:1.0;"/><line style="stroke:#181818;stroke-width:1.0;" x1="213" x2="342" y1="201.1094" y2="201.1094"/><text fill="#000000" font-family="sans-serif" font-size="13" lengthAdjust="spacing" textLength="116" x="220" y="196.2529">app.use('/auth',auth)</text><polygon fill="#181818" points="428,227.4609,438,231.4609,428,235.4609,432,231.4609" style="stroke:#181818;stroke-width:1.0;"/><line style="stroke:#181818;stroke-width:1.0;" x1="358" x2="434" y1="231.4609" y2="231.4609"/><text fill="#000000" font-family="sans-serif" font-size="13" lengthAdjust="spacing" textLength="35" x="365" y="226.6045">login()</text><path d="M10,246.4609 L71,246.4609 L71,254.8125 L61,264.8125 L10,264.8125 L10,246.4609 " fill="#EEEEEE" style="stroke:#000000;stroke-width:1.5;"/><rect fill="none" height="555.4844" style="stroke:#000000;stroke-width:1.5;" width="991.5" x="10" y="246.4609"/><text fill="#000000" font-family="sans-serif" font-size="13" font-weight="bold" lengthAdjust="spacing" textLength="16" x="25" y="260.9561">alt</text><text fill="#000000" font-family="sans-serif" font-size="11" font-weight="bold" lengthAdjust="spacing" textLength="159" x="86" y="259.8799">[Missing email or password]</text><polygon fill="#181818" points="76,283.1641,66,287.1641,76,291.1641,72,287.1641" style="stroke:#181818;stroke-width:1.0;"/><line style="stroke:#181818;stroke-width:1.0;" x1="70" x2="444" y1="287.1641" y2="287.1641"/><text fill="#000000" font-family="sans-serif" font-size="13" lengthAdjust="spacing" textLength="167" x="82" y="282.3076">Email and password required</text><line style="stroke:#000000;stroke-width:1.0;stroke-dasharray:2.0,2.0;" x1="10" x2="1001.5" y1="296.1641" y2="296.1641"/><text fill="#000000" font-family="sans-serif" font-size="11" font-weight="bold" lengthAdjust="spacing" textLength="89" x="15" y="307.583">[Email provided]</text><polygon fill="#181818" points="608,329.3516,618,333.3516,608,337.3516,612,333.3516" style="stroke:#181818;stroke-width:1.0;"/><line style="stroke:#181818;stroke-width:1.0;" x1="445" x2="614" y1="333.3516" y2="333.3516"/><text fill="#000000" font-family="sans-serif" font-size="13" lengthAdjust="spacing" textLength="83" x="452" y="328.4951">findOne(email)</text><polygon fill="#181818" points="923,359.7031,933,363.7031,923,367.7031,927,363.7031" style="stroke:#181818;stroke-width:1.0;"/><line style="stroke:#181818;stroke-width:1.0;" x1="630" x2="929" y1="363.7031" y2="363.7031"/><text fill="#000000" font-family="sans-serif" font-size="13" lengthAdjust="spacing" textLength="83" x="637" y="358.8467">findOne(email)</text><polygon fill="#181818" points="641,390.0547,631,394.0547,641,398.0547,637,394.0547" style="stroke:#181818;stroke-width:1.0;"/><line style="stroke:#181818;stroke-width:1.0;" x1="635" x2="939" y1="394.0547" y2="394.0547"/><text fill="#000000" font-family="sans-serif" font-size="13" lengthAdjust="spacing" textLength="25" x="647" y="389.1982">user</text><path d="M20,409.0547 L81,409.0547 L81,417.4063 L71,427.4063 L20,427.4063 L20,409.0547 " fill="#EEEEEE" style="stroke:#000000;stroke-width:1.5;"/><rect fill="none" height="385.8906" style="stroke:#000000;stroke-width:1.5;" width="971.5" x="20" y="409.0547"/><text fill="#000000" font-family="sans-serif" font-size="13" font-weight="bold" lengthAdjust="spacing" textLength="16" x="35" y="423.5498">alt</text><text fill="#000000" font-family="sans-serif" font-size="11" font-weight="bold" lengthAdjust="spacing" textLength="90" x="96" y="422.4736">[User not found]</text><polygon fill="#181818" points="456,445.7578,446,449.7578,456,453.7578,452,449.7578" style="stroke:#181818;stroke-width:1.0;"/><line style="stroke:#181818;stroke-width:1.0;" x1="450" x2="624" y1="449.7578" y2="449.7578"/><text fill="#000000" font-family="sans-serif" font-size="13" lengthAdjust="spacing" textLength="20" x="462" y="444.9014">null</text><polygon fill="#181818" points="76,476.1094,66,480.1094,76,484.1094,72,480.1094" style="stroke:#181818;stroke-width:1.0;"/><line style="stroke:#181818;stroke-width:1.0;" x1="70" x2="444" y1="480.1094" y2="480.1094"/><text fill="#000000" font-family="sans-serif" font-size="13" lengthAdjust="spacing" textLength="70" x="82" y="475.2529">Invalid email</text><line style="stroke:#000000;stroke-width:1.0;stroke-dasharray:2.0,2.0;" x1="20" x2="991.5" y1="489.1094" y2="489.1094"/><text fill="#000000" font-family="sans-serif" font-size="11" font-weight="bold" lengthAdjust="spacing" textLength="69" x="25" y="500.5283">[User found]</text><polygon fill="#181818" points="456,522.2969,446,526.2969,456,530.2969,452,526.2969" style="stroke:#181818;stroke-width:1.0;"/><line style="stroke:#181818;stroke-width:1.0;" x1="450" x2="624" y1="526.2969" y2="526.2969"/><text fill="#000000" font-family="sans-serif" font-size="13" lengthAdjust="spacing" textLength="25" x="462" y="521.4404">user</text><polygon fill="#181818" points="608,552.6484,618,556.6484,608,560.6484,612,556.6484" style="stroke:#181818;stroke-width:1.0;"/><line style="stroke:#181818;stroke-width:1.0;" x1="445" x2="614" y1="556.6484" y2="556.6484"/><text fill="#000000" font-family="sans-serif" font-size="13" lengthAdjust="spacing" textLength="156" x="452" y="551.792">matchPassword(password)</text><polygon fill="#181818" points="923,583,933,587,923,591,927,587" style="stroke:#181818;stroke-width:1.0;"/><line style="stroke:#181818;stroke-width:1.0;" x1="630" x2="929" y1="587" y2="587"/><text fill="#000000" font-family="sans-serif" font-size="13" lengthAdjust="spacing" textLength="286" x="637" y="582.1436">bcrypt.compare(enteredPassword, this.password)</text><polygon fill="#181818" points="641,613.3516,631,617.3516,641,621.3516,637,617.3516" style="stroke:#181818;stroke-width:1.0;"/><line style="stroke:#181818;stroke-width:1.0;" x1="635" x2="939" y1="617.3516" y2="617.3516"/><text fill="#000000" font-family="sans-serif" font-size="13" lengthAdjust="spacing" textLength="46" x="647" y="612.4951">isMatch</text><path d="M30,632.3516 L91,632.3516 L91,640.7031 L81,650.7031 L30,650.7031 L30,632.3516 " fill="#EEEEEE" style="stroke:#000000;stroke-width:1.5;"/><rect fill="none" height="155.5938" style="stroke:#000000;stroke-width:1.5;" width="639" x="30" y="632.3516"/><text fill="#000000" font-family="sans-serif" font-size="13" font-weight="bold" lengthAdjust="spacing" textLength="16" x="45" y="646.8467">alt</text><text fill="#000000" font-family="sans-serif" font-size="11" font-weight="bold" lengthAdjust="spacing" textLength="153" x="106" y="645.7705">[Password does not match]</text><polygon fill="#181818" points="456,669.0547,446,673.0547,456,677.0547,452,673.0547" style="stroke:#181818;stroke-width:1.0;"/><line style="stroke:#181818;stroke-width:1.0;" x1="450" x2="624" y1="673.0547" y2="673.0547"/><text fill="#000000" font-family="sans-serif" font-size="13" lengthAdjust="spacing" textLength="27" x="462" y="668.1982">false</text><polygon fill="#181818" points="76,699.4063,66,703.4063,76,707.4063,72,703.4063" style="stroke:#181818;stroke-width:1.0;"/><line style="stroke:#181818;stroke-width:1.0;" x1="70" x2="444" y1="703.4063" y2="703.4063"/><text fill="#000000" font-family="sans-serif" font-size="13" lengthAdjust="spacing" textLength="87" x="82" y="698.5498">Invalid assword</text><line style="stroke:#000000;stroke-width:1.0;stroke-dasharray:2.0,2.0;" x1="30" x2="669" y1="712.4063" y2="712.4063"/><text fill="#000000" font-family="sans-serif" font-size="11" font-weight="bold" lengthAdjust="spacing" textLength="115" x="35" y="723.8252">[Password matches]</text><polygon fill="#181818" points="456,745.5938,446,749.5938,456,753.5938,452,749.5938" style="stroke:#181818;stroke-width:1.0;"/><line style="stroke:#181818;stroke-width:1.0;" x1="450" x2="624" y1="749.5938" y2="749.5938"/><text fill="#000000" font-family="sans-serif" font-size="13" lengthAdjust="spacing" textLength="22" x="462" y="744.7373">true</text><polygon fill="#181818" points="76,775.9453,66,779.9453,76,783.9453,72,779.9453" style="stroke:#181818;stroke-width:1.0;"/><line style="stroke:#181818;stroke-width:1.0;" x1="70" x2="444" y1="779.9453" y2="779.9453"/><text fill="#000000" font-family="sans-serif" font-size="13" lengthAdjust="spacing" textLength="97" x="82" y="775.0889">Login successful</text><text fill="#888888" font-family="sans-serif" font-size="10" lengthAdjust="spacing" textLength="132" x="878.5" y="15.3809">Online Job Fair Registration</text><!--SRC=[bPH1Zzem48Nl_XKM5nBjXhqZ5AdRxKgjYbXrsrilGpo0LyPEFGvL_ttjIGWaOcb10fpuUvCtRmmx18LUhgpH5kKNjvRFeBtyXbjDmKFGpegWWq4v-UgssihiPVNwFPy8KOCFkj8rs20d7ur66oOII5Qy76ul5czmWDVAwpgKvKyx9_G7zCotop7lNHFGCmjDs37PtliGByTqvMpmpXZqD9ISRLpIxPr2mueVrDdXM-bAA0Ym1i84FdLhPfVERjtJ8-E9fEEk46tpHTas9U_kvXv_pMf78Pi-95SF9gKupKLB5EMfgKH3NSyQmWwUtgVFN9mnHJdkAScuQ9OB0IR8fIRITYjn3zf8vsKDHB-TLqB6rrYT2h9fMHJpJom1gtgDZFuRxL49D36A5gYzEsY5xnRiCqpUDjggbSMCxUGiEUr7U93WFmMBOYI8hfiqBUPI-unP5-J6DRQrUCbcB7HcevZRnfXtuK58d-q1Z5PjlYpXQBZGRSzaurUUESXn3w7QlNHZoOxpoNlzzL3NbVzJXrdbzl4d4BEryK2XEfQxbs6dQNQjwANWDIsJAT7ZAVzZJQaS4W-2dVVC_mIpWPZeLSN5YPoVytuklH-sWNIJaU2R6toq_v3KL1KIRPhJUSBkKAJlzFuB]--></g></svg>