<?xml version="1.0" encoding="us-ascii" standalone="no"?><svg xmlns="http://www.w3.org/2000/svg" xmlns:xlink="http://www.w3.org/1999/xlink" contentStyleType="text/css" height="740px" preserveAspectRatio="none" style="width:978px;height:740px;background:#FFFFFF;" version="1.1" viewBox="0 0 978 740" width="978px" zoomAndPan="magnify"><defs/><g><text fill="#000000" font-family="sans-serif" font-size="14" font-weight="bold" lengthAdjust="spacing" textLength="111" x="429.75" y="43.1113">Register (POST)</text><rect fill="#FFFFFF" height="463.7578" style="stroke:#181818;stroke-width:1.0;" width="10" x="199" y="170.7578"/><rect fill="#FFFFFF" height="433.4063" style="stroke:#181818;stroke-width:1.0;" width="10" x="344" y="201.1094"/><rect fill="#FFFFFF" height="177.1094" style="stroke:#181818;stroke-width:1.0;" width="10" x="436" y="231.4609"/><rect fill="#FFFFFF" height="155.7578" style="stroke:#181818;stroke-width:1.0;" width="10" x="436" y="462.7578"/><rect fill="#FFFFFF" height="91.0547" style="stroke:#181818;stroke-width:1.0;" width="10" x="678" y="261.8125"/><rect fill="#FFFFFF" height="73.7031" style="stroke:#181818;stroke-width:1.0;" width="10" x="678" y="514.4609"/><rect fill="#FFFFFF" height="30.3516" style="stroke:#181818;stroke-width:1.0;" width="10" x="920" y="292.1641"/><rect fill="none" height="258.6484" style="stroke:#000000;stroke-width:1.5;" width="788" x="10" y="367.8672"/><line style="stroke:#181818;stroke-width:0.5;stroke-dasharray:5.0,5.0;" x1="45" x2="45" y1="138.4063" y2="643.5156"/><line style="stroke:#181818;stroke-width:0.5;stroke-dasharray:5.0,5.0;" x1="204" x2="204" y1="138.4063" y2="643.5156"/><line style="stroke:#181818;stroke-width:0.5;stroke-dasharray:5.0,5.0;" x1="349" x2="349" y1="138.4063" y2="643.5156"/><line style="stroke:#181818;stroke-width:0.5;stroke-dasharray:5.0,5.0;" x1="441" x2="441" y1="138.4063" y2="643.5156"/><line style="stroke:#181818;stroke-width:0.5;stroke-dasharray:5.0,5.0;" x1="683" x2="683" y1="138.4063" y2="643.5156"/><line style="stroke:#181818;stroke-width:0.5;stroke-dasharray:5.0,5.0;" x1="924.5" x2="924.5" y1="138.4063" y2="643.5156"/><rect fill="#E2E2F0" height="31.6094" rx="2.5" ry="2.5" style="stroke:#181818;stroke-width:0.5;" width="50" x="20" y="105.7969"/><text fill="#000000" font-family="sans-serif" font-size="14" lengthAdjust="spacing" textLength="36" x="27" y="127.3301">Client</text><rect fill="#E2E2F0" height="31.6094" rx="2.5" ry="2.5" style="stroke:#181818;stroke-width:0.5;" width="50" x="20" y="642.5156"/><text fill="#000000" font-family="sans-serif" font-size="14" lengthAdjust="spacing" textLength="36" x="27" y="664.0488">Client</text><rect fill="#E2E2F0" height="49.2188" rx="2.5" ry="2.5" style="stroke:#181818;stroke-width:0.5;" width="92" x="158" y="88.1875"/><text fill="#000000" font-family="sans-serif" font-size="14" lengthAdjust="spacing" textLength="78" x="165" y="109.7207">&#171;javaScript&#187;</text><text fill="#000000" font-family="sans-serif" font-size="14" lengthAdjust="spacing" textLength="44" x="182" y="127.3301">:server</text><rect fill="#E2E2F0" height="49.2188" rx="2.5" ry="2.5" style="stroke:#181818;stroke-width:0.5;" width="92" x="158" y="642.5156"/><text fill="#000000" font-family="sans-serif" font-size="14" lengthAdjust="spacing" textLength="78" x="165" y="664.0488">&#171;javaScript&#187;</text><text fill="#000000" font-family="sans-serif" font-size="14" lengthAdjust="spacing" textLength="44" x="182" y="681.6582">:server</text><rect fill="#E2E2F0" height="49.2188" rx="2.5" ry="2.5" style="stroke:#181818;stroke-width:0.5;" width="68" x="315" y="88.1875"/><text fill="#000000" font-family="sans-serif" font-size="14" lengthAdjust="spacing" textLength="54" x="322" y="109.7207">&#171;router&#187;</text><text fill="#000000" font-family="sans-serif" font-size="14" lengthAdjust="spacing" textLength="32" x="333" y="127.3301">:auth</text><rect fill="#E2E2F0" height="49.2188" rx="2.5" ry="2.5" style="stroke:#181818;stroke-width:0.5;" width="68" x="315" y="642.5156"/><text fill="#000000" font-family="sans-serif" font-size="14" lengthAdjust="spacing" textLength="54" x="322" y="664.0488">&#171;router&#187;</text><text fill="#000000" font-family="sans-serif" font-size="14" lengthAdjust="spacing" textLength="32" x="333" y="681.6582">:auth</text><rect fill="#E2E2F0" height="49.2188" rx="2.5" ry="2.5" style="stroke:#181818;stroke-width:0.5;" width="96" x="393" y="88.1875"/><text fill="#000000" font-family="sans-serif" font-size="14" lengthAdjust="spacing" textLength="82" x="400" y="109.7207">&#171;controllers&#187;</text><text fill="#000000" font-family="sans-serif" font-size="14" lengthAdjust="spacing" textLength="32" x="425" y="127.3301">:auth</text><rect fill="#E2E2F0" height="49.2188" rx="2.5" ry="2.5" style="stroke:#181818;stroke-width:0.5;" width="96" x="393" y="642.5156"/><text fill="#000000" font-family="sans-serif" font-size="14" lengthAdjust="spacing" textLength="82" x="400" y="664.0488">&#171;controllers&#187;</text><text fill="#000000" font-family="sans-serif" font-size="14" lengthAdjust="spacing" textLength="32" x="425" y="681.6582">:auth</text><rect fill="#E2E2F0" height="49.2188" rx="2.5" ry="2.5" style="stroke:#181818;stroke-width:0.5;" width="68" x="649" y="88.1875"/><text fill="#000000" font-family="sans-serif" font-size="14" lengthAdjust="spacing" textLength="54" x="656" y="109.7207">&#171;model&#187;</text><text fill="#000000" font-family="sans-serif" font-size="14" lengthAdjust="spacing" textLength="33" x="666.5" y="127.3301">:User</text><rect fill="#E2E2F0" height="49.2188" rx="2.5" ry="2.5" style="stroke:#181818;stroke-width:0.5;" width="68" x="649" y="642.5156"/><text fill="#000000" font-family="sans-serif" font-size="14" lengthAdjust="spacing" textLength="54" x="656" y="664.0488">&#171;model&#187;</text><text fill="#000000" font-family="sans-serif" font-size="14" lengthAdjust="spacing" textLength="33" x="666.5" y="681.6582">:User</text><text fill="#000000" font-family="sans-serif" font-size="14" lengthAdjust="spacing" textLength="77" x="883.5" y="117.7207">&#171;Database&#187;</text><text fill="#000000" font-family="sans-serif" font-size="14" lengthAdjust="spacing" textLength="66" x="889" y="135.3301">:MongoDB</text><path d="M907,67.1875 C907,57.1875 925,57.1875 925,57.1875 C925,57.1875 943,57.1875 943,67.1875 L943,93.1875 C943,103.1875 925,103.1875 925,103.1875 C925,103.1875 907,103.1875 907,93.1875 L907,67.1875 " fill="#E2E2F0" style="stroke:#181818;stroke-width:1.5;"/><path d="M907,67.1875 C907,77.1875 925,77.1875 925,77.1875 C925,77.1875 943,77.1875 943,67.1875 " fill="none" style="stroke:#181818;stroke-width:1.5;"/><text fill="#000000" font-family="sans-serif" font-size="14" lengthAdjust="spacing" textLength="77" x="883.5" y="657.0488">&#171;Database&#187;</text><text fill="#000000" font-family="sans-serif" font-size="14" lengthAdjust="spacing" textLength="66" x="889" y="674.6582">:MongoDB</text><path d="M907,687.7344 C907,677.7344 925,677.7344 925,677.7344 C925,677.7344 943,677.7344 943,687.7344 L943,713.7344 C943,723.7344 925,723.7344 925,723.7344 C925,723.7344 907,723.7344 907,713.7344 L907,687.7344 " fill="#E2E2F0" style="stroke:#181818;stroke-width:1.5;"/><path d="M907,687.7344 C907,697.7344 925,697.7344 925,697.7344 C925,697.7344 943,697.7344 943,687.7344 " fill="none" style="stroke:#181818;stroke-width:1.5;"/><rect fill="#FFFFFF" height="463.7578" style="stroke:#181818;stroke-width:1.0;" width="10" x="199" y="170.7578"/><rect fill="#FFFFFF" height="433.4063" style="stroke:#181818;stroke-width:1.0;" width="10" x="344" y="201.1094"/><rect fill="#FFFFFF" height="177.1094" style="stroke:#181818;stroke-width:1.0;" width="10" x="436" y="231.4609"/><rect fill="#FFFFFF" height="155.7578" style="stroke:#181818;stroke-width:1.0;" width="10" x="436" y="462.7578"/><rect fill="#FFFFFF" height="91.0547" style="stroke:#181818;stroke-width:1.0;" width="10" x="678" y="261.8125"/><rect fill="#FFFFFF" height="73.7031" style="stroke:#181818;stroke-width:1.0;" width="10" x="678" y="514.4609"/><rect fill="#FFFFFF" height="30.3516" style="stroke:#181818;stroke-width:1.0;" width="10" x="920" y="292.1641"/><polygon fill="#181818" points="187,166.7578,197,170.7578,187,174.7578,191,170.7578" style="stroke:#181818;stroke-width:1.0;"/><line style="stroke:#181818;stroke-width:1.0;" x1="45" x2="193" y1="170.7578" y2="170.7578"/><text fill="#000000" font-family="sans-serif" font-size="13" lengthAdjust="spacing" textLength="135" x="52" y="165.9014">req.post('/auth/register')</text><polygon fill="#181818" points="332,197.1094,342,201.1094,332,205.1094,336,201.1094" style="stroke:#181818;stroke-width:1.0;"/><line style="stroke:#181818;stroke-width:1.0;" x1="209" x2="338" y1="201.1094" y2="201.1094"/><text fill="#000000" font-family="sans-serif" font-size="13" lengthAdjust="spacing" textLength="116" x="216" y="196.2529">app.use('/auth',auth)</text><polygon fill="#181818" points="424,227.4609,434,231.4609,424,235.4609,428,231.4609" style="stroke:#181818;stroke-width:1.0;"/><line style="stroke:#181818;stroke-width:1.0;" x1="354" x2="430" y1="231.4609" y2="231.4609"/><text fill="#000000" font-family="sans-serif" font-size="13" lengthAdjust="spacing" textLength="51" x="361" y="226.6045">register()</text><polygon fill="#181818" points="666,257.8125,676,261.8125,666,265.8125,670,261.8125" style="stroke:#181818;stroke-width:1.0;"/><line style="stroke:#181818;stroke-width:1.0;" x1="446" x2="672" y1="261.8125" y2="261.8125"/><text fill="#000000" font-family="sans-serif" font-size="13" lengthAdjust="spacing" textLength="213" x="453" y="256.9561">create(name,tel,email,password,role)</text><polygon fill="#181818" points="908,288.1641,918,292.1641,908,296.1641,912,292.1641" style="stroke:#181818;stroke-width:1.0;"/><line style="stroke:#181818;stroke-width:1.0;" x1="688" x2="914" y1="292.1641" y2="292.1641"/><text fill="#000000" font-family="sans-serif" font-size="13" lengthAdjust="spacing" textLength="213" x="695" y="287.3076">create(name,tel,email,password,role)</text><polygon fill="#181818" points="699,318.5156,689,322.5156,699,326.5156,695,322.5156" style="stroke:#181818;stroke-width:1.0;"/><line style="stroke:#181818;stroke-width:1.0;" x1="693" x2="924" y1="322.5156" y2="322.5156"/><text fill="#000000" font-family="sans-serif" font-size="13" lengthAdjust="spacing" textLength="25" x="705" y="317.6592">user</text><polygon fill="#181818" points="457,348.8672,447,352.8672,457,356.8672,453,352.8672" style="stroke:#181818;stroke-width:1.0;"/><line style="stroke:#181818;stroke-width:1.0;" x1="451" x2="682" y1="352.8672" y2="352.8672"/><text fill="#000000" font-family="sans-serif" font-size="13" lengthAdjust="spacing" textLength="25" x="463" y="348.0107">user</text><path d="M10,367.8672 L71,367.8672 L71,376.2188 L61,386.2188 L10,386.2188 L10,367.8672 " fill="#EEEEEE" style="stroke:#000000;stroke-width:1.5;"/><rect fill="none" height="258.6484" style="stroke:#000000;stroke-width:1.5;" width="788" x="10" y="367.8672"/><text fill="#000000" font-family="sans-serif" font-size="13" font-weight="bold" lengthAdjust="spacing" textLength="16" x="25" y="382.3623">alt</text><a href="Fail" target="_top" title="Fail" xlink:actuate="onRequest" xlink:href="Fail" xlink:show="new" xlink:title="Fail" xlink:type="simple"><text fill="#0000FF" font-family="sans-serif" font-size="11" font-weight="bold" lengthAdjust="spacing" text-decoration="underline" textLength="18" x="86" y="381.2861">Fail</text></a><polygon fill="#181818" points="56,404.5703,46,408.5703,56,412.5703,52,408.5703" style="stroke:#181818;stroke-width:1.0;"/><line style="stroke:#181818;stroke-width:1.0;" x1="50" x2="440" y1="408.5703" y2="408.5703"/><text fill="#000000" font-family="sans-serif" font-size="13" lengthAdjust="spacing" textLength="73" x="62" y="403.7139">response fail</text><line style="stroke:#000000;stroke-width:1.0;stroke-dasharray:2.0,2.0;" x1="10" x2="798" y1="417.5703" y2="417.5703"/><a href="Success" target="_top" title="Success" xlink:actuate="onRequest" xlink:href="Success" xlink:show="new" xlink:title="Success" xlink:type="simple"><text fill="#0000FF" font-family="sans-serif" font-size="11" font-weight="bold" lengthAdjust="spacing" text-decoration="underline" textLength="47" x="15" y="428.9893">Success</text></a><line style="stroke:#181818;stroke-width:1.0;" x1="441" x2="488" y1="449.7578" y2="449.7578"/><line style="stroke:#181818;stroke-width:1.0;" x1="488" x2="488" y1="449.7578" y2="462.7578"/><line style="stroke:#181818;stroke-width:1.0;" x1="447" x2="488" y1="462.7578" y2="462.7578"/><polygon fill="#181818" points="457,458.7578,447,462.7578,457,466.7578,453,462.7578" style="stroke:#181818;stroke-width:1.0;"/><text fill="#000000" font-family="sans-serif" font-size="13" lengthAdjust="spacing" textLength="63" x="453" y="444.9014">sendToken</text><polygon fill="#181818" points="666,510.4609,676,514.4609,666,518.4609,670,514.4609" style="stroke:#181818;stroke-width:1.0;"/><line style="stroke:#181818;stroke-width:1.0;" x1="446" x2="672" y1="514.4609" y2="514.4609"/><text fill="#000000" font-family="sans-serif" font-size="13" lengthAdjust="spacing" textLength="87" x="453" y="493.2529">user.getSigned</text><text fill="#000000" font-family="sans-serif" font-size="13" lengthAdjust="spacing" textLength="62" x="453" y="509.6045">JwtToken()</text><line style="stroke:#181818;stroke-width:1.0;" x1="688" x2="730" y1="544.8125" y2="544.8125"/><line style="stroke:#181818;stroke-width:1.0;" x1="730" x2="730" y1="544.8125" y2="557.8125"/><line style="stroke:#181818;stroke-width:1.0;" x1="689" x2="730" y1="557.8125" y2="557.8125"/><polygon fill="#181818" points="699,553.8125,689,557.8125,699,561.8125,695,557.8125" style="stroke:#181818;stroke-width:1.0;"/><text fill="#000000" font-family="sans-serif" font-size="13" lengthAdjust="spacing" textLength="91" x="695" y="539.9561">jwt.sign(user.id)</text><polygon fill="#181818" points="457,584.1641,447,588.1641,457,592.1641,453,588.1641" style="stroke:#181818;stroke-width:1.0;"/><line style="stroke:#181818;stroke-width:1.0;" x1="451" x2="682" y1="588.1641" y2="588.1641"/><text fill="#000000" font-family="sans-serif" font-size="13" lengthAdjust="spacing" textLength="32" x="463" y="583.3076">token</text><polygon fill="#181818" points="56,614.5156,46,618.5156,56,622.5156,52,618.5156" style="stroke:#181818;stroke-width:1.0;"/><line style="stroke:#181818;stroke-width:1.0;" x1="50" x2="440" y1="618.5156" y2="618.5156"/><text fill="#000000" font-family="sans-serif" font-size="13" lengthAdjust="spacing" textLength="146" x="62" y="613.6592">response success, token</text><text fill="#888888" font-family="sans-serif" font-size="10" lengthAdjust="spacing" textLength="132" x="838.5" y="15.3809">Online Job Fair Registration</text><!--SRC=[dPBBJiCm44Nt_WghcoOYAVkgYiH3B90GYC8AM4oJeHXSEtWczFVn8z0c50cHHMHxplNClSaBGeDENXkj3CfBkv8Ne9oynRKYTi3A6i6ADSf9ElDmTdEzlCidGhJWMDMg1SDoSgOL6fv885d7vR2yMBp21onhfrgkgaSp9tGVw2AVbcFUsSvtYonq_1B9T7RYjsEwjeQTrHeT3ILxXKEwZMrGHyKzzUF4ex0J3J2iW320v_qwibVMhEtvQSG3ILzL8PBviagcvD7HtE7xhBN4sVGuJ7Ni-Y2dkKXGMUry1G6qxQmZxFbf4Twvs6FAQcmhzKdtPhaOLxtWsrL0QuV0c1dOOC6e2zo0qaKBH5lhci9BCHSxXPSFNFxZYaKvkg8ivrt8U3og1_SQzv00pVB1_vhwIKZ_f903-yDfwNEWrXhVujdp0hLVFIoxkaQYNlqpdGDn4fhcphwX-KqpI3ICELiZBzNQOFDeBhSSnVvZ1FaWozrc_hhb6Nb95lMgoGys6sV2kx7-50GbzuLCGczCV080]--></g></svg>