<?xml version="1.0" encoding="us-ascii" standalone="no"?><svg xmlns="http://www.w3.org/2000/svg" xmlns:xlink="http://www.w3.org/1999/xlink" contentStyleType="text/css" height="989px" preserveAspectRatio="none" style="width:1234px;height:989px;background:#FFFFFF;" version="1.1" viewBox="0 0 1234 989" width="1234px" zoomAndPan="magnify"><defs/><g><text fill="#000000" font-family="sans-serif" font-size="14" font-weight="bold" lengthAdjust="spacing" textLength="213" x="506.5" y="43.1113">Update a Single Booking (PUT)</text><rect fill="#FFFFFF" height="712.4063" style="stroke:#181818;stroke-width:1.0;" width="10" x="200" y="170.7578"/><rect fill="#FFFFFF" height="682.0547" style="stroke:#181818;stroke-width:1.0;" width="10" x="404.5" y="201.1094"/><rect fill="#FFFFFF" height="116.4063" style="stroke:#181818;stroke-width:1.0;" width="10" x="578.5" y="231.4609"/><rect fill="#FFFFFF" height="30.3516" style="stroke:#181818;stroke-width:1.0;" width="10" x="578.5" y="545.8125"/><rect fill="#FFFFFF" height="30.3516" style="stroke:#181818;stroke-width:1.0;" width="10" x="720.5" y="261.8125"/><rect fill="#FFFFFF" height="177.1094" style="stroke:#181818;stroke-width:1.0;" width="10" x="816" y="636.8672"/><rect fill="#FFFFFF" height="91.0547" style="stroke:#181818;stroke-width:1.0;" width="10" x="978" y="667.2188"/><rect fill="#FFFFFF" height="91.0547" style="stroke:#181818;stroke-width:1.0;" width="10" x="1056.5" y="394.0547"/><rect fill="#FFFFFF" height="30.3516" style="stroke:#181818;stroke-width:1.0;" width="10" x="1160.5" y="424.4063"/><rect fill="#FFFFFF" height="30.3516" style="stroke:#181818;stroke-width:1.0;" width="10" x="1160.5" y="697.5703"/><rect fill="none" height="568" style="stroke:#000000;stroke-width:1.5;" width="1207" x="10" y="307.1641"/><rect fill="none" height="94.8906" style="stroke:#000000;stroke-width:1.5;" width="859" x="20" y="773.2734"/><line style="stroke:#181818;stroke-width:0.5;stroke-dasharray:5.0,5.0;" x1="55" x2="55" y1="138.4063" y2="892.1641"/><line style="stroke:#181818;stroke-width:0.5;stroke-dasharray:5.0,5.0;" x1="205" x2="205" y1="138.4063" y2="892.1641"/><line style="stroke:#181818;stroke-width:0.5;stroke-dasharray:5.0,5.0;" x1="311" x2="311" y1="138.4063" y2="892.1641"/><line style="stroke:#181818;stroke-width:0.5;stroke-dasharray:5.0,5.0;" x1="409" x2="409" y1="138.4063" y2="892.1641"/><line style="stroke:#181818;stroke-width:0.5;stroke-dasharray:5.0,5.0;" x1="583" x2="583" y1="138.4063" y2="892.1641"/><line style="stroke:#181818;stroke-width:0.5;stroke-dasharray:5.0,5.0;" x1="725" x2="725" y1="138.4063" y2="892.1641"/><line style="stroke:#181818;stroke-width:0.5;stroke-dasharray:5.0,5.0;" x1="821" x2="821" y1="138.4063" y2="892.1641"/><line style="stroke:#181818;stroke-width:0.5;stroke-dasharray:5.0,5.0;" x1="982.5" x2="982.5" y1="138.4063" y2="892.1641"/><line style="stroke:#181818;stroke-width:0.5;stroke-dasharray:5.0,5.0;" x1="1061.5" x2="1061.5" y1="138.4063" y2="892.1641"/><line style="stroke:#181818;stroke-width:0.5;stroke-dasharray:5.0,5.0;" x1="1165" x2="1165" y1="138.4063" y2="892.1641"/><rect fill="#E2E2F0" height="31.6094" rx="2.5" ry="2.5" style="stroke:#181818;stroke-width:0.5;" width="50" x="30" y="105.7969"/><text fill="#000000" font-family="sans-serif" font-size="14" lengthAdjust="spacing" textLength="36" x="37" y="127.3301">Client</text><rect fill="#E2E2F0" height="31.6094" rx="2.5" ry="2.5" style="stroke:#181818;stroke-width:0.5;" width="50" x="30" y="891.1641"/><text fill="#000000" font-family="sans-serif" font-size="14" lengthAdjust="spacing" textLength="36" x="37" y="912.6973">Client</text><rect fill="#E2E2F0" height="49.2188" rx="2.5" ry="2.5" style="stroke:#181818;stroke-width:0.5;" width="92" x="159" y="88.1875"/><text fill="#000000" font-family="sans-serif" font-size="14" lengthAdjust="spacing" textLength="78" x="166" y="109.7207">&#171;javaScript&#187;</text><text fill="#000000" font-family="sans-serif" font-size="14" lengthAdjust="spacing" textLength="44" x="183" y="127.3301">:server</text><rect fill="#E2E2F0" height="49.2188" rx="2.5" ry="2.5" style="stroke:#181818;stroke-width:0.5;" width="92" x="159" y="891.1641"/><text fill="#000000" font-family="sans-serif" font-size="14" lengthAdjust="spacing" textLength="78" x="166" y="912.6973">&#171;javaScript&#187;</text><text fill="#000000" font-family="sans-serif" font-size="14" lengthAdjust="spacing" textLength="44" x="183" y="930.3066">:server</text><rect fill="#E2E2F0" height="49.2188" rx="2.5" ry="2.5" style="stroke:#181818;stroke-width:0.5;" width="101" x="261" y="88.1875"/><text fill="#000000" font-family="sans-serif" font-size="14" lengthAdjust="spacing" textLength="87" x="268" y="109.7207">&#171;middleware&#187;</text><text fill="#000000" font-family="sans-serif" font-size="14" lengthAdjust="spacing" textLength="29" x="297" y="127.3301">:mail</text><rect fill="#E2E2F0" height="49.2188" rx="2.5" ry="2.5" style="stroke:#181818;stroke-width:0.5;" width="101" x="261" y="891.1641"/><text fill="#000000" font-family="sans-serif" font-size="14" lengthAdjust="spacing" textLength="87" x="268" y="912.6973">&#171;middleware&#187;</text><text fill="#000000" font-family="sans-serif" font-size="14" lengthAdjust="spacing" textLength="29" x="297" y="930.3066">:mail</text><rect fill="#E2E2F0" height="49.2188" rx="2.5" ry="2.5" style="stroke:#181818;stroke-width:0.5;" width="75" x="372" y="88.1875"/><text fill="#000000" font-family="sans-serif" font-size="14" lengthAdjust="spacing" textLength="54" x="382.5" y="109.7207">&#171;router&#187;</text><text fill="#000000" font-family="sans-serif" font-size="14" lengthAdjust="spacing" textLength="61" x="379" y="127.3301">:bookings</text><rect fill="#E2E2F0" height="49.2188" rx="2.5" ry="2.5" style="stroke:#181818;stroke-width:0.5;" width="75" x="372" y="891.1641"/><text fill="#000000" font-family="sans-serif" font-size="14" lengthAdjust="spacing" textLength="54" x="382.5" y="912.6973">&#171;router&#187;</text><text fill="#000000" font-family="sans-serif" font-size="14" lengthAdjust="spacing" textLength="61" x="379" y="930.3066">:bookings</text><rect fill="#E2E2F0" height="49.2188" rx="2.5" ry="2.5" style="stroke:#181818;stroke-width:0.5;" width="101" x="533" y="88.1875"/><text fill="#000000" font-family="sans-serif" font-size="14" lengthAdjust="spacing" textLength="87" x="540" y="109.7207">&#171;middleware&#187;</text><text fill="#000000" font-family="sans-serif" font-size="14" lengthAdjust="spacing" textLength="32" x="567.5" y="127.3301">:auth</text><rect fill="#E2E2F0" height="49.2188" rx="2.5" ry="2.5" style="stroke:#181818;stroke-width:0.5;" width="101" x="533" y="891.1641"/><text fill="#000000" font-family="sans-serif" font-size="14" lengthAdjust="spacing" textLength="87" x="540" y="912.6973">&#171;middleware&#187;</text><text fill="#000000" font-family="sans-serif" font-size="14" lengthAdjust="spacing" textLength="32" x="567.5" y="930.3066">:auth</text><rect fill="#E2E2F0" height="49.2188" rx="2.5" ry="2.5" style="stroke:#181818;stroke-width:0.5;" width="75" x="688" y="88.1875"/><text fill="#000000" font-family="sans-serif" font-size="14" lengthAdjust="spacing" textLength="61" x="695" y="109.7207">&#171;service&#187;</text><text fill="#000000" font-family="sans-serif" font-size="14" lengthAdjust="spacing" textLength="20" x="715.5" y="127.3301">:jwt</text><rect fill="#E2E2F0" height="49.2188" rx="2.5" ry="2.5" style="stroke:#181818;stroke-width:0.5;" width="75" x="688" y="891.1641"/><text fill="#000000" font-family="sans-serif" font-size="14" lengthAdjust="spacing" textLength="61" x="695" y="912.6973">&#171;service&#187;</text><text fill="#000000" font-family="sans-serif" font-size="14" lengthAdjust="spacing" textLength="20" x="715.5" y="930.3066">:jwt</text><rect fill="#E2E2F0" height="49.2188" rx="2.5" ry="2.5" style="stroke:#181818;stroke-width:0.5;" width="96" x="773" y="88.1875"/><text fill="#000000" font-family="sans-serif" font-size="14" lengthAdjust="spacing" textLength="82" x="780" y="109.7207">&#171;controllers&#187;</text><text fill="#000000" font-family="sans-serif" font-size="14" lengthAdjust="spacing" textLength="61" x="790.5" y="127.3301">:bookings</text><rect fill="#E2E2F0" height="49.2188" rx="2.5" ry="2.5" style="stroke:#181818;stroke-width:0.5;" width="96" x="773" y="891.1641"/><text fill="#000000" font-family="sans-serif" font-size="14" lengthAdjust="spacing" textLength="82" x="780" y="912.6973">&#171;controllers&#187;</text><text fill="#000000" font-family="sans-serif" font-size="14" lengthAdjust="spacing" textLength="61" x="790.5" y="930.3066">:bookings</text><rect fill="#E2E2F0" height="49.2188" rx="2.5" ry="2.5" style="stroke:#181818;stroke-width:0.5;" width="69" x="948.5" y="88.1875"/><text fill="#000000" font-family="sans-serif" font-size="14" lengthAdjust="spacing" textLength="54" x="956" y="109.7207">&#171;model&#187;</text><text fill="#000000" font-family="sans-serif" font-size="14" lengthAdjust="spacing" textLength="55" x="955.5" y="127.3301">:Booking</text><rect fill="#E2E2F0" height="49.2188" rx="2.5" ry="2.5" style="stroke:#181818;stroke-width:0.5;" width="69" x="948.5" y="891.1641"/><text fill="#000000" font-family="sans-serif" font-size="14" lengthAdjust="spacing" textLength="54" x="956" y="912.6973">&#171;model&#187;</text><text fill="#000000" font-family="sans-serif" font-size="14" lengthAdjust="spacing" textLength="55" x="955.5" y="930.3066">:Booking</text><rect fill="#E2E2F0" height="49.2188" rx="2.5" ry="2.5" style="stroke:#181818;stroke-width:0.5;" width="68" x="1027.5" y="88.1875"/><text fill="#000000" font-family="sans-serif" font-size="14" lengthAdjust="spacing" textLength="54" x="1034.5" y="109.7207">&#171;model&#187;</text><text fill="#000000" font-family="sans-serif" font-size="14" lengthAdjust="spacing" textLength="33" x="1045" y="127.3301">:User</text><rect fill="#E2E2F0" height="49.2188" rx="2.5" ry="2.5" style="stroke:#181818;stroke-width:0.5;" width="68" x="1027.5" y="891.1641"/><text fill="#000000" font-family="sans-serif" font-size="14" lengthAdjust="spacing" textLength="54" x="1034.5" y="912.6973">&#171;model&#187;</text><text fill="#000000" font-family="sans-serif" font-size="14" lengthAdjust="spacing" textLength="33" x="1045" y="930.3066">:User</text><text fill="#000000" font-family="sans-serif" font-size="14" lengthAdjust="spacing" textLength="77" x="1124" y="117.7207">&#171;Database&#187;</text><text fill="#000000" font-family="sans-serif" font-size="14" lengthAdjust="spacing" textLength="66" x="1129.5" y="135.3301">:MongoDB</text><path d="M1147.5,67.1875 C1147.5,57.1875 1165.5,57.1875 1165.5,57.1875 C1165.5,57.1875 1183.5,57.1875 1183.5,67.1875 L1183.5,93.1875 C1183.5,103.1875 1165.5,103.1875 1165.5,103.1875 C1165.5,103.1875 1147.5,103.1875 1147.5,93.1875 L1147.5,67.1875 " fill="#E2E2F0" style="stroke:#181818;stroke-width:1.5;"/><path d="M1147.5,67.1875 C1147.5,77.1875 1165.5,77.1875 1165.5,77.1875 C1165.5,77.1875 1183.5,77.1875 1183.5,67.1875 " fill="none" style="stroke:#181818;stroke-width:1.5;"/><text fill="#000000" font-family="sans-serif" font-size="14" lengthAdjust="spacing" textLength="77" x="1124" y="905.6973">&#171;Database&#187;</text><text fill="#000000" font-family="sans-serif" font-size="14" lengthAdjust="spacing" textLength="66" x="1129.5" y="923.3066">:MongoDB</text><path d="M1147.5,936.3828 C1147.5,926.3828 1165.5,926.3828 1165.5,926.3828 C1165.5,926.3828 1183.5,926.3828 1183.5,936.3828 L1183.5,962.3828 C1183.5,972.3828 1165.5,972.3828 1165.5,972.3828 C1165.5,972.3828 1147.5,972.3828 1147.5,962.3828 L1147.5,936.3828 " fill="#E2E2F0" style="stroke:#181818;stroke-width:1.5;"/><path d="M1147.5,936.3828 C1147.5,946.3828 1165.5,946.3828 1165.5,946.3828 C1165.5,946.3828 1183.5,946.3828 1183.5,936.3828 " fill="none" style="stroke:#181818;stroke-width:1.5;"/><rect fill="#FFFFFF" height="712.4063" style="stroke:#181818;stroke-width:1.0;" width="10" x="200" y="170.7578"/><rect fill="#FFFFFF" height="682.0547" style="stroke:#181818;stroke-width:1.0;" width="10" x="404.5" y="201.1094"/><rect fill="#FFFFFF" height="116.4063" style="stroke:#181818;stroke-width:1.0;" width="10" x="578.5" y="231.4609"/><rect fill="#FFFFFF" height="30.3516" style="stroke:#181818;stroke-width:1.0;" width="10" x="578.5" y="545.8125"/><rect fill="#FFFFFF" height="30.3516" style="stroke:#181818;stroke-width:1.0;" width="10" x="720.5" y="261.8125"/><rect fill="#FFFFFF" height="177.1094" style="stroke:#181818;stroke-width:1.0;" width="10" x="816" y="636.8672"/><rect fill="#FFFFFF" height="91.0547" style="stroke:#181818;stroke-width:1.0;" width="10" x="978" y="667.2188"/><rect fill="#FFFFFF" height="91.0547" style="stroke:#181818;stroke-width:1.0;" width="10" x="1056.5" y="394.0547"/><rect fill="#FFFFFF" height="30.3516" style="stroke:#181818;stroke-width:1.0;" width="10" x="1160.5" y="424.4063"/><rect fill="#FFFFFF" height="30.3516" style="stroke:#181818;stroke-width:1.0;" width="10" x="1160.5" y="697.5703"/><polygon fill="#181818" points="188,166.7578,198,170.7578,188,174.7578,192,170.7578" style="stroke:#181818;stroke-width:1.0;"/><line style="stroke:#181818;stroke-width:1.0;" x1="55" x2="194" y1="170.7578" y2="170.7578"/><text fill="#000000" font-family="sans-serif" font-size="13" lengthAdjust="spacing" textLength="126" x="62" y="165.9014">req.put('/bookings/:id')</text><polygon fill="#181818" points="392.5,197.1094,402.5,201.1094,392.5,205.1094,396.5,201.1094" style="stroke:#181818;stroke-width:1.0;"/><line style="stroke:#181818;stroke-width:1.0;" x1="210" x2="398.5" y1="201.1094" y2="201.1094"/><text fill="#000000" font-family="sans-serif" font-size="13" lengthAdjust="spacing" textLength="174" x="217" y="196.2529">app.use('/bookings', bookings)</text><polygon fill="#181818" points="566.5,227.4609,576.5,231.4609,566.5,235.4609,570.5,231.4609" style="stroke:#181818;stroke-width:1.0;"/><line style="stroke:#181818;stroke-width:1.0;" x1="414.5" x2="572.5" y1="231.4609" y2="231.4609"/><text fill="#000000" font-family="sans-serif" font-size="13" lengthAdjust="spacing" textLength="48" x="421.5" y="226.6045">protect()</text><polygon fill="#181818" points="708.5,257.8125,718.5,261.8125,708.5,265.8125,712.5,261.8125" style="stroke:#181818;stroke-width:1.0;"/><line style="stroke:#181818;stroke-width:1.0;" x1="588.5" x2="714.5" y1="261.8125" y2="261.8125"/><text fill="#000000" font-family="sans-serif" font-size="13" lengthAdjust="spacing" textLength="113" x="595.5" y="256.9561">verify(token, secret)</text><polygon fill="#181818" points="599.5,288.1641,589.5,292.1641,599.5,296.1641,595.5,292.1641" style="stroke:#181818;stroke-width:1.0;"/><line style="stroke:#181818;stroke-width:1.0;" x1="593.5" x2="724.5" y1="292.1641" y2="292.1641"/><text fill="#000000" font-family="sans-serif" font-size="13" lengthAdjust="spacing" textLength="49" x="605.5" y="287.3076">decoded</text><path d="M10,307.1641 L71,307.1641 L71,315.5156 L61,325.5156 L10,325.5156 L10,307.1641 " fill="#EEEEEE" style="stroke:#000000;stroke-width:1.5;"/><rect fill="none" height="568" style="stroke:#000000;stroke-width:1.5;" width="1207" x="10" y="307.1641"/><text fill="#000000" font-family="sans-serif" font-size="13" font-weight="bold" lengthAdjust="spacing" textLength="16" x="25" y="321.6592">alt</text><a href="Fail" target="_top" title="Fail" xlink:actuate="onRequest" xlink:href="Fail" xlink:show="new" xlink:title="Fail" xlink:type="simple"><text fill="#0000FF" font-family="sans-serif" font-size="11" font-weight="bold" lengthAdjust="spacing" text-decoration="underline" textLength="18" x="86" y="320.583">Fail</text></a><polygon fill="#181818" points="66,343.8672,56,347.8672,66,351.8672,62,347.8672" style="stroke:#181818;stroke-width:1.0;"/><line style="stroke:#181818;stroke-width:1.0;" x1="60" x2="582.5" y1="347.8672" y2="347.8672"/><text fill="#000000" font-family="sans-serif" font-size="13" lengthAdjust="spacing" textLength="73" x="72" y="343.0107">response fail</text><line style="stroke:#000000;stroke-width:1.0;stroke-dasharray:2.0,2.0;" x1="10" x2="1217" y1="356.8672" y2="356.8672"/><a href="Success" target="_top" title="Success" xlink:actuate="onRequest" xlink:href="Success" xlink:show="new" xlink:title="Success" xlink:type="simple"><text fill="#0000FF" font-family="sans-serif" font-size="11" font-weight="bold" lengthAdjust="spacing" text-decoration="underline" textLength="47" x="15" y="368.2861">Success</text></a><polygon fill="#181818" points="1044.5,390.0547,1054.5,394.0547,1044.5,398.0547,1048.5,394.0547" style="stroke:#181818;stroke-width:1.0;"/><line style="stroke:#181818;stroke-width:1.0;" x1="583.5" x2="1050.5" y1="394.0547" y2="394.0547"/><text fill="#000000" font-family="sans-serif" font-size="13" lengthAdjust="spacing" textLength="121" x="590.5" y="389.1982">findById(decoded, id)</text><polygon fill="#181818" points="1148.5,420.4063,1158.5,424.4063,1148.5,428.4063,1152.5,424.4063" style="stroke:#181818;stroke-width:1.0;"/><line style="stroke:#181818;stroke-width:1.0;" x1="1066.5" x2="1154.5" y1="424.4063" y2="424.4063"/><text fill="#000000" font-family="sans-serif" font-size="13" lengthAdjust="spacing" textLength="75" x="1073.5" y="419.5498">UserSchema</text><polygon fill="#181818" points="1077.5,450.7578,1067.5,454.7578,1077.5,458.7578,1073.5,454.7578" style="stroke:#181818;stroke-width:1.0;"/><line style="stroke:#181818;stroke-width:1.0;" x1="1071.5" x2="1164.5" y1="454.7578" y2="454.7578"/><text fill="#000000" font-family="sans-serif" font-size="13" lengthAdjust="spacing" textLength="25" x="1083.5" y="449.9014">user</text><polygon fill="#181818" points="594.5,481.1094,584.5,485.1094,594.5,489.1094,590.5,485.1094" style="stroke:#181818;stroke-width:1.0;"/><line style="stroke:#181818;stroke-width:1.0;" x1="588.5" x2="1060.5" y1="485.1094" y2="485.1094"/><text fill="#000000" font-family="sans-serif" font-size="13" lengthAdjust="spacing" textLength="47" x="600.5" y="480.2529">req.user</text><polygon fill="#181818" points="425.5,511.4609,415.5,515.4609,425.5,519.4609,421.5,515.4609" style="stroke:#181818;stroke-width:1.0;"/><line style="stroke:#181818;stroke-width:1.0;" x1="419.5" x2="582.5" y1="515.4609" y2="515.4609"/><text fill="#000000" font-family="sans-serif" font-size="13" lengthAdjust="spacing" textLength="33" x="431.5" y="510.6045">next()</text><polygon fill="#181818" points="566.5,541.8125,576.5,545.8125,566.5,549.8125,570.5,545.8125" style="stroke:#181818;stroke-width:1.0;"/><line style="stroke:#181818;stroke-width:1.0;" x1="414.5" x2="572.5" y1="545.8125" y2="545.8125"/><text fill="#000000" font-family="sans-serif" font-size="13" lengthAdjust="spacing" textLength="145" x="421.5" y="540.9561">authorize("admin",""user)</text><polygon fill="#181818" points="425.5,572.1641,415.5,576.1641,425.5,580.1641,421.5,576.1641" style="stroke:#181818;stroke-width:1.0;"/><line style="stroke:#181818;stroke-width:1.0;stroke-dasharray:2.0,2.0;" x1="419.5" x2="582.5" y1="576.1641" y2="576.1641"/><text fill="#000000" font-family="sans-serif" font-size="13" lengthAdjust="spacing" textLength="33" x="431.5" y="571.3076">next()</text><polygon fill="#181818" points="566.5,602.5156,576.5,606.5156,566.5,610.5156,570.5,606.5156" style="stroke:#181818;stroke-width:1.0;"/><line style="stroke:#181818;stroke-width:1.0;" x1="414.5" x2="572.5" y1="606.5156" y2="606.5156"/><text fill="#000000" font-family="sans-serif" font-size="13" lengthAdjust="spacing" textLength="94" x="421.5" y="601.6592">updateBooking()</text><polygon fill="#181818" points="804,632.8672,814,636.8672,804,640.8672,808,636.8672" style="stroke:#181818;stroke-width:1.0;"/><line style="stroke:#181818;stroke-width:1.0;" x1="588.5" x2="810" y1="636.8672" y2="636.8672"/><text fill="#000000" font-family="sans-serif" font-size="13" lengthAdjust="spacing" textLength="94" x="595.5" y="632.0107">updateBooking()</text><polygon fill="#181818" points="966,663.2188,976,667.2188,966,671.2188,970,667.2188" style="stroke:#181818;stroke-width:1.0;"/><line style="stroke:#181818;stroke-width:1.0;" x1="826" x2="972" y1="667.2188" y2="667.2188"/><text fill="#000000" font-family="sans-serif" font-size="13" lengthAdjust="spacing" textLength="133" x="833" y="662.3623">findById(req.params.id)</text><polygon fill="#181818" points="1148.5,693.5703,1158.5,697.5703,1148.5,701.5703,1152.5,697.5703" style="stroke:#181818;stroke-width:1.0;"/><line style="stroke:#181818;stroke-width:1.0;" x1="988" x2="1154.5" y1="697.5703" y2="697.5703"/><text fill="#000000" font-family="sans-serif" font-size="13" lengthAdjust="spacing" textLength="95" x="995" y="692.7139">BookingSchema</text><polygon fill="#181818" points="999,723.9219,989,727.9219,999,731.9219,995,727.9219" style="stroke:#181818;stroke-width:1.0;"/><line style="stroke:#181818;stroke-width:1.0;stroke-dasharray:2.0,2.0;" x1="993" x2="1164.5" y1="727.9219" y2="727.9219"/><text fill="#000000" font-family="sans-serif" font-size="13" lengthAdjust="spacing" textLength="45" x="1005" y="723.0654">booking</text><polygon fill="#181818" points="837,754.2734,827,758.2734,837,762.2734,833,758.2734" style="stroke:#181818;stroke-width:1.0;"/><line style="stroke:#181818;stroke-width:1.0;stroke-dasharray:2.0,2.0;" x1="831" x2="982" y1="758.2734" y2="758.2734"/><text fill="#000000" font-family="sans-serif" font-size="13" lengthAdjust="spacing" textLength="45" x="843" y="753.417">booking</text><path d="M20,773.2734 L81,773.2734 L81,781.625 L71,791.625 L20,791.625 L20,773.2734 " fill="#EEEEEE" style="stroke:#000000;stroke-width:1.5;"/><rect fill="none" height="94.8906" style="stroke:#000000;stroke-width:1.5;" width="859" x="20" y="773.2734"/><text fill="#000000" font-family="sans-serif" font-size="13" font-weight="bold" lengthAdjust="spacing" textLength="16" x="35" y="787.7686">alt</text><text fill="#000000" font-family="sans-serif" font-size="11" font-weight="bold" lengthAdjust="spacing" textLength="215" x="96" y="786.6924">[The date is not during May 10-13, 2022]</text><polygon fill="#181818" points="66,809.9766,56,813.9766,66,817.9766,62,813.9766" style="stroke:#181818;stroke-width:1.0;"/><line style="stroke:#181818;stroke-width:1.0;" x1="60" x2="820" y1="813.9766" y2="813.9766"/><text fill="#000000" font-family="sans-serif" font-size="13" lengthAdjust="spacing" textLength="73" x="72" y="809.1201">response fail</text><line style="stroke:#000000;stroke-width:1.0;stroke-dasharray:2.0,2.0;" x1="20" x2="879" y1="822.9766" y2="822.9766"/><a href="success" target="_top" title="success" xlink:actuate="onRequest" xlink:href="success" xlink:show="new" xlink:title="success" xlink:type="simple"><text fill="#0000FF" font-family="sans-serif" font-size="11" font-weight="bold" lengthAdjust="spacing" text-decoration="underline" textLength="47" x="25" y="834.3955">success</text></a><polygon fill="#181818" points="66,856.1641,56,860.1641,66,864.1641,62,860.1641" style="stroke:#181818;stroke-width:1.0;"/><line style="stroke:#181818;stroke-width:1.0;" x1="60" x2="820" y1="860.1641" y2="860.1641"/><text fill="#000000" font-family="sans-serif" font-size="13" lengthAdjust="spacing" textLength="53" x="72" y="855.3076">response</text><text fill="#888888" font-family="sans-serif" font-size="10" lengthAdjust="spacing" textLength="132" x="1094" y="15.3809">Online Job Fair Registration</text><!--SRC=[bPJVRzem4CVV_LTOUI5HCMtP6q9ve5MbJQesZVBKxS7O1xWrTcOxxTXVF_z8M190Kv4GX-zpvxllNR83oi7WhqeA1VYBNkC7AWp-3bjXdQ5EQ8MSS19mjgeuTO0fNWgrzGSBhL-zXVDlgwSYGwYYnWacAgeSpkwa0EKoJ2rcqUoxv_CN-aQNp8ZAbUKFDRDWti14Ffb3VYyub_1E3KH-JuMCT326hD6r0nEvTIhIHZQTDtNR_zn0QxUBKS4Oig56mHBuyfxwzBz3Z6dbZ9OIZ3sjfkEyM9Bc86DaGwIMmsbpS3bYPHizur7uX_pyw9fQ2E1zOqVsKQkjlbz4l7KisGxs5A4qFbAciU2hgvc1NvEgTldekktdUYRug4098MLVvn12gsfIM-Y4ZCQuDGiq221b53q4LaOxO2ulK3pn7YzpSFYBnEQGE_qAQkntXXbm3JGd4I9ane7vvZb2L3hyx3TR_aJOVr9F0KnPYU_9LbfvQJPXdq1wwtbPCmRMff3s-gEQeOYDK7nn-Cppvg8n5ho8-3_Cn_Gb3O71qmZSftr90zeNLuVX7OlmI2SxYUCu4WCbEnqg-1raF4Trz0w_seW_a6UKxuNAnbaMaXVdityqVHtV8OqdBthAddaUBeMSGKdPVInwmudxIWtTsqblF2rBojC1jM-tpf1Evb8Eqf1PkzANYeoA3OFQc2I6NzId7U3ugXKMA-qmhqr07-a1tzwGsqzZFBsPJYD-KOncmqysEmIaxRRTxVv0dfH2SHI-Vm40]--></g></svg>