<?xml version="1.0" encoding="us-ascii" standalone="no"?><svg xmlns="http://www.w3.org/2000/svg" xmlns:xlink="http://www.w3.org/1999/xlink" contentStyleType="text/css" height="832px" preserveAspectRatio="none" style="width:1209px;height:832px;background:#FFFFFF;" version="1.1" viewBox="0 0 1209 832" width="1209px" zoomAndPan="magnify"><defs/><g><text fill="#000000" font-family="sans-serif" font-size="14" font-weight="bold" lengthAdjust="spacing" textLength="235" x="483.25" y="43.1113">Delete a Single Booking (DELETE)</text><rect fill="#FFFFFF" height="555.3281" style="stroke:#181818;stroke-width:1.0;" width="10" x="192" y="170.7578"/><rect fill="#FFFFFF" height="524.9766" style="stroke:#181818;stroke-width:1.0;" width="10" x="395" y="201.1094"/><rect fill="#FFFFFF" height="212.4609" style="stroke:#181818;stroke-width:1.0;" width="10" x="569" y="231.4609"/><rect fill="#FFFFFF" height="30.3516" style="stroke:#181818;stroke-width:1.0;" width="10" x="569" y="474.2734"/><rect fill="#FFFFFF" height="191.1094" style="stroke:#181818;stroke-width:1.0;" width="10" x="569" y="534.9766"/><rect fill="#FFFFFF" height="30.3516" style="stroke:#181818;stroke-width:1.0;" width="10" x="711" y="261.8125"/><rect fill="#FFFFFF" height="151.7578" style="stroke:#181818;stroke-width:1.0;" width="10" x="806.5" y="565.3281"/><rect fill="#FFFFFF" height="91.0547" style="stroke:#181818;stroke-width:1.0;" width="10" x="968.5" y="595.6797"/><rect fill="#FFFFFF" height="91.0547" style="stroke:#181818;stroke-width:1.0;" width="10" x="1047" y="322.5156"/><rect fill="#FFFFFF" height="30.3516" style="stroke:#181818;stroke-width:1.0;" width="10" x="1151" y="352.8672"/><rect fill="#FFFFFF" height="30.3516" style="stroke:#181818;stroke-width:1.0;" width="10" x="1151" y="626.0313"/><line style="stroke:#181818;stroke-width:0.5;stroke-dasharray:5.0,5.0;" x1="30" x2="30" y1="138.4063" y2="735.0859"/><line style="stroke:#181818;stroke-width:0.5;stroke-dasharray:5.0,5.0;" x1="197" x2="197" y1="138.4063" y2="735.0859"/><line style="stroke:#181818;stroke-width:0.5;stroke-dasharray:5.0,5.0;" x1="399.5" x2="399.5" y1="138.4063" y2="735.0859"/><line style="stroke:#181818;stroke-width:0.5;stroke-dasharray:5.0,5.0;" x1="573.5" x2="573.5" y1="138.4063" y2="735.0859"/><line style="stroke:#181818;stroke-width:0.5;stroke-dasharray:5.0,5.0;" x1="715.5" x2="715.5" y1="138.4063" y2="735.0859"/><line style="stroke:#181818;stroke-width:0.5;stroke-dasharray:5.0,5.0;" x1="811.5" x2="811.5" y1="138.4063" y2="735.0859"/><line style="stroke:#181818;stroke-width:0.5;stroke-dasharray:5.0,5.0;" x1="973" x2="973" y1="138.4063" y2="735.0859"/><line style="stroke:#181818;stroke-width:0.5;stroke-dasharray:5.0,5.0;" x1="1052" x2="1052" y1="138.4063" y2="735.0859"/><line style="stroke:#181818;stroke-width:0.5;stroke-dasharray:5.0,5.0;" x1="1155.5" x2="1155.5" y1="138.4063" y2="735.0859"/><rect fill="#E2E2F0" height="31.6094" rx="2.5" ry="2.5" style="stroke:#181818;stroke-width:0.5;" width="50" x="5" y="105.7969"/><text fill="#000000" font-family="sans-serif" font-size="14" lengthAdjust="spacing" textLength="36" x="12" y="127.3301">Client</text><rect fill="#E2E2F0" height="31.6094" rx="2.5" ry="2.5" style="stroke:#181818;stroke-width:0.5;" width="50" x="5" y="734.0859"/><text fill="#000000" font-family="sans-serif" font-size="14" lengthAdjust="spacing" textLength="36" x="12" y="755.6191">Client</text><rect fill="#E2E2F0" height="49.2188" rx="2.5" ry="2.5" style="stroke:#181818;stroke-width:0.5;" width="92" x="151" y="88.1875"/><text fill="#000000" font-family="sans-serif" font-size="14" lengthAdjust="spacing" textLength="78" x="158" y="109.7207">&#171;javaScript&#187;</text><text fill="#000000" font-family="sans-serif" font-size="14" lengthAdjust="spacing" textLength="44" x="175" y="127.3301">:server</text><rect fill="#E2E2F0" height="49.2188" rx="2.5" ry="2.5" style="stroke:#181818;stroke-width:0.5;" width="92" x="151" y="734.0859"/><text fill="#000000" font-family="sans-serif" font-size="14" lengthAdjust="spacing" textLength="78" x="158" y="755.6191">&#171;javaScript&#187;</text><text fill="#000000" font-family="sans-serif" font-size="14" lengthAdjust="spacing" textLength="44" x="175" y="773.2285">:server</text><rect fill="#E2E2F0" height="49.2188" rx="2.5" ry="2.5" style="stroke:#181818;stroke-width:0.5;" width="75" x="362.5" y="88.1875"/><text fill="#000000" font-family="sans-serif" font-size="14" lengthAdjust="spacing" textLength="54" x="373" y="109.7207">&#171;router&#187;</text><text fill="#000000" font-family="sans-serif" font-size="14" lengthAdjust="spacing" textLength="61" x="369.5" y="127.3301">:bookings</text><rect fill="#E2E2F0" height="49.2188" rx="2.5" ry="2.5" style="stroke:#181818;stroke-width:0.5;" width="75" x="362.5" y="734.0859"/><text fill="#000000" font-family="sans-serif" font-size="14" lengthAdjust="spacing" textLength="54" x="373" y="755.6191">&#171;router&#187;</text><text fill="#000000" font-family="sans-serif" font-size="14" lengthAdjust="spacing" textLength="61" x="369.5" y="773.2285">:bookings</text><rect fill="#E2E2F0" height="49.2188" rx="2.5" ry="2.5" style="stroke:#181818;stroke-width:0.5;" width="101" x="523.5" y="88.1875"/><text fill="#000000" font-family="sans-serif" font-size="14" lengthAdjust="spacing" textLength="87" x="530.5" y="109.7207">&#171;middleware&#187;</text><text fill="#000000" font-family="sans-serif" font-size="14" lengthAdjust="spacing" textLength="32" x="558" y="127.3301">:auth</text><rect fill="#E2E2F0" height="49.2188" rx="2.5" ry="2.5" style="stroke:#181818;stroke-width:0.5;" width="101" x="523.5" y="734.0859"/><text fill="#000000" font-family="sans-serif" font-size="14" lengthAdjust="spacing" textLength="87" x="530.5" y="755.6191">&#171;middleware&#187;</text><text fill="#000000" font-family="sans-serif" font-size="14" lengthAdjust="spacing" textLength="32" x="558" y="773.2285">:auth</text><rect fill="#E2E2F0" height="49.2188" rx="2.5" ry="2.5" style="stroke:#181818;stroke-width:0.5;" width="75" x="678.5" y="88.1875"/><text fill="#000000" font-family="sans-serif" font-size="14" lengthAdjust="spacing" textLength="61" x="685.5" y="109.7207">&#171;service&#187;</text><text fill="#000000" font-family="sans-serif" font-size="14" lengthAdjust="spacing" textLength="20" x="706" y="127.3301">:jwt</text><rect fill="#E2E2F0" height="49.2188" rx="2.5" ry="2.5" style="stroke:#181818;stroke-width:0.5;" width="75" x="678.5" y="734.0859"/><text fill="#000000" font-family="sans-serif" font-size="14" lengthAdjust="spacing" textLength="61" x="685.5" y="755.6191">&#171;service&#187;</text><text fill="#000000" font-family="sans-serif" font-size="14" lengthAdjust="spacing" textLength="20" x="706" y="773.2285">:jwt</text><rect fill="#E2E2F0" height="49.2188" rx="2.5" ry="2.5" style="stroke:#181818;stroke-width:0.5;" width="96" x="763.5" y="88.1875"/><text fill="#000000" font-family="sans-serif" font-size="14" lengthAdjust="spacing" textLength="82" x="770.5" y="109.7207">&#171;controllers&#187;</text><text fill="#000000" font-family="sans-serif" font-size="14" lengthAdjust="spacing" textLength="61" x="781" y="127.3301">:bookings</text><rect fill="#E2E2F0" height="49.2188" rx="2.5" ry="2.5" style="stroke:#181818;stroke-width:0.5;" width="96" x="763.5" y="734.0859"/><text fill="#000000" font-family="sans-serif" font-size="14" lengthAdjust="spacing" textLength="82" x="770.5" y="755.6191">&#171;controllers&#187;</text><text fill="#000000" font-family="sans-serif" font-size="14" lengthAdjust="spacing" textLength="61" x="781" y="773.2285">:bookings</text><rect fill="#E2E2F0" height="49.2188" rx="2.5" ry="2.5" style="stroke:#181818;stroke-width:0.5;" width="69" x="939" y="88.1875"/><text fill="#000000" font-family="sans-serif" font-size="14" lengthAdjust="spacing" textLength="54" x="946.5" y="109.7207">&#171;model&#187;</text><text fill="#000000" font-family="sans-serif" font-size="14" lengthAdjust="spacing" textLength="55" x="946" y="127.3301">:Booking</text><rect fill="#E2E2F0" height="49.2188" rx="2.5" ry="2.5" style="stroke:#181818;stroke-width:0.5;" width="69" x="939" y="734.0859"/><text fill="#000000" font-family="sans-serif" font-size="14" lengthAdjust="spacing" textLength="54" x="946.5" y="755.6191">&#171;model&#187;</text><text fill="#000000" font-family="sans-serif" font-size="14" lengthAdjust="spacing" textLength="55" x="946" y="773.2285">:Booking</text><rect fill="#E2E2F0" height="49.2188" rx="2.5" ry="2.5" style="stroke:#181818;stroke-width:0.5;" width="68" x="1018" y="88.1875"/><text fill="#000000" font-family="sans-serif" font-size="14" lengthAdjust="spacing" textLength="54" x="1025" y="109.7207">&#171;model&#187;</text><text fill="#000000" font-family="sans-serif" font-size="14" lengthAdjust="spacing" textLength="33" x="1035.5" y="127.3301">:User</text><rect fill="#E2E2F0" height="49.2188" rx="2.5" ry="2.5" style="stroke:#181818;stroke-width:0.5;" width="68" x="1018" y="734.0859"/><text fill="#000000" font-family="sans-serif" font-size="14" lengthAdjust="spacing" textLength="54" x="1025" y="755.6191">&#171;model&#187;</text><text fill="#000000" font-family="sans-serif" font-size="14" lengthAdjust="spacing" textLength="33" x="1035.5" y="773.2285">:User</text><text fill="#000000" font-family="sans-serif" font-size="14" lengthAdjust="spacing" textLength="77" x="1114.5" y="117.7207">&#171;Database&#187;</text><text fill="#000000" font-family="sans-serif" font-size="14" lengthAdjust="spacing" textLength="66" x="1120" y="135.3301">:MongoDB</text><path d="M1138,67.1875 C1138,57.1875 1156,57.1875 1156,57.1875 C1156,57.1875 1174,57.1875 1174,67.1875 L1174,93.1875 C1174,103.1875 1156,103.1875 1156,103.1875 C1156,103.1875 1138,103.1875 1138,93.1875 L1138,67.1875 " fill="#E2E2F0" style="stroke:#181818;stroke-width:1.5;"/><path d="M1138,67.1875 C1138,77.1875 1156,77.1875 1156,77.1875 C1156,77.1875 1174,77.1875 1174,67.1875 " fill="none" style="stroke:#181818;stroke-width:1.5;"/><text fill="#000000" font-family="sans-serif" font-size="14" lengthAdjust="spacing" textLength="77" x="1114.5" y="748.6191">&#171;Database&#187;</text><text fill="#000000" font-family="sans-serif" font-size="14" lengthAdjust="spacing" textLength="66" x="1120" y="766.2285">:MongoDB</text><path d="M1138,779.3047 C1138,769.3047 1156,769.3047 1156,769.3047 C1156,769.3047 1174,769.3047 1174,779.3047 L1174,805.3047 C1174,815.3047 1156,815.3047 1156,815.3047 C1156,815.3047 1138,815.3047 1138,805.3047 L1138,779.3047 " fill="#E2E2F0" style="stroke:#181818;stroke-width:1.5;"/><path d="M1138,779.3047 C1138,789.3047 1156,789.3047 1156,789.3047 C1156,789.3047 1174,789.3047 1174,779.3047 " fill="none" style="stroke:#181818;stroke-width:1.5;"/><rect fill="#FFFFFF" height="555.3281" style="stroke:#181818;stroke-width:1.0;" width="10" x="192" y="170.7578"/><rect fill="#FFFFFF" height="524.9766" style="stroke:#181818;stroke-width:1.0;" width="10" x="395" y="201.1094"/><rect fill="#FFFFFF" height="212.4609" style="stroke:#181818;stroke-width:1.0;" width="10" x="569" y="231.4609"/><rect fill="#FFFFFF" height="30.3516" style="stroke:#181818;stroke-width:1.0;" width="10" x="569" y="474.2734"/><rect fill="#FFFFFF" height="191.1094" style="stroke:#181818;stroke-width:1.0;" width="10" x="569" y="534.9766"/><rect fill="#FFFFFF" height="30.3516" style="stroke:#181818;stroke-width:1.0;" width="10" x="711" y="261.8125"/><rect fill="#FFFFFF" height="151.7578" style="stroke:#181818;stroke-width:1.0;" width="10" x="806.5" y="565.3281"/><rect fill="#FFFFFF" height="91.0547" style="stroke:#181818;stroke-width:1.0;" width="10" x="968.5" y="595.6797"/><rect fill="#FFFFFF" height="91.0547" style="stroke:#181818;stroke-width:1.0;" width="10" x="1047" y="322.5156"/><rect fill="#FFFFFF" height="30.3516" style="stroke:#181818;stroke-width:1.0;" width="10" x="1151" y="352.8672"/><rect fill="#FFFFFF" height="30.3516" style="stroke:#181818;stroke-width:1.0;" width="10" x="1151" y="626.0313"/><polygon fill="#181818" points="180,166.7578,190,170.7578,180,174.7578,184,170.7578" style="stroke:#181818;stroke-width:1.0;"/><line style="stroke:#181818;stroke-width:1.0;" x1="30" x2="186" y1="170.7578" y2="170.7578"/><text fill="#000000" font-family="sans-serif" font-size="13" lengthAdjust="spacing" textLength="143" x="37" y="165.9014">req.delete('/bookings/:id')</text><polygon fill="#181818" points="383,197.1094,393,201.1094,383,205.1094,387,201.1094" style="stroke:#181818;stroke-width:1.0;"/><line style="stroke:#181818;stroke-width:1.0;" x1="202" x2="389" y1="201.1094" y2="201.1094"/><text fill="#000000" font-family="sans-serif" font-size="13" lengthAdjust="spacing" textLength="174" x="209" y="196.2529">app.use('/bookings', bookings)</text><polygon fill="#181818" points="557,227.4609,567,231.4609,557,235.4609,561,231.4609" style="stroke:#181818;stroke-width:1.0;"/><line style="stroke:#181818;stroke-width:1.0;" x1="405" x2="563" y1="231.4609" y2="231.4609"/><text fill="#000000" font-family="sans-serif" font-size="13" lengthAdjust="spacing" textLength="48" x="412" y="226.6045">protect()</text><polygon fill="#181818" points="699,257.8125,709,261.8125,699,265.8125,703,261.8125" style="stroke:#181818;stroke-width:1.0;"/><line style="stroke:#181818;stroke-width:1.0;" x1="579" x2="705" y1="261.8125" y2="261.8125"/><text fill="#000000" font-family="sans-serif" font-size="13" lengthAdjust="spacing" textLength="113" x="586" y="256.9561">verify(token, secret)</text><polygon fill="#181818" points="590,288.1641,580,292.1641,590,296.1641,586,292.1641" style="stroke:#181818;stroke-width:1.0;"/><line style="stroke:#181818;stroke-width:1.0;" x1="584" x2="715" y1="292.1641" y2="292.1641"/><text fill="#000000" font-family="sans-serif" font-size="13" lengthAdjust="spacing" textLength="49" x="596" y="287.3076">decoded</text><polygon fill="#181818" points="1035,318.5156,1045,322.5156,1035,326.5156,1039,322.5156" style="stroke:#181818;stroke-width:1.0;"/><line style="stroke:#181818;stroke-width:1.0;" x1="579" x2="1041" y1="322.5156" y2="322.5156"/><text fill="#000000" font-family="sans-serif" font-size="13" lengthAdjust="spacing" textLength="121" x="586" y="317.6592">findById(decoded, id)</text><polygon fill="#181818" points="1139,348.8672,1149,352.8672,1139,356.8672,1143,352.8672" style="stroke:#181818;stroke-width:1.0;"/><line style="stroke:#181818;stroke-width:1.0;" x1="1057" x2="1145" y1="352.8672" y2="352.8672"/><text fill="#000000" font-family="sans-serif" font-size="13" lengthAdjust="spacing" textLength="75" x="1064" y="348.0107">UserSchema</text><polygon fill="#181818" points="1068,379.2188,1058,383.2188,1068,387.2188,1064,383.2188" style="stroke:#181818;stroke-width:1.0;"/><line style="stroke:#181818;stroke-width:1.0;" x1="1062" x2="1155" y1="383.2188" y2="383.2188"/><text fill="#000000" font-family="sans-serif" font-size="13" lengthAdjust="spacing" textLength="25" x="1074" y="378.3623">user</text><polygon fill="#181818" points="590,409.5703,580,413.5703,590,417.5703,586,413.5703" style="stroke:#181818;stroke-width:1.0;"/><line style="stroke:#181818;stroke-width:1.0;" x1="584" x2="1051" y1="413.5703" y2="413.5703"/><text fill="#000000" font-family="sans-serif" font-size="13" lengthAdjust="spacing" textLength="47" x="596" y="408.7139">req.user</text><polygon fill="#181818" points="416,439.9219,406,443.9219,416,447.9219,412,443.9219" style="stroke:#181818;stroke-width:1.0;"/><line style="stroke:#181818;stroke-width:1.0;" x1="410" x2="573" y1="443.9219" y2="443.9219"/><text fill="#000000" font-family="sans-serif" font-size="13" lengthAdjust="spacing" textLength="33" x="422" y="439.0654">next()</text><polygon fill="#181818" points="557,470.2734,567,474.2734,557,478.2734,561,474.2734" style="stroke:#181818;stroke-width:1.0;"/><line style="stroke:#181818;stroke-width:1.0;" x1="405" x2="563" y1="474.2734" y2="474.2734"/><text fill="#000000" font-family="sans-serif" font-size="13" lengthAdjust="spacing" textLength="145" x="412" y="469.417">authorize("admin",""user)</text><polygon fill="#181818" points="416,500.625,406,504.625,416,508.625,412,504.625" style="stroke:#181818;stroke-width:1.0;"/><line style="stroke:#181818;stroke-width:1.0;stroke-dasharray:2.0,2.0;" x1="410" x2="573" y1="504.625" y2="504.625"/><text fill="#000000" font-family="sans-serif" font-size="13" lengthAdjust="spacing" textLength="33" x="422" y="499.7686">next()</text><polygon fill="#181818" points="557,530.9766,567,534.9766,557,538.9766,561,534.9766" style="stroke:#181818;stroke-width:1.0;"/><line style="stroke:#181818;stroke-width:1.0;" x1="405" x2="563" y1="534.9766" y2="534.9766"/><text fill="#000000" font-family="sans-serif" font-size="13" lengthAdjust="spacing" textLength="90" x="412" y="530.1201">deleteBooking()</text><polygon fill="#181818" points="794.5,561.3281,804.5,565.3281,794.5,569.3281,798.5,565.3281" style="stroke:#181818;stroke-width:1.0;"/><line style="stroke:#181818;stroke-width:1.0;" x1="579" x2="800.5" y1="565.3281" y2="565.3281"/><text fill="#000000" font-family="sans-serif" font-size="13" lengthAdjust="spacing" textLength="90" x="586" y="560.4717">deleteBooking()</text><polygon fill="#181818" points="956.5,591.6797,966.5,595.6797,956.5,599.6797,960.5,595.6797" style="stroke:#181818;stroke-width:1.0;"/><line style="stroke:#181818;stroke-width:1.0;" x1="816.5" x2="962.5" y1="595.6797" y2="595.6797"/><text fill="#000000" font-family="sans-serif" font-size="13" lengthAdjust="spacing" textLength="133" x="823.5" y="590.8232">findById(req.params.id)</text><polygon fill="#181818" points="1139,622.0313,1149,626.0313,1139,630.0313,1143,626.0313" style="stroke:#181818;stroke-width:1.0;"/><line style="stroke:#181818;stroke-width:1.0;" x1="978.5" x2="1145" y1="626.0313" y2="626.0313"/><text fill="#000000" font-family="sans-serif" font-size="13" lengthAdjust="spacing" textLength="95" x="985.5" y="621.1748">BookingSchema</text><polygon fill="#181818" points="989.5,652.3828,979.5,656.3828,989.5,660.3828,985.5,656.3828" style="stroke:#181818;stroke-width:1.0;"/><line style="stroke:#181818;stroke-width:1.0;stroke-dasharray:2.0,2.0;" x1="983.5" x2="1155" y1="656.3828" y2="656.3828"/><text fill="#000000" font-family="sans-serif" font-size="13" lengthAdjust="spacing" textLength="22" x="995.5" y="651.5264">void</text><polygon fill="#181818" points="827.5,682.7344,817.5,686.7344,827.5,690.7344,823.5,686.7344" style="stroke:#181818;stroke-width:1.0;"/><line style="stroke:#181818;stroke-width:1.0;stroke-dasharray:2.0,2.0;" x1="821.5" x2="972.5" y1="686.7344" y2="686.7344"/><text fill="#000000" font-family="sans-serif" font-size="13" lengthAdjust="spacing" textLength="22" x="833.5" y="681.8779">void</text><polygon fill="#181818" points="41,713.0859,31,717.0859,41,721.0859,37,717.0859" style="stroke:#181818;stroke-width:1.0;"/><line style="stroke:#181818;stroke-width:1.0;" x1="35" x2="810.5" y1="717.0859" y2="717.0859"/><text fill="#000000" font-family="sans-serif" font-size="13" lengthAdjust="spacing" textLength="106" x="47" y="712.2295">success response</text><text fill="#888888" font-family="sans-serif" font-size="10" lengthAdjust="spacing" textLength="132" x="1069.5" y="15.3809">Online Job Fair Registration</text><!--SRC=[bPGzRzim48Pt_Wf2YoN4T7R1uE3O0LAqA52tMnUQlDXCP58bAQVfho-_v4YoNQ2JJdVFUpo-f7G09i3WhwgH2l0dlSEFJ1hy3VRIEiESr0evwHh0nHeQS80PtagrzucLrgy-mkLwytdpVLCL2BNCECbbovJ3nKCZGRa2Cujv3CVbvVA5dTYM6zawId-gse8vWOby2gUyqPq34zbTMjj6EkNpE7QgEaeX6dXZ1gAITUuGLI6Oic5ToHFuyfPczyyfnhLoHZSD67ivpQ1uSoGje8dAJ4HXpER4RSKFcpsAgV2617Dinom4S9tZo7xHQg_NguZtXIq_m94Xb8w4q6Grlhkh3VnQY7Z6vUo-tz9zBSMiGeaYT6nrKB6sNNHsA9dDSHzMQ28WDFeUXAtH3hWhAnGplkAT3WM_a7n-Bvr-1JNtLu4RS1bQaWWHKWlWVl_Yh3sx4JeyIoLMxq-YpDGSIr6X3yJpOpk2A5IoEH-aNt12-hMxO7e_pw0hYHR6wcJRdak3abh1xx3dVnWJdjh8Fr0MJ1obAkP54PfMbrt_fsqwsbmPk7xblbx3hs243g_ioFXWXB_2x6WNP-jxZj1By_kVIJw02yyf7hSWDJvfAQvD5MsPqhTWGjDt41ZRSGxM_qx0jbfPG7y1]--></g></svg>