<?xml version="1.0" encoding="us-ascii" standalone="no"?><svg xmlns="http://www.w3.org/2000/svg" xmlns:xlink="http://www.w3.org/1999/xlink" contentStyleType="text/css" height="1166px" preserveAspectRatio="none" style="width:1145px;height:1166px;background:#FFFFFF;" version="1.1" viewBox="0 0 1145 1166" width="1145px" zoomAndPan="magnify"><defs/><g><text fill="#000000" font-family="sans-serif" font-size="14" font-weight="bold" lengthAdjust="spacing" textLength="220" x="458.75" y="43.1113">Create a Single Booking (POST)</text><rect fill="#FFFFFF" height="840.8672" style="stroke:#181818;stroke-width:1.0;" width="10" x="145" y="219.8125"/><rect fill="#FFFFFF" height="761.4609" style="stroke:#181818;stroke-width:1.0;" width="10" x="255" y="299.2188"/><rect fill="#FFFFFF" height="405.4063" style="stroke:#181818;stroke-width:1.0;" width="10" x="355" y="378.625"/><rect fill="#FFFFFF" height="116.4063" style="stroke:#181818;stroke-width:1.0;" width="10" x="529" y="408.9766"/><rect fill="#FFFFFF" height="30.3516" style="stroke:#181818;stroke-width:1.0;" width="10" x="529" y="723.3281"/><rect fill="#FFFFFF" height="30.3516" style="stroke:#181818;stroke-width:1.0;" width="10" x="671" y="439.3281"/><rect fill="#FFFFFF" height="91.0547" style="stroke:#181818;stroke-width:1.0;" width="10" x="968" y="571.5703"/><rect fill="#FFFFFF" height="30.3516" style="stroke:#181818;stroke-width:1.0;" width="10" x="1072" y="601.9219"/><rect fill="#FFFFFF" height="30.3516" style="stroke:#181818;stroke-width:1.0;" width="10" x="1072" y="875.0859"/><rect fill="none" height="568" style="stroke:#000000;stroke-width:1.5;" width="1118.5" x="10" y="484.6797"/><rect fill="none" height="94.8906" style="stroke:#000000;stroke-width:1.5;" width="809.5" x="20" y="950.7891"/><line style="stroke:#181818;stroke-width:0.5;stroke-dasharray:5.0,5.0;" x1="55" x2="55" y1="138.4063" y2="1069.6797"/><line style="stroke:#181818;stroke-width:0.5;stroke-dasharray:5.0,5.0;" x1="150" x2="150" y1="138.4063" y2="1069.6797"/><line style="stroke:#181818;stroke-width:0.5;stroke-dasharray:5.0,5.0;" x1="260" x2="260" y1="138.4063" y2="1069.6797"/><line style="stroke:#181818;stroke-width:0.5;stroke-dasharray:5.0,5.0;" x1="359.5" x2="359.5" y1="138.4063" y2="1069.6797"/><line style="stroke:#181818;stroke-width:0.5;stroke-dasharray:5.0,5.0;" x1="533.5" x2="533.5" y1="138.4063" y2="1069.6797"/><line style="stroke:#181818;stroke-width:0.5;stroke-dasharray:5.0,5.0;" x1="675.5" x2="675.5" y1="138.4063" y2="1069.6797"/><line style="stroke:#181818;stroke-width:0.5;stroke-dasharray:5.0,5.0;" x1="771.5" x2="771.5" y1="138.4063" y2="1069.6797"/><line style="stroke:#181818;stroke-width:0.5;stroke-dasharray:5.0,5.0;" x1="894" x2="894" y1="138.4063" y2="1069.6797"/><line style="stroke:#181818;stroke-width:0.5;stroke-dasharray:5.0,5.0;" x1="973" x2="973" y1="138.4063" y2="1069.6797"/><line style="stroke:#181818;stroke-width:0.5;stroke-dasharray:5.0,5.0;" x1="1076.5" x2="1076.5" y1="138.4063" y2="1069.6797"/><rect fill="#E2E2F0" height="31.6094" rx="2.5" ry="2.5" style="stroke:#181818;stroke-width:0.5;" width="50" x="30" y="105.7969"/><text fill="#000000" font-family="sans-serif" font-size="14" lengthAdjust="spacing" textLength="36" x="37" y="127.3301">Client</text><rect fill="#E2E2F0" height="31.6094" rx="2.5" ry="2.5" style="stroke:#181818;stroke-width:0.5;" width="50" x="30" y="1068.6797"/><text fill="#000000" font-family="sans-serif" font-size="14" lengthAdjust="spacing" textLength="36" x="37" y="1090.2129">Client</text><rect fill="#E2E2F0" height="49.2188" rx="2.5" ry="2.5" style="stroke:#181818;stroke-width:0.5;" width="92" x="104" y="88.1875"/><text fill="#000000" font-family="sans-serif" font-size="14" lengthAdjust="spacing" textLength="78" x="111" y="109.7207">&#171;javaScript&#187;</text><text fill="#000000" font-family="sans-serif" font-size="14" lengthAdjust="spacing" textLength="44" x="128" y="127.3301">:server</text><rect fill="#E2E2F0" height="49.2188" rx="2.5" ry="2.5" style="stroke:#181818;stroke-width:0.5;" width="92" x="104" y="1068.6797"/><text fill="#000000" font-family="sans-serif" font-size="14" lengthAdjust="spacing" textLength="78" x="111" y="1090.2129">&#171;javaScript&#187;</text><text fill="#000000" font-family="sans-serif" font-size="14" lengthAdjust="spacing" textLength="44" x="128" y="1107.8223">:server</text><rect fill="#E2E2F0" height="49.2188" rx="2.5" ry="2.5" style="stroke:#181818;stroke-width:0.5;" width="86" x="217" y="88.1875"/><text fill="#000000" font-family="sans-serif" font-size="14" lengthAdjust="spacing" textLength="54" x="233" y="109.7207">&#171;router&#187;</text><text fill="#000000" font-family="sans-serif" font-size="14" lengthAdjust="spacing" textLength="72" x="224" y="127.3301">:companies</text><rect fill="#E2E2F0" height="49.2188" rx="2.5" ry="2.5" style="stroke:#181818;stroke-width:0.5;" width="86" x="217" y="1068.6797"/><text fill="#000000" font-family="sans-serif" font-size="14" lengthAdjust="spacing" textLength="54" x="233" y="1090.2129">&#171;router&#187;</text><text fill="#000000" font-family="sans-serif" font-size="14" lengthAdjust="spacing" textLength="72" x="224" y="1107.8223">:companies</text><rect fill="#E2E2F0" height="49.2188" rx="2.5" ry="2.5" style="stroke:#181818;stroke-width:0.5;" width="75" x="322.5" y="88.1875"/><text fill="#000000" font-family="sans-serif" font-size="14" lengthAdjust="spacing" textLength="54" x="333" y="109.7207">&#171;router&#187;</text><text fill="#000000" font-family="sans-serif" font-size="14" lengthAdjust="spacing" textLength="61" x="329.5" y="127.3301">:bookings</text><rect fill="#E2E2F0" height="49.2188" rx="2.5" ry="2.5" style="stroke:#181818;stroke-width:0.5;" width="75" x="322.5" y="1068.6797"/><text fill="#000000" font-family="sans-serif" font-size="14" lengthAdjust="spacing" textLength="54" x="333" y="1090.2129">&#171;router&#187;</text><text fill="#000000" font-family="sans-serif" font-size="14" lengthAdjust="spacing" textLength="61" x="329.5" y="1107.8223">:bookings</text><rect fill="#E2E2F0" height="49.2188" rx="2.5" ry="2.5" style="stroke:#181818;stroke-width:0.5;" width="101" x="483.5" y="88.1875"/><text fill="#000000" font-family="sans-serif" font-size="14" lengthAdjust="spacing" textLength="87" x="490.5" y="109.7207">&#171;middleware&#187;</text><text fill="#000000" font-family="sans-serif" font-size="14" lengthAdjust="spacing" textLength="32" x="518" y="127.3301">:auth</text><rect fill="#E2E2F0" height="49.2188" rx="2.5" ry="2.5" style="stroke:#181818;stroke-width:0.5;" width="101" x="483.5" y="1068.6797"/><text fill="#000000" font-family="sans-serif" font-size="14" lengthAdjust="spacing" textLength="87" x="490.5" y="1090.2129">&#171;middleware&#187;</text><text fill="#000000" font-family="sans-serif" font-size="14" lengthAdjust="spacing" textLength="32" x="518" y="1107.8223">:auth</text><rect fill="#E2E2F0" height="49.2188" rx="2.5" ry="2.5" style="stroke:#181818;stroke-width:0.5;" width="75" x="638.5" y="88.1875"/><text fill="#000000" font-family="sans-serif" font-size="14" lengthAdjust="spacing" textLength="61" x="645.5" y="109.7207">&#171;service&#187;</text><text fill="#000000" font-family="sans-serif" font-size="14" lengthAdjust="spacing" textLength="20" x="666" y="127.3301">:jwt</text><rect fill="#E2E2F0" height="49.2188" rx="2.5" ry="2.5" style="stroke:#181818;stroke-width:0.5;" width="75" x="638.5" y="1068.6797"/><text fill="#000000" font-family="sans-serif" font-size="14" lengthAdjust="spacing" textLength="61" x="645.5" y="1090.2129">&#171;service&#187;</text><text fill="#000000" font-family="sans-serif" font-size="14" lengthAdjust="spacing" textLength="20" x="666" y="1107.8223">:jwt</text><rect fill="#E2E2F0" height="49.2188" rx="2.5" ry="2.5" style="stroke:#181818;stroke-width:0.5;" width="96" x="723.5" y="88.1875"/><text fill="#000000" font-family="sans-serif" font-size="14" lengthAdjust="spacing" textLength="82" x="730.5" y="109.7207">&#171;controllers&#187;</text><text fill="#000000" font-family="sans-serif" font-size="14" lengthAdjust="spacing" textLength="61" x="741" y="127.3301">:bookings</text><rect fill="#E2E2F0" height="49.2188" rx="2.5" ry="2.5" style="stroke:#181818;stroke-width:0.5;" width="96" x="723.5" y="1068.6797"/><text fill="#000000" font-family="sans-serif" font-size="14" lengthAdjust="spacing" textLength="82" x="730.5" y="1090.2129">&#171;controllers&#187;</text><text fill="#000000" font-family="sans-serif" font-size="14" lengthAdjust="spacing" textLength="61" x="741" y="1107.8223">:bookings</text><rect fill="#E2E2F0" height="49.2188" rx="2.5" ry="2.5" style="stroke:#181818;stroke-width:0.5;" width="69" x="860" y="88.1875"/><text fill="#000000" font-family="sans-serif" font-size="14" lengthAdjust="spacing" textLength="54" x="867.5" y="109.7207">&#171;model&#187;</text><text fill="#000000" font-family="sans-serif" font-size="14" lengthAdjust="spacing" textLength="55" x="867" y="127.3301">:Booking</text><rect fill="#E2E2F0" height="49.2188" rx="2.5" ry="2.5" style="stroke:#181818;stroke-width:0.5;" width="69" x="860" y="1068.6797"/><text fill="#000000" font-family="sans-serif" font-size="14" lengthAdjust="spacing" textLength="54" x="867.5" y="1090.2129">&#171;model&#187;</text><text fill="#000000" font-family="sans-serif" font-size="14" lengthAdjust="spacing" textLength="55" x="867" y="1107.8223">:Booking</text><rect fill="#E2E2F0" height="49.2188" rx="2.5" ry="2.5" style="stroke:#181818;stroke-width:0.5;" width="68" x="939" y="88.1875"/><text fill="#000000" font-family="sans-serif" font-size="14" lengthAdjust="spacing" textLength="54" x="946" y="109.7207">&#171;model&#187;</text><text fill="#000000" font-family="sans-serif" font-size="14" lengthAdjust="spacing" textLength="33" x="956.5" y="127.3301">:User</text><rect fill="#E2E2F0" height="49.2188" rx="2.5" ry="2.5" style="stroke:#181818;stroke-width:0.5;" width="68" x="939" y="1068.6797"/><text fill="#000000" font-family="sans-serif" font-size="14" lengthAdjust="spacing" textLength="54" x="946" y="1090.2129">&#171;model&#187;</text><text fill="#000000" font-family="sans-serif" font-size="14" lengthAdjust="spacing" textLength="33" x="956.5" y="1107.8223">:User</text><text fill="#000000" font-family="sans-serif" font-size="14" lengthAdjust="spacing" textLength="77" x="1035.5" y="117.7207">&#171;Database&#187;</text><text fill="#000000" font-family="sans-serif" font-size="14" lengthAdjust="spacing" textLength="66" x="1041" y="135.3301">:MongoDB</text><path d="M1059,67.1875 C1059,57.1875 1077,57.1875 1077,57.1875 C1077,57.1875 1095,57.1875 1095,67.1875 L1095,93.1875 C1095,103.1875 1077,103.1875 1077,103.1875 C1077,103.1875 1059,103.1875 1059,93.1875 L1059,67.1875 " fill="#E2E2F0" style="stroke:#181818;stroke-width:1.5;"/><path d="M1059,67.1875 C1059,77.1875 1077,77.1875 1077,77.1875 C1077,77.1875 1095,77.1875 1095,67.1875 " fill="none" style="stroke:#181818;stroke-width:1.5;"/><text fill="#000000" font-family="sans-serif" font-size="14" lengthAdjust="spacing" textLength="77" x="1035.5" y="1083.2129">&#171;Database&#187;</text><text fill="#000000" font-family="sans-serif" font-size="14" lengthAdjust="spacing" textLength="66" x="1041" y="1100.8223">:MongoDB</text><path d="M1059,1113.8984 C1059,1103.8984 1077,1103.8984 1077,1103.8984 C1077,1103.8984 1095,1103.8984 1095,1113.8984 L1095,1139.8984 C1095,1149.8984 1077,1149.8984 1077,1149.8984 C1077,1149.8984 1059,1149.8984 1059,1139.8984 L1059,1113.8984 " fill="#E2E2F0" style="stroke:#181818;stroke-width:1.5;"/><path d="M1059,1113.8984 C1059,1123.8984 1077,1123.8984 1077,1123.8984 C1077,1123.8984 1095,1123.8984 1095,1113.8984 " fill="none" style="stroke:#181818;stroke-width:1.5;"/><rect fill="#FFFFFF" height="840.8672" style="stroke:#181818;stroke-width:1.0;" width="10" x="145" y="219.8125"/><rect fill="#FFFFFF" height="761.4609" style="stroke:#181818;stroke-width:1.0;" width="10" x="255" y="299.2188"/><rect fill="#FFFFFF" height="405.4063" style="stroke:#181818;stroke-width:1.0;" width="10" x="355" y="378.625"/><rect fill="#FFFFFF" height="116.4063" style="stroke:#181818;stroke-width:1.0;" width="10" x="529" y="408.9766"/><rect fill="#FFFFFF" height="30.3516" style="stroke:#181818;stroke-width:1.0;" width="10" x="529" y="723.3281"/><rect fill="#FFFFFF" height="30.3516" style="stroke:#181818;stroke-width:1.0;" width="10" x="671" y="439.3281"/><rect fill="#FFFFFF" height="91.0547" style="stroke:#181818;stroke-width:1.0;" width="10" x="968" y="571.5703"/><rect fill="#FFFFFF" height="30.3516" style="stroke:#181818;stroke-width:1.0;" width="10" x="1072" y="601.9219"/><rect fill="#FFFFFF" height="30.3516" style="stroke:#181818;stroke-width:1.0;" width="10" x="1072" y="875.0859"/><polygon fill="#181818" points="133,215.8125,143,219.8125,133,223.8125,137,219.8125" style="stroke:#181818;stroke-width:1.0;"/><line style="stroke:#181818;stroke-width:1.0;" x1="55" x2="139" y1="219.8125" y2="219.8125"/><text fill="#000000" font-family="sans-serif" font-size="13" lengthAdjust="spacing" textLength="53" x="62" y="165.9014">req.post('</text><text fill="#000000" font-family="sans-serif" font-size="13" lengthAdjust="spacing" textLength="67" x="62" y="182.2529">/companies</text><text fill="#000000" font-family="sans-serif" font-size="13" lengthAdjust="spacing" textLength="71" x="62" y="198.6045">/:companyId</text><text fill="#000000" font-family="sans-serif" font-size="13" lengthAdjust="spacing" textLength="62" x="62" y="214.9561">/bookings')</text><polygon fill="#181818" points="243,295.2188,253,299.2188,243,303.2188,247,299.2188" style="stroke:#181818;stroke-width:1.0;"/><line style="stroke:#181818;stroke-width:1.0;" x1="155" x2="249" y1="299.2188" y2="299.2188"/><text fill="#000000" font-family="sans-serif" font-size="13" lengthAdjust="spacing" textLength="52" x="162" y="245.3076">app.use('</text><text fill="#000000" font-family="sans-serif" font-size="13" lengthAdjust="spacing" textLength="67" x="162" y="261.6592">/companies</text><text fill="#000000" font-family="sans-serif" font-size="13" lengthAdjust="spacing" textLength="77" x="162" y="278.0107">/:companies',</text><text fill="#000000" font-family="sans-serif" font-size="13" lengthAdjust="spacing" textLength="67" x="162" y="294.3623">companies)</text><polygon fill="#181818" points="343,374.625,353,378.625,343,382.625,347,378.625" style="stroke:#181818;stroke-width:1.0;"/><line style="stroke:#181818;stroke-width:1.0;" x1="265" x2="349" y1="378.625" y2="378.625"/><text fill="#000000" font-family="sans-serif" font-size="13" lengthAdjust="spacing" textLength="64" x="272" y="324.7139">router.use('</text><text fill="#000000" font-family="sans-serif" font-size="13" lengthAdjust="spacing" textLength="71" x="272" y="341.0654">/:companyId</text><text fill="#000000" font-family="sans-serif" font-size="13" lengthAdjust="spacing" textLength="62" x="272" y="357.417">/bookings',</text><text fill="#000000" font-family="sans-serif" font-size="13" lengthAdjust="spacing" textLength="56" x="272" y="373.7686">bookings)</text><polygon fill="#181818" points="517,404.9766,527,408.9766,517,412.9766,521,408.9766" style="stroke:#181818;stroke-width:1.0;"/><line style="stroke:#181818;stroke-width:1.0;" x1="365" x2="523" y1="408.9766" y2="408.9766"/><text fill="#000000" font-family="sans-serif" font-size="13" lengthAdjust="spacing" textLength="48" x="372" y="404.1201">protect()</text><polygon fill="#181818" points="659,435.3281,669,439.3281,659,443.3281,663,439.3281" style="stroke:#181818;stroke-width:1.0;"/><line style="stroke:#181818;stroke-width:1.0;" x1="539" x2="665" y1="439.3281" y2="439.3281"/><text fill="#000000" font-family="sans-serif" font-size="13" lengthAdjust="spacing" textLength="113" x="546" y="434.4717">verify(token, secret)</text><polygon fill="#181818" points="550,465.6797,540,469.6797,550,473.6797,546,469.6797" style="stroke:#181818;stroke-width:1.0;"/><line style="stroke:#181818;stroke-width:1.0;" x1="544" x2="675" y1="469.6797" y2="469.6797"/><text fill="#000000" font-family="sans-serif" font-size="13" lengthAdjust="spacing" textLength="49" x="556" y="464.8232">decoded</text><path d="M10,484.6797 L71,484.6797 L71,493.0313 L61,503.0313 L10,503.0313 L10,484.6797 " fill="#EEEEEE" style="stroke:#000000;stroke-width:1.5;"/><rect fill="none" height="568" style="stroke:#000000;stroke-width:1.5;" width="1118.5" x="10" y="484.6797"/><text fill="#000000" font-family="sans-serif" font-size="13" font-weight="bold" lengthAdjust="spacing" textLength="16" x="25" y="499.1748">alt</text><a href="Fail" target="_top" title="Fail" xlink:actuate="onRequest" xlink:href="Fail" xlink:show="new" xlink:title="Fail" xlink:type="simple"><text fill="#0000FF" font-family="sans-serif" font-size="11" font-weight="bold" lengthAdjust="spacing" text-decoration="underline" textLength="18" x="86" y="498.0986">Fail</text></a><polygon fill="#181818" points="66,521.3828,56,525.3828,66,529.3828,62,525.3828" style="stroke:#181818;stroke-width:1.0;"/><line style="stroke:#181818;stroke-width:1.0;" x1="60" x2="533" y1="525.3828" y2="525.3828"/><text fill="#000000" font-family="sans-serif" font-size="13" lengthAdjust="spacing" textLength="73" x="72" y="520.5264">response fail</text><line style="stroke:#000000;stroke-width:1.0;stroke-dasharray:2.0,2.0;" x1="10" x2="1128.5" y1="534.3828" y2="534.3828"/><a href="Success" target="_top" title="Success" xlink:actuate="onRequest" xlink:href="Success" xlink:show="new" xlink:title="Success" xlink:type="simple"><text fill="#0000FF" font-family="sans-serif" font-size="11" font-weight="bold" lengthAdjust="spacing" text-decoration="underline" textLength="47" x="15" y="545.8018">Success</text></a><polygon fill="#181818" points="956,567.5703,966,571.5703,956,575.5703,960,571.5703" style="stroke:#181818;stroke-width:1.0;"/><line style="stroke:#181818;stroke-width:1.0;" x1="534" x2="962" y1="571.5703" y2="571.5703"/><text fill="#000000" font-family="sans-serif" font-size="13" lengthAdjust="spacing" textLength="121" x="541" y="566.7139">findById(decoded, id)</text><polygon fill="#181818" points="1060,597.9219,1070,601.9219,1060,605.9219,1064,601.9219" style="stroke:#181818;stroke-width:1.0;"/><line style="stroke:#181818;stroke-width:1.0;" x1="978" x2="1066" y1="601.9219" y2="601.9219"/><text fill="#000000" font-family="sans-serif" font-size="13" lengthAdjust="spacing" textLength="75" x="985" y="597.0654">UserSchema</text><polygon fill="#181818" points="989,628.2734,979,632.2734,989,636.2734,985,632.2734" style="stroke:#181818;stroke-width:1.0;"/><line style="stroke:#181818;stroke-width:1.0;stroke-dasharray:2.0,2.0;" x1="983" x2="1076" y1="632.2734" y2="632.2734"/><text fill="#000000" font-family="sans-serif" font-size="13" lengthAdjust="spacing" textLength="25" x="995" y="627.417">user</text><polygon fill="#181818" points="545,658.625,535,662.625,545,666.625,541,662.625" style="stroke:#181818;stroke-width:1.0;"/><line style="stroke:#181818;stroke-width:1.0;stroke-dasharray:2.0,2.0;" x1="539" x2="972" y1="662.625" y2="662.625"/><text fill="#000000" font-family="sans-serif" font-size="13" lengthAdjust="spacing" textLength="47" x="551" y="657.7686">req.user</text><polygon fill="#181818" points="376,688.9766,366,692.9766,376,696.9766,372,692.9766" style="stroke:#181818;stroke-width:1.0;"/><line style="stroke:#181818;stroke-width:1.0;" x1="370" x2="533" y1="692.9766" y2="692.9766"/><text fill="#000000" font-family="sans-serif" font-size="13" lengthAdjust="spacing" textLength="33" x="382" y="688.1201">next()</text><polygon fill="#181818" points="517,719.3281,527,723.3281,517,727.3281,521,723.3281" style="stroke:#181818;stroke-width:1.0;"/><line style="stroke:#181818;stroke-width:1.0;" x1="365" x2="523" y1="723.3281" y2="723.3281"/><text fill="#000000" font-family="sans-serif" font-size="13" lengthAdjust="spacing" textLength="145" x="372" y="718.4717">authorize("admin",""user)</text><polygon fill="#181818" points="376,749.6797,366,753.6797,376,757.6797,372,753.6797" style="stroke:#181818;stroke-width:1.0;"/><line style="stroke:#181818;stroke-width:1.0;stroke-dasharray:2.0,2.0;" x1="370" x2="533" y1="753.6797" y2="753.6797"/><text fill="#000000" font-family="sans-serif" font-size="13" lengthAdjust="spacing" textLength="33" x="382" y="748.8232">next()</text><polygon fill="#181818" points="522,780.0313,532,784.0313,522,788.0313,526,784.0313" style="stroke:#181818;stroke-width:1.0;"/><line style="stroke:#181818;stroke-width:1.0;" x1="360" x2="528" y1="784.0313" y2="784.0313"/><text fill="#000000" font-family="sans-serif" font-size="13" lengthAdjust="spacing" textLength="76" x="367" y="779.1748">addBooking()</text><polygon fill="#181818" points="759.5,810.3828,769.5,814.3828,759.5,818.3828,763.5,814.3828" style="stroke:#181818;stroke-width:1.0;"/><line style="stroke:#181818;stroke-width:1.0;" x1="534" x2="765.5" y1="814.3828" y2="814.3828"/><text fill="#000000" font-family="sans-serif" font-size="13" lengthAdjust="spacing" textLength="76" x="541" y="809.5264">addBooking()</text><polygon fill="#181818" points="882.5,840.7344,892.5,844.7344,882.5,848.7344,886.5,844.7344" style="stroke:#181818;stroke-width:1.0;"/><line style="stroke:#181818;stroke-width:1.0;" x1="771.5" x2="888.5" y1="844.7344" y2="844.7344"/><text fill="#000000" font-family="sans-serif" font-size="13" lengthAdjust="spacing" textLength="99" x="778.5" y="839.8779">Booking.create();</text><polygon fill="#181818" points="1060,871.0859,1070,875.0859,1060,879.0859,1064,875.0859" style="stroke:#181818;stroke-width:1.0;"/><line style="stroke:#181818;stroke-width:1.0;" x1="894.5" x2="1066" y1="875.0859" y2="875.0859"/><text fill="#000000" font-family="sans-serif" font-size="13" lengthAdjust="spacing" textLength="95" x="901.5" y="870.2295">BookingSchema</text><polygon fill="#181818" points="905.5,901.4375,895.5,905.4375,905.5,909.4375,901.5,905.4375" style="stroke:#181818;stroke-width:1.0;"/><line style="stroke:#181818;stroke-width:1.0;stroke-dasharray:2.0,2.0;" x1="899.5" x2="1076" y1="905.4375" y2="905.4375"/><text fill="#000000" font-family="sans-serif" font-size="13" lengthAdjust="spacing" textLength="45" x="911.5" y="900.5811">booking</text><polygon fill="#181818" points="782.5,931.7891,772.5,935.7891,782.5,939.7891,778.5,935.7891" style="stroke:#181818;stroke-width:1.0;"/><line style="stroke:#181818;stroke-width:1.0;stroke-dasharray:2.0,2.0;" x1="776.5" x2="893.5" y1="935.7891" y2="935.7891"/><text fill="#000000" font-family="sans-serif" font-size="13" lengthAdjust="spacing" textLength="45" x="788.5" y="930.9326">booking</text><path d="M20,950.7891 L81,950.7891 L81,959.1406 L71,969.1406 L20,969.1406 L20,950.7891 " fill="#EEEEEE" style="stroke:#000000;stroke-width:1.5;"/><rect fill="none" height="94.8906" style="stroke:#000000;stroke-width:1.5;" width="809.5" x="20" y="950.7891"/><text fill="#000000" font-family="sans-serif" font-size="13" font-weight="bold" lengthAdjust="spacing" textLength="16" x="35" y="965.2842">alt</text><text fill="#000000" font-family="sans-serif" font-size="11" font-weight="bold" lengthAdjust="spacing" textLength="215" x="96" y="964.208">[The date is not during May 10-13, 2022]</text><polygon fill="#181818" points="66,987.4922,56,991.4922,66,995.4922,62,991.4922" style="stroke:#181818;stroke-width:1.0;"/><line style="stroke:#181818;stroke-width:1.0;" x1="60" x2="770.5" y1="991.4922" y2="991.4922"/><text fill="#000000" font-family="sans-serif" font-size="13" lengthAdjust="spacing" textLength="73" x="72" y="986.6357">response fail</text><line style="stroke:#000000;stroke-width:1.0;stroke-dasharray:2.0,2.0;" x1="20" x2="829.5" y1="1000.4922" y2="1000.4922"/><a href="success" target="_top" title="success" xlink:actuate="onRequest" xlink:href="success" xlink:show="new" xlink:title="success" xlink:type="simple"><text fill="#0000FF" font-family="sans-serif" font-size="11" font-weight="bold" lengthAdjust="spacing" text-decoration="underline" textLength="47" x="25" y="1011.9111">success</text></a><polygon fill="#181818" points="66,1033.6797,56,1037.6797,66,1041.6797,62,1037.6797" style="stroke:#181818;stroke-width:1.0;"/><line style="stroke:#181818;stroke-width:1.0;" x1="60" x2="770.5" y1="1037.6797" y2="1037.6797"/><text fill="#000000" font-family="sans-serif" font-size="13" lengthAdjust="spacing" textLength="53" x="72" y="1032.8232">response</text><text fill="#888888" font-family="sans-serif" font-size="10" lengthAdjust="spacing" textLength="132" x="1005.5" y="15.3809">Online Job Fair Registration</text><!--SRC=[bLHTRzem57tthx3oGg8Irh8tXl90gqcRL7KQxLFPWx4lu3ROcUsqOxz-_ae88Kmg4ihrzJadr_VSU0U4WS8FekG2y7Uvnby9L_WdRBasYXWk1JBSb82JMmN402PuoSNM9XPIlje8fpyUbezPWb15bE6KLqGOYouv29DWeZ7ruUdsVFv2tiYIAbwPebY9cGRr1ihZGzZ7AraRK1vBvTvcEMWF3nktJUu_l7Mek4kBXpXZxJbZ9RmJ1Pv9QhFpB1VqiQvUJWFmvJsSsJxxC2g5KR8iGUdpQZgR5qkI34hFZ0XFzDcOkCnuqh6tFkLMY153raI30zx5s6FlfTZAkuM7DnjBkeCzGIXOcHV18dnrDLFmUr99RTBHIdngZR5nTEdmZTb5SzPHXW8rBtgsEIrILPDQmoKfknYDyKgqgmprH1hLfeM-G9zfTOVBShBDeb5jHVB2s-x4AYKDK9Dco6ViZZNQRTWZySqXDV8LnDXEC5LW8cYUUr2UpnXGstw642aDVhOVMlaBOViBNNN0e9hRhkfA2clEne8Gb3PwNjQKWjQ1qho-zTCLiU62BUp9qlYYCUOiy_0Zp79EJNL4jnCjFaNFyxmFjzNLRdxQAXocev_xaMWXlLvspYZWZsla4AhJSVUKYl-5D25ipqKoJX8ddWshVqZUeWXZCPrc9uqT-207yGEulEX-b8uLmmdrLsYQVJcskKKLvxOqLsp7cZCp2jn_6Ow3VAcyes4DgRcAGhFSS3xk03DtstEDXJIOrSe1xya1trpdDv_7U7ezdNhunIR4gJwRPaS84wsx4_q1dI0X67B_Vm00]--></g></svg>