<?xml version="1.0" encoding="us-ascii" standalone="no"?><svg xmlns="http://www.w3.org/2000/svg" xmlns:xlink="http://www.w3.org/1999/xlink" contentStyleType="text/css" height="910px" preserveAspectRatio="none" style="width:1209px;height:910px;background:#FFFFFF;" version="1.1" viewBox="0 0 1209 910" width="1209px" zoomAndPan="magnify"><defs/><g><text fill="#000000" font-family="sans-serif" font-size="14" font-weight="bold" lengthAdjust="spacing" textLength="213" x="494" y="43.1113">Update a Single Booking (PUT)</text><rect fill="#FFFFFF" height="633.8672" style="stroke:#181818;stroke-width:1.0;" width="10" x="190" y="170.7578"/><rect fill="#FFFFFF" height="603.5156" style="stroke:#181818;stroke-width:1.0;" width="10" x="394.5" y="201.1094"/><rect fill="#FFFFFF" height="212.4609" style="stroke:#181818;stroke-width:1.0;" width="10" x="568.5" y="231.4609"/><rect fill="#FFFFFF" height="30.3516" style="stroke:#181818;stroke-width:1.0;" width="10" x="568.5" y="474.2734"/><rect fill="#FFFFFF" height="269.6484" style="stroke:#181818;stroke-width:1.0;" width="10" x="568.5" y="534.9766"/><rect fill="#FFFFFF" height="30.3516" style="stroke:#181818;stroke-width:1.0;" width="10" x="710.5" y="261.8125"/><rect fill="#FFFFFF" height="177.1094" style="stroke:#181818;stroke-width:1.0;" width="10" x="806" y="565.3281"/><rect fill="#FFFFFF" height="91.0547" style="stroke:#181818;stroke-width:1.0;" width="10" x="968" y="595.6797"/><rect fill="#FFFFFF" height="91.0547" style="stroke:#181818;stroke-width:1.0;" width="10" x="1046.5" y="322.5156"/><rect fill="#FFFFFF" height="30.3516" style="stroke:#181818;stroke-width:1.0;" width="10" x="1150.5" y="352.8672"/><rect fill="#FFFFFF" height="30.3516" style="stroke:#181818;stroke-width:1.0;" width="10" x="1150.5" y="626.0313"/><rect fill="none" height="94.8906" style="stroke:#000000;stroke-width:1.5;" width="859" x="10" y="701.7344"/><line style="stroke:#181818;stroke-width:0.5;stroke-dasharray:5.0,5.0;" x1="45" x2="45" y1="138.4063" y2="813.625"/><line style="stroke:#181818;stroke-width:0.5;stroke-dasharray:5.0,5.0;" x1="195" x2="195" y1="138.4063" y2="813.625"/><line style="stroke:#181818;stroke-width:0.5;stroke-dasharray:5.0,5.0;" x1="301" x2="301" y1="138.4063" y2="813.625"/><line style="stroke:#181818;stroke-width:0.5;stroke-dasharray:5.0,5.0;" x1="399" x2="399" y1="138.4063" y2="813.625"/><line style="stroke:#181818;stroke-width:0.5;stroke-dasharray:5.0,5.0;" x1="573" x2="573" y1="138.4063" y2="813.625"/><line style="stroke:#181818;stroke-width:0.5;stroke-dasharray:5.0,5.0;" x1="715" x2="715" y1="138.4063" y2="813.625"/><line style="stroke:#181818;stroke-width:0.5;stroke-dasharray:5.0,5.0;" x1="811" x2="811" y1="138.4063" y2="813.625"/><line style="stroke:#181818;stroke-width:0.5;stroke-dasharray:5.0,5.0;" x1="972.5" x2="972.5" y1="138.4063" y2="813.625"/><line style="stroke:#181818;stroke-width:0.5;stroke-dasharray:5.0,5.0;" x1="1051.5" x2="1051.5" y1="138.4063" y2="813.625"/><line style="stroke:#181818;stroke-width:0.5;stroke-dasharray:5.0,5.0;" x1="1155" x2="1155" y1="138.4063" y2="813.625"/><rect fill="#E2E2F0" height="31.6094" rx="2.5" ry="2.5" style="stroke:#181818;stroke-width:0.5;" width="50" x="20" y="105.7969"/><text fill="#000000" font-family="sans-serif" font-size="14" lengthAdjust="spacing" textLength="36" x="27" y="127.3301">Client</text><rect fill="#E2E2F0" height="31.6094" rx="2.5" ry="2.5" style="stroke:#181818;stroke-width:0.5;" width="50" x="20" y="812.625"/><text fill="#000000" font-family="sans-serif" font-size="14" lengthAdjust="spacing" textLength="36" x="27" y="834.1582">Client</text><rect fill="#E2E2F0" height="49.2188" rx="2.5" ry="2.5" style="stroke:#181818;stroke-width:0.5;" width="92" x="149" y="88.1875"/><text fill="#000000" font-family="sans-serif" font-size="14" lengthAdjust="spacing" textLength="78" x="156" y="109.7207">&#171;javaScript&#187;</text><text fill="#000000" font-family="sans-serif" font-size="14" lengthAdjust="spacing" textLength="44" x="173" y="127.3301">:server</text><rect fill="#E2E2F0" height="49.2188" rx="2.5" ry="2.5" style="stroke:#181818;stroke-width:0.5;" width="92" x="149" y="812.625"/><text fill="#000000" font-family="sans-serif" font-size="14" lengthAdjust="spacing" textLength="78" x="156" y="834.1582">&#171;javaScript&#187;</text><text fill="#000000" font-family="sans-serif" font-size="14" lengthAdjust="spacing" textLength="44" x="173" y="851.7676">:server</text><rect fill="#E2E2F0" height="49.2188" rx="2.5" ry="2.5" style="stroke:#181818;stroke-width:0.5;" width="101" x="251" y="88.1875"/><text fill="#000000" font-family="sans-serif" font-size="14" lengthAdjust="spacing" textLength="87" x="258" y="109.7207">&#171;middleware&#187;</text><text fill="#000000" font-family="sans-serif" font-size="14" lengthAdjust="spacing" textLength="29" x="287" y="127.3301">:mail</text><rect fill="#E2E2F0" height="49.2188" rx="2.5" ry="2.5" style="stroke:#181818;stroke-width:0.5;" width="101" x="251" y="812.625"/><text fill="#000000" font-family="sans-serif" font-size="14" lengthAdjust="spacing" textLength="87" x="258" y="834.1582">&#171;middleware&#187;</text><text fill="#000000" font-family="sans-serif" font-size="14" lengthAdjust="spacing" textLength="29" x="287" y="851.7676">:mail</text><rect fill="#E2E2F0" height="49.2188" rx="2.5" ry="2.5" style="stroke:#181818;stroke-width:0.5;" width="75" x="362" y="88.1875"/><text fill="#000000" font-family="sans-serif" font-size="14" lengthAdjust="spacing" textLength="54" x="372.5" y="109.7207">&#171;router&#187;</text><text fill="#000000" font-family="sans-serif" font-size="14" lengthAdjust="spacing" textLength="61" x="369" y="127.3301">:bookings</text><rect fill="#E2E2F0" height="49.2188" rx="2.5" ry="2.5" style="stroke:#181818;stroke-width:0.5;" width="75" x="362" y="812.625"/><text fill="#000000" font-family="sans-serif" font-size="14" lengthAdjust="spacing" textLength="54" x="372.5" y="834.1582">&#171;router&#187;</text><text fill="#000000" font-family="sans-serif" font-size="14" lengthAdjust="spacing" textLength="61" x="369" y="851.7676">:bookings</text><rect fill="#E2E2F0" height="49.2188" rx="2.5" ry="2.5" style="stroke:#181818;stroke-width:0.5;" width="101" x="523" y="88.1875"/><text fill="#000000" font-family="sans-serif" font-size="14" lengthAdjust="spacing" textLength="87" x="530" y="109.7207">&#171;middleware&#187;</text><text fill="#000000" font-family="sans-serif" font-size="14" lengthAdjust="spacing" textLength="32" x="557.5" y="127.3301">:auth</text><rect fill="#E2E2F0" height="49.2188" rx="2.5" ry="2.5" style="stroke:#181818;stroke-width:0.5;" width="101" x="523" y="812.625"/><text fill="#000000" font-family="sans-serif" font-size="14" lengthAdjust="spacing" textLength="87" x="530" y="834.1582">&#171;middleware&#187;</text><text fill="#000000" font-family="sans-serif" font-size="14" lengthAdjust="spacing" textLength="32" x="557.5" y="851.7676">:auth</text><rect fill="#E2E2F0" height="49.2188" rx="2.5" ry="2.5" style="stroke:#181818;stroke-width:0.5;" width="75" x="678" y="88.1875"/><text fill="#000000" font-family="sans-serif" font-size="14" lengthAdjust="spacing" textLength="61" x="685" y="109.7207">&#171;service&#187;</text><text fill="#000000" font-family="sans-serif" font-size="14" lengthAdjust="spacing" textLength="20" x="705.5" y="127.3301">:jwt</text><rect fill="#E2E2F0" height="49.2188" rx="2.5" ry="2.5" style="stroke:#181818;stroke-width:0.5;" width="75" x="678" y="812.625"/><text fill="#000000" font-family="sans-serif" font-size="14" lengthAdjust="spacing" textLength="61" x="685" y="834.1582">&#171;service&#187;</text><text fill="#000000" font-family="sans-serif" font-size="14" lengthAdjust="spacing" textLength="20" x="705.5" y="851.7676">:jwt</text><rect fill="#E2E2F0" height="49.2188" rx="2.5" ry="2.5" style="stroke:#181818;stroke-width:0.5;" width="96" x="763" y="88.1875"/><text fill="#000000" font-family="sans-serif" font-size="14" lengthAdjust="spacing" textLength="82" x="770" y="109.7207">&#171;controllers&#187;</text><text fill="#000000" font-family="sans-serif" font-size="14" lengthAdjust="spacing" textLength="61" x="780.5" y="127.3301">:bookings</text><rect fill="#E2E2F0" height="49.2188" rx="2.5" ry="2.5" style="stroke:#181818;stroke-width:0.5;" width="96" x="763" y="812.625"/><text fill="#000000" font-family="sans-serif" font-size="14" lengthAdjust="spacing" textLength="82" x="770" y="834.1582">&#171;controllers&#187;</text><text fill="#000000" font-family="sans-serif" font-size="14" lengthAdjust="spacing" textLength="61" x="780.5" y="851.7676">:bookings</text><rect fill="#E2E2F0" height="49.2188" rx="2.5" ry="2.5" style="stroke:#181818;stroke-width:0.5;" width="69" x="938.5" y="88.1875"/><text fill="#000000" font-family="sans-serif" font-size="14" lengthAdjust="spacing" textLength="54" x="946" y="109.7207">&#171;model&#187;</text><text fill="#000000" font-family="sans-serif" font-size="14" lengthAdjust="spacing" textLength="55" x="945.5" y="127.3301">:Booking</text><rect fill="#E2E2F0" height="49.2188" rx="2.5" ry="2.5" style="stroke:#181818;stroke-width:0.5;" width="69" x="938.5" y="812.625"/><text fill="#000000" font-family="sans-serif" font-size="14" lengthAdjust="spacing" textLength="54" x="946" y="834.1582">&#171;model&#187;</text><text fill="#000000" font-family="sans-serif" font-size="14" lengthAdjust="spacing" textLength="55" x="945.5" y="851.7676">:Booking</text><rect fill="#E2E2F0" height="49.2188" rx="2.5" ry="2.5" style="stroke:#181818;stroke-width:0.5;" width="68" x="1017.5" y="88.1875"/><text fill="#000000" font-family="sans-serif" font-size="14" lengthAdjust="spacing" textLength="54" x="1024.5" y="109.7207">&#171;model&#187;</text><text fill="#000000" font-family="sans-serif" font-size="14" lengthAdjust="spacing" textLength="33" x="1035" y="127.3301">:User</text><rect fill="#E2E2F0" height="49.2188" rx="2.5" ry="2.5" style="stroke:#181818;stroke-width:0.5;" width="68" x="1017.5" y="812.625"/><text fill="#000000" font-family="sans-serif" font-size="14" lengthAdjust="spacing" textLength="54" x="1024.5" y="834.1582">&#171;model&#187;</text><text fill="#000000" font-family="sans-serif" font-size="14" lengthAdjust="spacing" textLength="33" x="1035" y="851.7676">:User</text><text fill="#000000" font-family="sans-serif" font-size="14" lengthAdjust="spacing" textLength="77" x="1114" y="117.7207">&#171;Database&#187;</text><text fill="#000000" font-family="sans-serif" font-size="14" lengthAdjust="spacing" textLength="66" x="1119.5" y="135.3301">:MongoDB</text><path d="M1137.5,67.1875 C1137.5,57.1875 1155.5,57.1875 1155.5,57.1875 C1155.5,57.1875 1173.5,57.1875 1173.5,67.1875 L1173.5,93.1875 C1173.5,103.1875 1155.5,103.1875 1155.5,103.1875 C1155.5,103.1875 1137.5,103.1875 1137.5,93.1875 L1137.5,67.1875 " fill="#E2E2F0" style="stroke:#181818;stroke-width:1.5;"/><path d="M1137.5,67.1875 C1137.5,77.1875 1155.5,77.1875 1155.5,77.1875 C1155.5,77.1875 1173.5,77.1875 1173.5,67.1875 " fill="none" style="stroke:#181818;stroke-width:1.5;"/><text fill="#000000" font-family="sans-serif" font-size="14" lengthAdjust="spacing" textLength="77" x="1114" y="827.1582">&#171;Database&#187;</text><text fill="#000000" font-family="sans-serif" font-size="14" lengthAdjust="spacing" textLength="66" x="1119.5" y="844.7676">:MongoDB</text><path d="M1137.5,857.8438 C1137.5,847.8438 1155.5,847.8438 1155.5,847.8438 C1155.5,847.8438 1173.5,847.8438 1173.5,857.8438 L1173.5,883.8438 C1173.5,893.8438 1155.5,893.8438 1155.5,893.8438 C1155.5,893.8438 1137.5,893.8438 1137.5,883.8438 L1137.5,857.8438 " fill="#E2E2F0" style="stroke:#181818;stroke-width:1.5;"/><path d="M1137.5,857.8438 C1137.5,867.8438 1155.5,867.8438 1155.5,867.8438 C1155.5,867.8438 1173.5,867.8438 1173.5,857.8438 " fill="none" style="stroke:#181818;stroke-width:1.5;"/><rect fill="#FFFFFF" height="633.8672" style="stroke:#181818;stroke-width:1.0;" width="10" x="190" y="170.7578"/><rect fill="#FFFFFF" height="603.5156" style="stroke:#181818;stroke-width:1.0;" width="10" x="394.5" y="201.1094"/><rect fill="#FFFFFF" height="212.4609" style="stroke:#181818;stroke-width:1.0;" width="10" x="568.5" y="231.4609"/><rect fill="#FFFFFF" height="30.3516" style="stroke:#181818;stroke-width:1.0;" width="10" x="568.5" y="474.2734"/><rect fill="#FFFFFF" height="269.6484" style="stroke:#181818;stroke-width:1.0;" width="10" x="568.5" y="534.9766"/><rect fill="#FFFFFF" height="30.3516" style="stroke:#181818;stroke-width:1.0;" width="10" x="710.5" y="261.8125"/><rect fill="#FFFFFF" height="177.1094" style="stroke:#181818;stroke-width:1.0;" width="10" x="806" y="565.3281"/><rect fill="#FFFFFF" height="91.0547" style="stroke:#181818;stroke-width:1.0;" width="10" x="968" y="595.6797"/><rect fill="#FFFFFF" height="91.0547" style="stroke:#181818;stroke-width:1.0;" width="10" x="1046.5" y="322.5156"/><rect fill="#FFFFFF" height="30.3516" style="stroke:#181818;stroke-width:1.0;" width="10" x="1150.5" y="352.8672"/><rect fill="#FFFFFF" height="30.3516" style="stroke:#181818;stroke-width:1.0;" width="10" x="1150.5" y="626.0313"/><polygon fill="#181818" points="178,166.7578,188,170.7578,178,174.7578,182,170.7578" style="stroke:#181818;stroke-width:1.0;"/><line style="stroke:#181818;stroke-width:1.0;" x1="45" x2="184" y1="170.7578" y2="170.7578"/><text fill="#000000" font-family="sans-serif" font-size="13" lengthAdjust="spacing" textLength="126" x="52" y="165.9014">req.put('/bookings/:id')</text><polygon fill="#181818" points="382.5,197.1094,392.5,201.1094,382.5,205.1094,386.5,201.1094" style="stroke:#181818;stroke-width:1.0;"/><line style="stroke:#181818;stroke-width:1.0;" x1="200" x2="388.5" y1="201.1094" y2="201.1094"/><text fill="#000000" font-family="sans-serif" font-size="13" lengthAdjust="spacing" textLength="174" x="207" y="196.2529">app.use('/bookings', bookings)</text><polygon fill="#181818" points="556.5,227.4609,566.5,231.4609,556.5,235.4609,560.5,231.4609" style="stroke:#181818;stroke-width:1.0;"/><line style="stroke:#181818;stroke-width:1.0;" x1="404.5" x2="562.5" y1="231.4609" y2="231.4609"/><text fill="#000000" font-family="sans-serif" font-size="13" lengthAdjust="spacing" textLength="48" x="411.5" y="226.6045">protect()</text><polygon fill="#181818" points="698.5,257.8125,708.5,261.8125,698.5,265.8125,702.5,261.8125" style="stroke:#181818;stroke-width:1.0;"/><line style="stroke:#181818;stroke-width:1.0;" x1="578.5" x2="704.5" y1="261.8125" y2="261.8125"/><text fill="#000000" font-family="sans-serif" font-size="13" lengthAdjust="spacing" textLength="113" x="585.5" y="256.9561">verify(token, secret)</text><polygon fill="#181818" points="589.5,288.1641,579.5,292.1641,589.5,296.1641,585.5,292.1641" style="stroke:#181818;stroke-width:1.0;"/><line style="stroke:#181818;stroke-width:1.0;" x1="583.5" x2="714.5" y1="292.1641" y2="292.1641"/><text fill="#000000" font-family="sans-serif" font-size="13" lengthAdjust="spacing" textLength="49" x="595.5" y="287.3076">decoded</text><polygon fill="#181818" points="1034.5,318.5156,1044.5,322.5156,1034.5,326.5156,1038.5,322.5156" style="stroke:#181818;stroke-width:1.0;"/><line style="stroke:#181818;stroke-width:1.0;" x1="578.5" x2="1040.5" y1="322.5156" y2="322.5156"/><text fill="#000000" font-family="sans-serif" font-size="13" lengthAdjust="spacing" textLength="121" x="585.5" y="317.6592">findById(decoded, id)</text><polygon fill="#181818" points="1138.5,348.8672,1148.5,352.8672,1138.5,356.8672,1142.5,352.8672" style="stroke:#181818;stroke-width:1.0;"/><line style="stroke:#181818;stroke-width:1.0;" x1="1056.5" x2="1144.5" y1="352.8672" y2="352.8672"/><text fill="#000000" font-family="sans-serif" font-size="13" lengthAdjust="spacing" textLength="75" x="1063.5" y="348.0107">UserSchema</text><polygon fill="#181818" points="1067.5,379.2188,1057.5,383.2188,1067.5,387.2188,1063.5,383.2188" style="stroke:#181818;stroke-width:1.0;"/><line style="stroke:#181818;stroke-width:1.0;" x1="1061.5" x2="1154.5" y1="383.2188" y2="383.2188"/><text fill="#000000" font-family="sans-serif" font-size="13" lengthAdjust="spacing" textLength="25" x="1073.5" y="378.3623">user</text><polygon fill="#181818" points="589.5,409.5703,579.5,413.5703,589.5,417.5703,585.5,413.5703" style="stroke:#181818;stroke-width:1.0;"/><line style="stroke:#181818;stroke-width:1.0;" x1="583.5" x2="1050.5" y1="413.5703" y2="413.5703"/><text fill="#000000" font-family="sans-serif" font-size="13" lengthAdjust="spacing" textLength="47" x="595.5" y="408.7139">req.user</text><polygon fill="#181818" points="415.5,439.9219,405.5,443.9219,415.5,447.9219,411.5,443.9219" style="stroke:#181818;stroke-width:1.0;"/><line style="stroke:#181818;stroke-width:1.0;" x1="409.5" x2="572.5" y1="443.9219" y2="443.9219"/><text fill="#000000" font-family="sans-serif" font-size="13" lengthAdjust="spacing" textLength="33" x="421.5" y="439.0654">next()</text><polygon fill="#181818" points="556.5,470.2734,566.5,474.2734,556.5,478.2734,560.5,474.2734" style="stroke:#181818;stroke-width:1.0;"/><line style="stroke:#181818;stroke-width:1.0;" x1="404.5" x2="562.5" y1="474.2734" y2="474.2734"/><text fill="#000000" font-family="sans-serif" font-size="13" lengthAdjust="spacing" textLength="145" x="411.5" y="469.417">authorize("admin",""user)</text><polygon fill="#181818" points="415.5,500.625,405.5,504.625,415.5,508.625,411.5,504.625" style="stroke:#181818;stroke-width:1.0;"/><line style="stroke:#181818;stroke-width:1.0;stroke-dasharray:2.0,2.0;" x1="409.5" x2="572.5" y1="504.625" y2="504.625"/><text fill="#000000" font-family="sans-serif" font-size="13" lengthAdjust="spacing" textLength="33" x="421.5" y="499.7686">next()</text><polygon fill="#181818" points="556.5,530.9766,566.5,534.9766,556.5,538.9766,560.5,534.9766" style="stroke:#181818;stroke-width:1.0;"/><line style="stroke:#181818;stroke-width:1.0;" x1="404.5" x2="562.5" y1="534.9766" y2="534.9766"/><text fill="#000000" font-family="sans-serif" font-size="13" lengthAdjust="spacing" textLength="94" x="411.5" y="530.1201">updateBooking()</text><polygon fill="#181818" points="794,561.3281,804,565.3281,794,569.3281,798,565.3281" style="stroke:#181818;stroke-width:1.0;"/><line style="stroke:#181818;stroke-width:1.0;" x1="578.5" x2="800" y1="565.3281" y2="565.3281"/><text fill="#000000" font-family="sans-serif" font-size="13" lengthAdjust="spacing" textLength="94" x="585.5" y="560.4717">updateBooking()</text><polygon fill="#181818" points="956,591.6797,966,595.6797,956,599.6797,960,595.6797" style="stroke:#181818;stroke-width:1.0;"/><line style="stroke:#181818;stroke-width:1.0;" x1="816" x2="962" y1="595.6797" y2="595.6797"/><text fill="#000000" font-family="sans-serif" font-size="13" lengthAdjust="spacing" textLength="133" x="823" y="590.8232">findById(req.params.id)</text><polygon fill="#181818" points="1138.5,622.0313,1148.5,626.0313,1138.5,630.0313,1142.5,626.0313" style="stroke:#181818;stroke-width:1.0;"/><line style="stroke:#181818;stroke-width:1.0;" x1="978" x2="1144.5" y1="626.0313" y2="626.0313"/><text fill="#000000" font-family="sans-serif" font-size="13" lengthAdjust="spacing" textLength="95" x="985" y="621.1748">BookingSchema</text><polygon fill="#181818" points="989,652.3828,979,656.3828,989,660.3828,985,656.3828" style="stroke:#181818;stroke-width:1.0;"/><line style="stroke:#181818;stroke-width:1.0;stroke-dasharray:2.0,2.0;" x1="983" x2="1154.5" y1="656.3828" y2="656.3828"/><text fill="#000000" font-family="sans-serif" font-size="13" lengthAdjust="spacing" textLength="45" x="995" y="651.5264">booking</text><polygon fill="#181818" points="827,682.7344,817,686.7344,827,690.7344,823,686.7344" style="stroke:#181818;stroke-width:1.0;"/><line style="stroke:#181818;stroke-width:1.0;stroke-dasharray:2.0,2.0;" x1="821" x2="972" y1="686.7344" y2="686.7344"/><text fill="#000000" font-family="sans-serif" font-size="13" lengthAdjust="spacing" textLength="45" x="833" y="681.8779">booking</text><path d="M10,701.7344 L71,701.7344 L71,710.0859 L61,720.0859 L10,720.0859 L10,701.7344 " fill="#EEEEEE" style="stroke:#000000;stroke-width:1.5;"/><rect fill="none" height="94.8906" style="stroke:#000000;stroke-width:1.5;" width="859" x="10" y="701.7344"/><text fill="#000000" font-family="sans-serif" font-size="13" font-weight="bold" lengthAdjust="spacing" textLength="16" x="25" y="716.2295">alt</text><text fill="#000000" font-family="sans-serif" font-size="11" font-weight="bold" lengthAdjust="spacing" textLength="215" x="86" y="715.1533">[The date is not during May 10-13, 2022]</text><polygon fill="#181818" points="56,738.4375,46,742.4375,56,746.4375,52,742.4375" style="stroke:#181818;stroke-width:1.0;"/><line style="stroke:#181818;stroke-width:1.0;" x1="50" x2="810" y1="742.4375" y2="742.4375"/><text fill="#000000" font-family="sans-serif" font-size="13" lengthAdjust="spacing" textLength="73" x="62" y="737.5811">response fail</text><line style="stroke:#000000;stroke-width:1.0;stroke-dasharray:2.0,2.0;" x1="10" x2="869" y1="751.4375" y2="751.4375"/><a href="success" target="_top" title="success" xlink:actuate="onRequest" xlink:href="success" xlink:show="new" xlink:title="success" xlink:type="simple"><text fill="#0000FF" font-family="sans-serif" font-size="11" font-weight="bold" lengthAdjust="spacing" text-decoration="underline" textLength="47" x="15" y="762.8564">success</text></a><polygon fill="#181818" points="56,784.625,46,788.625,56,792.625,52,788.625" style="stroke:#181818;stroke-width:1.0;"/><line style="stroke:#181818;stroke-width:1.0;" x1="50" x2="810" y1="788.625" y2="788.625"/><text fill="#000000" font-family="sans-serif" font-size="13" lengthAdjust="spacing" textLength="53" x="62" y="783.7686">response</text><text fill="#888888" font-family="sans-serif" font-size="10" lengthAdjust="spacing" textLength="132" x="1069" y="15.3809">Online Job Fair Registration</text><!--SRC=[bPHDRzim38Rl-XM2Bx7HA6spcn7ua1K3Dg3OiBIdRWT6OXArZkH9ShlirqyVTfeuwORcOePyI96lFZO80Wtzgcgfa7xHI_e9fA7VSIsjC-2aLiH9LoFDxXi13YdGXLHhxvXh_UGjcd-xloioGXemJdBPW78q-rXBL2wZO2cFvd5uDdk4PrXm8njNLJzKQT4yeubyCeVyLWfHumiOZFmMP1tfO0nPerk79dBBrAIDRF9tVTl_h02jsyIiO0pPqAFa2NnyINFwxn3ZMZcZwngDFUtc8FXcIrfW7JCx8eqSl9tZxOnxs-aPNU4VyVi7Ix0Om9lEZkojLcjzCuzu7rZm3Mw1aBHzh4hRGYykIeE_9athyj5bFyzbASMe80bXrR7E8GMQPj9QF4WPZMbl5cIGmAeeUaXiZ7R8NLwGwF4HBtC8-8NaQfSx_OHgxCyCD-WwQCOYn5WfaFlXnJvtBqMei99Ap7UVHTvHOof5GLuHpnzh4P92f5FcbVGB3aY_TXiKx_ivgCgYVZ4w6DjpgL5MAlmTPlw7CE6hZVo3UGPYArKsph9Gj3Yj-fwoRRpaNUH0zJE7zHn-1cFLuNaz4ZuU932mjPEzz3t7gbFn-oUdsu0JpIjwN8AL_HaxrrXKPfZGymHgH-ysIEER9orLsb7Hce3TmevUNx7h3sCwlPfE2VM_iuEdgvEst3PQ-Pkt2iyLrjvwi2tdQEtFz-GJL8By1G00]--></g></svg>