<?xml version="1.0" encoding="us-ascii" standalone="no"?><svg xmlns="http://www.w3.org/2000/svg" xmlns:xlink="http://www.w3.org/1999/xlink" contentStyleType="text/css" height="1009px" preserveAspectRatio="none" style="width:1110px;height:1009px;background:#FFFFFF;" version="1.1" viewBox="0 0 1110 1009" width="1110px" zoomAndPan="magnify"><defs/><g><text fill="#000000" font-family="sans-serif" font-size="14" font-weight="bold" lengthAdjust="spacing" textLength="220" x="441.25" y="43.1113">Create a Single Booking (POST)</text><rect fill="#FFFFFF" height="683.7891" style="stroke:#181818;stroke-width:1.0;" width="10" x="120" y="219.8125"/><rect fill="#FFFFFF" height="604.3828" style="stroke:#181818;stroke-width:1.0;" width="10" x="230" y="299.2188"/><rect fill="#FFFFFF" height="524.9766" style="stroke:#181818;stroke-width:1.0;" width="10" x="330" y="378.625"/><rect fill="#FFFFFF" height="212.4609" style="stroke:#181818;stroke-width:1.0;" width="10" x="504" y="408.9766"/><rect fill="#FFFFFF" height="30.3516" style="stroke:#181818;stroke-width:1.0;" width="10" x="504" y="651.7891"/><rect fill="#FFFFFF" height="191.1094" style="stroke:#181818;stroke-width:1.0;" width="10" x="504" y="712.4922"/><rect fill="#FFFFFF" height="30.3516" style="stroke:#181818;stroke-width:1.0;" width="10" x="646" y="439.3281"/><rect fill="#FFFFFF" height="151.7578" style="stroke:#181818;stroke-width:1.0;" width="10" x="741.5" y="742.8438"/><rect fill="#FFFFFF" height="130.4063" style="stroke:#181818;stroke-width:1.0;" width="10" x="869.5" y="773.1953"/><rect fill="#FFFFFF" height="91.0547" style="stroke:#181818;stroke-width:1.0;" width="10" x="948" y="500.0313"/><rect fill="#FFFFFF" height="30.3516" style="stroke:#181818;stroke-width:1.0;" width="10" x="1052" y="530.3828"/><rect fill="#FFFFFF" height="30.3516" style="stroke:#181818;stroke-width:1.0;" width="10" x="1052" y="803.5469"/><line style="stroke:#181818;stroke-width:0.5;stroke-dasharray:5.0,5.0;" x1="30" x2="30" y1="138.4063" y2="912.6016"/><line style="stroke:#181818;stroke-width:0.5;stroke-dasharray:5.0,5.0;" x1="125" x2="125" y1="138.4063" y2="912.6016"/><line style="stroke:#181818;stroke-width:0.5;stroke-dasharray:5.0,5.0;" x1="235" x2="235" y1="138.4063" y2="912.6016"/><line style="stroke:#181818;stroke-width:0.5;stroke-dasharray:5.0,5.0;" x1="334.5" x2="334.5" y1="138.4063" y2="912.6016"/><line style="stroke:#181818;stroke-width:0.5;stroke-dasharray:5.0,5.0;" x1="508.5" x2="508.5" y1="138.4063" y2="912.6016"/><line style="stroke:#181818;stroke-width:0.5;stroke-dasharray:5.0,5.0;" x1="650.5" x2="650.5" y1="138.4063" y2="912.6016"/><line style="stroke:#181818;stroke-width:0.5;stroke-dasharray:5.0,5.0;" x1="746.5" x2="746.5" y1="138.4063" y2="912.6016"/><line style="stroke:#181818;stroke-width:0.5;stroke-dasharray:5.0,5.0;" x1="874" x2="874" y1="138.4063" y2="912.6016"/><line style="stroke:#181818;stroke-width:0.5;stroke-dasharray:5.0,5.0;" x1="953" x2="953" y1="138.4063" y2="912.6016"/><line style="stroke:#181818;stroke-width:0.5;stroke-dasharray:5.0,5.0;" x1="1056.5" x2="1056.5" y1="138.4063" y2="912.6016"/><rect fill="#E2E2F0" height="31.6094" rx="2.5" ry="2.5" style="stroke:#181818;stroke-width:0.5;" width="50" x="5" y="105.7969"/><text fill="#000000" font-family="sans-serif" font-size="14" lengthAdjust="spacing" textLength="36" x="12" y="127.3301">Client</text><rect fill="#E2E2F0" height="31.6094" rx="2.5" ry="2.5" style="stroke:#181818;stroke-width:0.5;" width="50" x="5" y="911.6016"/><text fill="#000000" font-family="sans-serif" font-size="14" lengthAdjust="spacing" textLength="36" x="12" y="933.1348">Client</text><rect fill="#E2E2F0" height="49.2188" rx="2.5" ry="2.5" style="stroke:#181818;stroke-width:0.5;" width="92" x="79" y="88.1875"/><text fill="#000000" font-family="sans-serif" font-size="14" lengthAdjust="spacing" textLength="78" x="86" y="109.7207">&#171;javaScript&#187;</text><text fill="#000000" font-family="sans-serif" font-size="14" lengthAdjust="spacing" textLength="44" x="103" y="127.3301">:server</text><rect fill="#E2E2F0" height="49.2188" rx="2.5" ry="2.5" style="stroke:#181818;stroke-width:0.5;" width="92" x="79" y="911.6016"/><text fill="#000000" font-family="sans-serif" font-size="14" lengthAdjust="spacing" textLength="78" x="86" y="933.1348">&#171;javaScript&#187;</text><text fill="#000000" font-family="sans-serif" font-size="14" lengthAdjust="spacing" textLength="44" x="103" y="950.7441">:server</text><rect fill="#E2E2F0" height="49.2188" rx="2.5" ry="2.5" style="stroke:#181818;stroke-width:0.5;" width="86" x="192" y="88.1875"/><text fill="#000000" font-family="sans-serif" font-size="14" lengthAdjust="spacing" textLength="54" x="208" y="109.7207">&#171;router&#187;</text><text fill="#000000" font-family="sans-serif" font-size="14" lengthAdjust="spacing" textLength="72" x="199" y="127.3301">:companies</text><rect fill="#E2E2F0" height="49.2188" rx="2.5" ry="2.5" style="stroke:#181818;stroke-width:0.5;" width="86" x="192" y="911.6016"/><text fill="#000000" font-family="sans-serif" font-size="14" lengthAdjust="spacing" textLength="54" x="208" y="933.1348">&#171;router&#187;</text><text fill="#000000" font-family="sans-serif" font-size="14" lengthAdjust="spacing" textLength="72" x="199" y="950.7441">:companies</text><rect fill="#E2E2F0" height="49.2188" rx="2.5" ry="2.5" style="stroke:#181818;stroke-width:0.5;" width="75" x="297.5" y="88.1875"/><text fill="#000000" font-family="sans-serif" font-size="14" lengthAdjust="spacing" textLength="54" x="308" y="109.7207">&#171;router&#187;</text><text fill="#000000" font-family="sans-serif" font-size="14" lengthAdjust="spacing" textLength="61" x="304.5" y="127.3301">:bookings</text><rect fill="#E2E2F0" height="49.2188" rx="2.5" ry="2.5" style="stroke:#181818;stroke-width:0.5;" width="75" x="297.5" y="911.6016"/><text fill="#000000" font-family="sans-serif" font-size="14" lengthAdjust="spacing" textLength="54" x="308" y="933.1348">&#171;router&#187;</text><text fill="#000000" font-family="sans-serif" font-size="14" lengthAdjust="spacing" textLength="61" x="304.5" y="950.7441">:bookings</text><rect fill="#E2E2F0" height="49.2188" rx="2.5" ry="2.5" style="stroke:#181818;stroke-width:0.5;" width="101" x="458.5" y="88.1875"/><text fill="#000000" font-family="sans-serif" font-size="14" lengthAdjust="spacing" textLength="87" x="465.5" y="109.7207">&#171;middleware&#187;</text><text fill="#000000" font-family="sans-serif" font-size="14" lengthAdjust="spacing" textLength="32" x="493" y="127.3301">:auth</text><rect fill="#E2E2F0" height="49.2188" rx="2.5" ry="2.5" style="stroke:#181818;stroke-width:0.5;" width="101" x="458.5" y="911.6016"/><text fill="#000000" font-family="sans-serif" font-size="14" lengthAdjust="spacing" textLength="87" x="465.5" y="933.1348">&#171;middleware&#187;</text><text fill="#000000" font-family="sans-serif" font-size="14" lengthAdjust="spacing" textLength="32" x="493" y="950.7441">:auth</text><rect fill="#E2E2F0" height="49.2188" rx="2.5" ry="2.5" style="stroke:#181818;stroke-width:0.5;" width="75" x="613.5" y="88.1875"/><text fill="#000000" font-family="sans-serif" font-size="14" lengthAdjust="spacing" textLength="61" x="620.5" y="109.7207">&#171;service&#187;</text><text fill="#000000" font-family="sans-serif" font-size="14" lengthAdjust="spacing" textLength="20" x="641" y="127.3301">:jwt</text><rect fill="#E2E2F0" height="49.2188" rx="2.5" ry="2.5" style="stroke:#181818;stroke-width:0.5;" width="75" x="613.5" y="911.6016"/><text fill="#000000" font-family="sans-serif" font-size="14" lengthAdjust="spacing" textLength="61" x="620.5" y="933.1348">&#171;service&#187;</text><text fill="#000000" font-family="sans-serif" font-size="14" lengthAdjust="spacing" textLength="20" x="641" y="950.7441">:jwt</text><rect fill="#E2E2F0" height="49.2188" rx="2.5" ry="2.5" style="stroke:#181818;stroke-width:0.5;" width="96" x="698.5" y="88.1875"/><text fill="#000000" font-family="sans-serif" font-size="14" lengthAdjust="spacing" textLength="82" x="705.5" y="109.7207">&#171;controllers&#187;</text><text fill="#000000" font-family="sans-serif" font-size="14" lengthAdjust="spacing" textLength="61" x="716" y="127.3301">:bookings</text><rect fill="#E2E2F0" height="49.2188" rx="2.5" ry="2.5" style="stroke:#181818;stroke-width:0.5;" width="96" x="698.5" y="911.6016"/><text fill="#000000" font-family="sans-serif" font-size="14" lengthAdjust="spacing" textLength="82" x="705.5" y="933.1348">&#171;controllers&#187;</text><text fill="#000000" font-family="sans-serif" font-size="14" lengthAdjust="spacing" textLength="61" x="716" y="950.7441">:bookings</text><rect fill="#E2E2F0" height="49.2188" rx="2.5" ry="2.5" style="stroke:#181818;stroke-width:0.5;" width="69" x="840" y="88.1875"/><text fill="#000000" font-family="sans-serif" font-size="14" lengthAdjust="spacing" textLength="54" x="847.5" y="109.7207">&#171;model&#187;</text><text fill="#000000" font-family="sans-serif" font-size="14" lengthAdjust="spacing" textLength="55" x="847" y="127.3301">:Booking</text><rect fill="#E2E2F0" height="49.2188" rx="2.5" ry="2.5" style="stroke:#181818;stroke-width:0.5;" width="69" x="840" y="911.6016"/><text fill="#000000" font-family="sans-serif" font-size="14" lengthAdjust="spacing" textLength="54" x="847.5" y="933.1348">&#171;model&#187;</text><text fill="#000000" font-family="sans-serif" font-size="14" lengthAdjust="spacing" textLength="55" x="847" y="950.7441">:Booking</text><rect fill="#E2E2F0" height="49.2188" rx="2.5" ry="2.5" style="stroke:#181818;stroke-width:0.5;" width="68" x="919" y="88.1875"/><text fill="#000000" font-family="sans-serif" font-size="14" lengthAdjust="spacing" textLength="54" x="926" y="109.7207">&#171;model&#187;</text><text fill="#000000" font-family="sans-serif" font-size="14" lengthAdjust="spacing" textLength="33" x="936.5" y="127.3301">:User</text><rect fill="#E2E2F0" height="49.2188" rx="2.5" ry="2.5" style="stroke:#181818;stroke-width:0.5;" width="68" x="919" y="911.6016"/><text fill="#000000" font-family="sans-serif" font-size="14" lengthAdjust="spacing" textLength="54" x="926" y="933.1348">&#171;model&#187;</text><text fill="#000000" font-family="sans-serif" font-size="14" lengthAdjust="spacing" textLength="33" x="936.5" y="950.7441">:User</text><text fill="#000000" font-family="sans-serif" font-size="14" lengthAdjust="spacing" textLength="77" x="1015.5" y="117.7207">&#171;Database&#187;</text><text fill="#000000" font-family="sans-serif" font-size="14" lengthAdjust="spacing" textLength="66" x="1021" y="135.3301">:MongoDB</text><path d="M1039,67.1875 C1039,57.1875 1057,57.1875 1057,57.1875 C1057,57.1875 1075,57.1875 1075,67.1875 L1075,93.1875 C1075,103.1875 1057,103.1875 1057,103.1875 C1057,103.1875 1039,103.1875 1039,93.1875 L1039,67.1875 " fill="#E2E2F0" style="stroke:#181818;stroke-width:1.5;"/><path d="M1039,67.1875 C1039,77.1875 1057,77.1875 1057,77.1875 C1057,77.1875 1075,77.1875 1075,67.1875 " fill="none" style="stroke:#181818;stroke-width:1.5;"/><text fill="#000000" font-family="sans-serif" font-size="14" lengthAdjust="spacing" textLength="77" x="1015.5" y="926.1348">&#171;Database&#187;</text><text fill="#000000" font-family="sans-serif" font-size="14" lengthAdjust="spacing" textLength="66" x="1021" y="943.7441">:MongoDB</text><path d="M1039,956.8203 C1039,946.8203 1057,946.8203 1057,946.8203 C1057,946.8203 1075,946.8203 1075,956.8203 L1075,982.8203 C1075,992.8203 1057,992.8203 1057,992.8203 C1057,992.8203 1039,992.8203 1039,982.8203 L1039,956.8203 " fill="#E2E2F0" style="stroke:#181818;stroke-width:1.5;"/><path d="M1039,956.8203 C1039,966.8203 1057,966.8203 1057,966.8203 C1057,966.8203 1075,966.8203 1075,956.8203 " fill="none" style="stroke:#181818;stroke-width:1.5;"/><rect fill="#FFFFFF" height="683.7891" style="stroke:#181818;stroke-width:1.0;" width="10" x="120" y="219.8125"/><rect fill="#FFFFFF" height="604.3828" style="stroke:#181818;stroke-width:1.0;" width="10" x="230" y="299.2188"/><rect fill="#FFFFFF" height="524.9766" style="stroke:#181818;stroke-width:1.0;" width="10" x="330" y="378.625"/><rect fill="#FFFFFF" height="212.4609" style="stroke:#181818;stroke-width:1.0;" width="10" x="504" y="408.9766"/><rect fill="#FFFFFF" height="30.3516" style="stroke:#181818;stroke-width:1.0;" width="10" x="504" y="651.7891"/><rect fill="#FFFFFF" height="191.1094" style="stroke:#181818;stroke-width:1.0;" width="10" x="504" y="712.4922"/><rect fill="#FFFFFF" height="30.3516" style="stroke:#181818;stroke-width:1.0;" width="10" x="646" y="439.3281"/><rect fill="#FFFFFF" height="151.7578" style="stroke:#181818;stroke-width:1.0;" width="10" x="741.5" y="742.8438"/><rect fill="#FFFFFF" height="130.4063" style="stroke:#181818;stroke-width:1.0;" width="10" x="869.5" y="773.1953"/><rect fill="#FFFFFF" height="91.0547" style="stroke:#181818;stroke-width:1.0;" width="10" x="948" y="500.0313"/><rect fill="#FFFFFF" height="30.3516" style="stroke:#181818;stroke-width:1.0;" width="10" x="1052" y="530.3828"/><rect fill="#FFFFFF" height="30.3516" style="stroke:#181818;stroke-width:1.0;" width="10" x="1052" y="803.5469"/><polygon fill="#181818" points="108,215.8125,118,219.8125,108,223.8125,112,219.8125" style="stroke:#181818;stroke-width:1.0;"/><line style="stroke:#181818;stroke-width:1.0;" x1="30" x2="114" y1="219.8125" y2="219.8125"/><text fill="#000000" font-family="sans-serif" font-size="13" lengthAdjust="spacing" textLength="53" x="37" y="165.9014">req.post('</text><text fill="#000000" font-family="sans-serif" font-size="13" lengthAdjust="spacing" textLength="67" x="37" y="182.2529">/companies</text><text fill="#000000" font-family="sans-serif" font-size="13" lengthAdjust="spacing" textLength="71" x="37" y="198.6045">/:companyId</text><text fill="#000000" font-family="sans-serif" font-size="13" lengthAdjust="spacing" textLength="62" x="37" y="214.9561">/bookings')</text><polygon fill="#181818" points="218,295.2188,228,299.2188,218,303.2188,222,299.2188" style="stroke:#181818;stroke-width:1.0;"/><line style="stroke:#181818;stroke-width:1.0;" x1="130" x2="224" y1="299.2188" y2="299.2188"/><text fill="#000000" font-family="sans-serif" font-size="13" lengthAdjust="spacing" textLength="52" x="137" y="245.3076">app.use('</text><text fill="#000000" font-family="sans-serif" font-size="13" lengthAdjust="spacing" textLength="67" x="137" y="261.6592">/companies</text><text fill="#000000" font-family="sans-serif" font-size="13" lengthAdjust="spacing" textLength="77" x="137" y="278.0107">/:companies',</text><text fill="#000000" font-family="sans-serif" font-size="13" lengthAdjust="spacing" textLength="67" x="137" y="294.3623">companies)</text><polygon fill="#181818" points="318,374.625,328,378.625,318,382.625,322,378.625" style="stroke:#181818;stroke-width:1.0;"/><line style="stroke:#181818;stroke-width:1.0;" x1="240" x2="324" y1="378.625" y2="378.625"/><text fill="#000000" font-family="sans-serif" font-size="13" lengthAdjust="spacing" textLength="64" x="247" y="324.7139">router.use('</text><text fill="#000000" font-family="sans-serif" font-size="13" lengthAdjust="spacing" textLength="71" x="247" y="341.0654">/:companyId</text><text fill="#000000" font-family="sans-serif" font-size="13" lengthAdjust="spacing" textLength="62" x="247" y="357.417">/bookings',</text><text fill="#000000" font-family="sans-serif" font-size="13" lengthAdjust="spacing" textLength="56" x="247" y="373.7686">bookings)</text><polygon fill="#181818" points="492,404.9766,502,408.9766,492,412.9766,496,408.9766" style="stroke:#181818;stroke-width:1.0;"/><line style="stroke:#181818;stroke-width:1.0;" x1="340" x2="498" y1="408.9766" y2="408.9766"/><text fill="#000000" font-family="sans-serif" font-size="13" lengthAdjust="spacing" textLength="48" x="347" y="404.1201">protect()</text><polygon fill="#181818" points="634,435.3281,644,439.3281,634,443.3281,638,439.3281" style="stroke:#181818;stroke-width:1.0;"/><line style="stroke:#181818;stroke-width:1.0;" x1="514" x2="640" y1="439.3281" y2="439.3281"/><text fill="#000000" font-family="sans-serif" font-size="13" lengthAdjust="spacing" textLength="113" x="521" y="434.4717">verify(token, secret)</text><polygon fill="#181818" points="525,465.6797,515,469.6797,525,473.6797,521,469.6797" style="stroke:#181818;stroke-width:1.0;"/><line style="stroke:#181818;stroke-width:1.0;" x1="519" x2="650" y1="469.6797" y2="469.6797"/><text fill="#000000" font-family="sans-serif" font-size="13" lengthAdjust="spacing" textLength="49" x="531" y="464.8232">decoded</text><polygon fill="#181818" points="936,496.0313,946,500.0313,936,504.0313,940,500.0313" style="stroke:#181818;stroke-width:1.0;"/><line style="stroke:#181818;stroke-width:1.0;" x1="514" x2="942" y1="500.0313" y2="500.0313"/><text fill="#000000" font-family="sans-serif" font-size="13" lengthAdjust="spacing" textLength="121" x="521" y="495.1748">findById(decoded, id)</text><polygon fill="#181818" points="1040,526.3828,1050,530.3828,1040,534.3828,1044,530.3828" style="stroke:#181818;stroke-width:1.0;"/><line style="stroke:#181818;stroke-width:1.0;" x1="958" x2="1046" y1="530.3828" y2="530.3828"/><text fill="#000000" font-family="sans-serif" font-size="13" lengthAdjust="spacing" textLength="75" x="965" y="525.5264">UserSchema</text><polygon fill="#181818" points="969,556.7344,959,560.7344,969,564.7344,965,560.7344" style="stroke:#181818;stroke-width:1.0;"/><line style="stroke:#181818;stroke-width:1.0;stroke-dasharray:2.0,2.0;" x1="963" x2="1056" y1="560.7344" y2="560.7344"/><text fill="#000000" font-family="sans-serif" font-size="13" lengthAdjust="spacing" textLength="25" x="975" y="555.8779">user</text><polygon fill="#181818" points="525,587.0859,515,591.0859,525,595.0859,521,591.0859" style="stroke:#181818;stroke-width:1.0;"/><line style="stroke:#181818;stroke-width:1.0;stroke-dasharray:2.0,2.0;" x1="519" x2="952" y1="591.0859" y2="591.0859"/><text fill="#000000" font-family="sans-serif" font-size="13" lengthAdjust="spacing" textLength="47" x="531" y="586.2295">req.user</text><polygon fill="#181818" points="351,617.4375,341,621.4375,351,625.4375,347,621.4375" style="stroke:#181818;stroke-width:1.0;"/><line style="stroke:#181818;stroke-width:1.0;" x1="345" x2="508" y1="621.4375" y2="621.4375"/><text fill="#000000" font-family="sans-serif" font-size="13" lengthAdjust="spacing" textLength="33" x="357" y="616.5811">next()</text><polygon fill="#181818" points="492,647.7891,502,651.7891,492,655.7891,496,651.7891" style="stroke:#181818;stroke-width:1.0;"/><line style="stroke:#181818;stroke-width:1.0;" x1="340" x2="498" y1="651.7891" y2="651.7891"/><text fill="#000000" font-family="sans-serif" font-size="13" lengthAdjust="spacing" textLength="145" x="347" y="646.9326">authorize("admin",""user)</text><polygon fill="#181818" points="351,678.1406,341,682.1406,351,686.1406,347,682.1406" style="stroke:#181818;stroke-width:1.0;"/><line style="stroke:#181818;stroke-width:1.0;stroke-dasharray:2.0,2.0;" x1="345" x2="508" y1="682.1406" y2="682.1406"/><text fill="#000000" font-family="sans-serif" font-size="13" lengthAdjust="spacing" textLength="33" x="357" y="677.2842">next()</text><polygon fill="#181818" points="492,708.4922,502,712.4922,492,716.4922,496,712.4922" style="stroke:#181818;stroke-width:1.0;"/><line style="stroke:#181818;stroke-width:1.0;" x1="340" x2="498" y1="712.4922" y2="712.4922"/><text fill="#000000" font-family="sans-serif" font-size="13" lengthAdjust="spacing" textLength="76" x="347" y="707.6357">addBooking()</text><polygon fill="#181818" points="729.5,738.8438,739.5,742.8438,729.5,746.8438,733.5,742.8438" style="stroke:#181818;stroke-width:1.0;"/><line style="stroke:#181818;stroke-width:1.0;" x1="514" x2="735.5" y1="742.8438" y2="742.8438"/><text fill="#000000" font-family="sans-serif" font-size="13" lengthAdjust="spacing" textLength="76" x="521" y="737.9873">addBooking()</text><polygon fill="#181818" points="857.5,769.1953,867.5,773.1953,857.5,777.1953,861.5,773.1953" style="stroke:#181818;stroke-width:1.0;"/><line style="stroke:#181818;stroke-width:1.0;" x1="751.5" x2="863.5" y1="773.1953" y2="773.1953"/><text fill="#000000" font-family="sans-serif" font-size="13" lengthAdjust="spacing" textLength="99" x="758.5" y="768.3389">Booking.create();</text><polygon fill="#181818" points="1040,799.5469,1050,803.5469,1040,807.5469,1044,803.5469" style="stroke:#181818;stroke-width:1.0;"/><line style="stroke:#181818;stroke-width:1.0;" x1="879.5" x2="1046" y1="803.5469" y2="803.5469"/><text fill="#000000" font-family="sans-serif" font-size="13" lengthAdjust="spacing" textLength="95" x="886.5" y="798.6904">BookingSchema</text><polygon fill="#181818" points="890.5,829.8984,880.5,833.8984,890.5,837.8984,886.5,833.8984" style="stroke:#181818;stroke-width:1.0;"/><line style="stroke:#181818;stroke-width:1.0;stroke-dasharray:2.0,2.0;" x1="884.5" x2="1056" y1="833.8984" y2="833.8984"/><text fill="#000000" font-family="sans-serif" font-size="13" lengthAdjust="spacing" textLength="45" x="896.5" y="829.042">booking</text><polygon fill="#181818" points="762.5,860.25,752.5,864.25,762.5,868.25,758.5,864.25" style="stroke:#181818;stroke-width:1.0;"/><line style="stroke:#181818;stroke-width:1.0;stroke-dasharray:2.0,2.0;" x1="756.5" x2="868.5" y1="864.25" y2="864.25"/><text fill="#000000" font-family="sans-serif" font-size="13" lengthAdjust="spacing" textLength="45" x="768.5" y="859.3936">booking</text><polygon fill="#181818" points="41,890.6016,31,894.6016,41,898.6016,37,894.6016" style="stroke:#181818;stroke-width:1.0;"/><line style="stroke:#181818;stroke-width:1.0;" x1="35" x2="745.5" y1="894.6016" y2="894.6016"/><text fill="#000000" font-family="sans-serif" font-size="13" lengthAdjust="spacing" textLength="53" x="47" y="889.7451">response</text><text fill="#888888" font-family="sans-serif" font-size="10" lengthAdjust="spacing" textLength="132" x="970.5" y="15.3809">Online Job Fair Registration</text><!--SRC=[bLJBRjim4BppAmXTB26cUrSD7PoWG0iKAUhsvWjDRcmcCgcITDBqwykdB4ksWPoqt9qPxUw8sWFbeF6ZR8K4_4rjyHSgDFu9Es6ifbOeYQomBU3YNWErW2bU2xbpYPLIBox2vO_7zQ-gGAYZsWecEYgjGxS2f2qmDPY5yBoyN3xJLxfcMdIsQJQoDg1VGGTy3CTuhOuMTC0oTN1P0IR0O-4-vsxmjh7Z8IqDCM4T1ESjl54DWKcFTXzOFXXZVR-2HU3pMvpPFSSmfgJLgcr1csatW-BLbXI7DZ0J8X13DYMkCtwRjDkGyYV4gQLRQi037r8SiD-LtAc7LO3dmfhjuK0HYbQI9bg4x-vg3NyMdJAsd6tafzuO5oUNthzoTyYppYeKgQGPsUQrQDSjZWQkIRd3R8utiZzLQ2IILVCAGuCXq-jURilBvaDMxKL84sptOfrM5fWjAnGohkACzWKtadXwBwrw0JbtNp3JO1DeIGA8a9e3S-ldFRStmoiy2SbNhgqoeUPOy0gT80v_xeOd-KhoveHS4ZA6kfSVlUcf8J9ujIjv3qDvDBZhFBPAQWb__TGtLkEVIej_K1QK7uGivaNXHQkfweTaEK_fmT8lt9O9zWA6DCFRuXafNB3mRokhp-WCGPhfolD_BwrzikW6dqkG6gSlwr9B9pCoeRw19asyWD4qqobf0Fq7]--></g></svg>