<?xml version="1.0" encoding="us-ascii" standalone="no"?><svg xmlns="http://www.w3.org/2000/svg" xmlns:xlink="http://www.w3.org/1999/xlink" contentStyleType="text/css" height="910px" preserveAspectRatio="none" style="width:1239px;height:910px;background:#FFFFFF;" version="1.1" viewBox="0 0 1239 910" width="1239px" zoomAndPan="magnify"><defs/><g><text fill="#000000" font-family="sans-serif" font-size="14" font-weight="bold" lengthAdjust="spacing" textLength="235" x="498.25" y="43.1113">Delete a Single Booking (DELETE)</text><rect fill="#FFFFFF" height="633.8672" style="stroke:#181818;stroke-width:1.0;" width="10" x="207" y="170.7578"/><rect fill="#FFFFFF" height="603.5156" style="stroke:#181818;stroke-width:1.0;" width="10" x="410" y="201.1094"/><rect fill="#FFFFFF" height="116.4063" style="stroke:#181818;stroke-width:1.0;" width="10" x="584" y="231.4609"/><rect fill="#FFFFFF" height="30.3516" style="stroke:#181818;stroke-width:1.0;" width="10" x="584" y="545.8125"/><rect fill="#FFFFFF" height="30.3516" style="stroke:#181818;stroke-width:1.0;" width="10" x="726" y="261.8125"/><rect fill="#FFFFFF" height="151.7578" style="stroke:#181818;stroke-width:1.0;" width="10" x="821.5" y="636.8672"/><rect fill="#FFFFFF" height="91.0547" style="stroke:#181818;stroke-width:1.0;" width="10" x="983.5" y="667.2188"/><rect fill="#FFFFFF" height="91.0547" style="stroke:#181818;stroke-width:1.0;" width="10" x="1062" y="394.0547"/><rect fill="#FFFFFF" height="30.3516" style="stroke:#181818;stroke-width:1.0;" width="10" x="1166" y="424.4063"/><rect fill="#FFFFFF" height="30.3516" style="stroke:#181818;stroke-width:1.0;" width="10" x="1166" y="697.5703"/><rect fill="none" height="489.4609" style="stroke:#000000;stroke-width:1.5;" width="1212.5" x="10" y="307.1641"/><line style="stroke:#181818;stroke-width:0.5;stroke-dasharray:5.0,5.0;" x1="45" x2="45" y1="138.4063" y2="813.625"/><line style="stroke:#181818;stroke-width:0.5;stroke-dasharray:5.0,5.0;" x1="212" x2="212" y1="138.4063" y2="813.625"/><line style="stroke:#181818;stroke-width:0.5;stroke-dasharray:5.0,5.0;" x1="414.5" x2="414.5" y1="138.4063" y2="813.625"/><line style="stroke:#181818;stroke-width:0.5;stroke-dasharray:5.0,5.0;" x1="588.5" x2="588.5" y1="138.4063" y2="813.625"/><line style="stroke:#181818;stroke-width:0.5;stroke-dasharray:5.0,5.0;" x1="730.5" x2="730.5" y1="138.4063" y2="813.625"/><line style="stroke:#181818;stroke-width:0.5;stroke-dasharray:5.0,5.0;" x1="826.5" x2="826.5" y1="138.4063" y2="813.625"/><line style="stroke:#181818;stroke-width:0.5;stroke-dasharray:5.0,5.0;" x1="988" x2="988" y1="138.4063" y2="813.625"/><line style="stroke:#181818;stroke-width:0.5;stroke-dasharray:5.0,5.0;" x1="1067" x2="1067" y1="138.4063" y2="813.625"/><line style="stroke:#181818;stroke-width:0.5;stroke-dasharray:5.0,5.0;" x1="1170.5" x2="1170.5" y1="138.4063" y2="813.625"/><rect fill="#E2E2F0" height="31.6094" rx="2.5" ry="2.5" style="stroke:#181818;stroke-width:0.5;" width="50" x="20" y="105.7969"/><text fill="#000000" font-family="sans-serif" font-size="14" lengthAdjust="spacing" textLength="36" x="27" y="127.3301">Client</text><rect fill="#E2E2F0" height="31.6094" rx="2.5" ry="2.5" style="stroke:#181818;stroke-width:0.5;" width="50" x="20" y="812.625"/><text fill="#000000" font-family="sans-serif" font-size="14" lengthAdjust="spacing" textLength="36" x="27" y="834.1582">Client</text><rect fill="#E2E2F0" height="49.2188" rx="2.5" ry="2.5" style="stroke:#181818;stroke-width:0.5;" width="92" x="166" y="88.1875"/><text fill="#000000" font-family="sans-serif" font-size="14" lengthAdjust="spacing" textLength="78" x="173" y="109.7207">&#171;javaScript&#187;</text><text fill="#000000" font-family="sans-serif" font-size="14" lengthAdjust="spacing" textLength="44" x="190" y="127.3301">:server</text><rect fill="#E2E2F0" height="49.2188" rx="2.5" ry="2.5" style="stroke:#181818;stroke-width:0.5;" width="92" x="166" y="812.625"/><text fill="#000000" font-family="sans-serif" font-size="14" lengthAdjust="spacing" textLength="78" x="173" y="834.1582">&#171;javaScript&#187;</text><text fill="#000000" font-family="sans-serif" font-size="14" lengthAdjust="spacing" textLength="44" x="190" y="851.7676">:server</text><rect fill="#E2E2F0" height="49.2188" rx="2.5" ry="2.5" style="stroke:#181818;stroke-width:0.5;" width="75" x="377.5" y="88.1875"/><text fill="#000000" font-family="sans-serif" font-size="14" lengthAdjust="spacing" textLength="54" x="388" y="109.7207">&#171;router&#187;</text><text fill="#000000" font-family="sans-serif" font-size="14" lengthAdjust="spacing" textLength="61" x="384.5" y="127.3301">:bookings</text><rect fill="#E2E2F0" height="49.2188" rx="2.5" ry="2.5" style="stroke:#181818;stroke-width:0.5;" width="75" x="377.5" y="812.625"/><text fill="#000000" font-family="sans-serif" font-size="14" lengthAdjust="spacing" textLength="54" x="388" y="834.1582">&#171;router&#187;</text><text fill="#000000" font-family="sans-serif" font-size="14" lengthAdjust="spacing" textLength="61" x="384.5" y="851.7676">:bookings</text><rect fill="#E2E2F0" height="49.2188" rx="2.5" ry="2.5" style="stroke:#181818;stroke-width:0.5;" width="101" x="538.5" y="88.1875"/><text fill="#000000" font-family="sans-serif" font-size="14" lengthAdjust="spacing" textLength="87" x="545.5" y="109.7207">&#171;middleware&#187;</text><text fill="#000000" font-family="sans-serif" font-size="14" lengthAdjust="spacing" textLength="32" x="573" y="127.3301">:auth</text><rect fill="#E2E2F0" height="49.2188" rx="2.5" ry="2.5" style="stroke:#181818;stroke-width:0.5;" width="101" x="538.5" y="812.625"/><text fill="#000000" font-family="sans-serif" font-size="14" lengthAdjust="spacing" textLength="87" x="545.5" y="834.1582">&#171;middleware&#187;</text><text fill="#000000" font-family="sans-serif" font-size="14" lengthAdjust="spacing" textLength="32" x="573" y="851.7676">:auth</text><rect fill="#E2E2F0" height="49.2188" rx="2.5" ry="2.5" style="stroke:#181818;stroke-width:0.5;" width="75" x="693.5" y="88.1875"/><text fill="#000000" font-family="sans-serif" font-size="14" lengthAdjust="spacing" textLength="61" x="700.5" y="109.7207">&#171;service&#187;</text><text fill="#000000" font-family="sans-serif" font-size="14" lengthAdjust="spacing" textLength="20" x="721" y="127.3301">:jwt</text><rect fill="#E2E2F0" height="49.2188" rx="2.5" ry="2.5" style="stroke:#181818;stroke-width:0.5;" width="75" x="693.5" y="812.625"/><text fill="#000000" font-family="sans-serif" font-size="14" lengthAdjust="spacing" textLength="61" x="700.5" y="834.1582">&#171;service&#187;</text><text fill="#000000" font-family="sans-serif" font-size="14" lengthAdjust="spacing" textLength="20" x="721" y="851.7676">:jwt</text><rect fill="#E2E2F0" height="49.2188" rx="2.5" ry="2.5" style="stroke:#181818;stroke-width:0.5;" width="96" x="778.5" y="88.1875"/><text fill="#000000" font-family="sans-serif" font-size="14" lengthAdjust="spacing" textLength="82" x="785.5" y="109.7207">&#171;controllers&#187;</text><text fill="#000000" font-family="sans-serif" font-size="14" lengthAdjust="spacing" textLength="61" x="796" y="127.3301">:bookings</text><rect fill="#E2E2F0" height="49.2188" rx="2.5" ry="2.5" style="stroke:#181818;stroke-width:0.5;" width="96" x="778.5" y="812.625"/><text fill="#000000" font-family="sans-serif" font-size="14" lengthAdjust="spacing" textLength="82" x="785.5" y="834.1582">&#171;controllers&#187;</text><text fill="#000000" font-family="sans-serif" font-size="14" lengthAdjust="spacing" textLength="61" x="796" y="851.7676">:bookings</text><rect fill="#E2E2F0" height="49.2188" rx="2.5" ry="2.5" style="stroke:#181818;stroke-width:0.5;" width="69" x="954" y="88.1875"/><text fill="#000000" font-family="sans-serif" font-size="14" lengthAdjust="spacing" textLength="54" x="961.5" y="109.7207">&#171;model&#187;</text><text fill="#000000" font-family="sans-serif" font-size="14" lengthAdjust="spacing" textLength="55" x="961" y="127.3301">:Booking</text><rect fill="#E2E2F0" height="49.2188" rx="2.5" ry="2.5" style="stroke:#181818;stroke-width:0.5;" width="69" x="954" y="812.625"/><text fill="#000000" font-family="sans-serif" font-size="14" lengthAdjust="spacing" textLength="54" x="961.5" y="834.1582">&#171;model&#187;</text><text fill="#000000" font-family="sans-serif" font-size="14" lengthAdjust="spacing" textLength="55" x="961" y="851.7676">:Booking</text><rect fill="#E2E2F0" height="49.2188" rx="2.5" ry="2.5" style="stroke:#181818;stroke-width:0.5;" width="68" x="1033" y="88.1875"/><text fill="#000000" font-family="sans-serif" font-size="14" lengthAdjust="spacing" textLength="54" x="1040" y="109.7207">&#171;model&#187;</text><text fill="#000000" font-family="sans-serif" font-size="14" lengthAdjust="spacing" textLength="33" x="1050.5" y="127.3301">:User</text><rect fill="#E2E2F0" height="49.2188" rx="2.5" ry="2.5" style="stroke:#181818;stroke-width:0.5;" width="68" x="1033" y="812.625"/><text fill="#000000" font-family="sans-serif" font-size="14" lengthAdjust="spacing" textLength="54" x="1040" y="834.1582">&#171;model&#187;</text><text fill="#000000" font-family="sans-serif" font-size="14" lengthAdjust="spacing" textLength="33" x="1050.5" y="851.7676">:User</text><text fill="#000000" font-family="sans-serif" font-size="14" lengthAdjust="spacing" textLength="77" x="1129.5" y="117.7207">&#171;Database&#187;</text><text fill="#000000" font-family="sans-serif" font-size="14" lengthAdjust="spacing" textLength="66" x="1135" y="135.3301">:MongoDB</text><path d="M1153,67.1875 C1153,57.1875 1171,57.1875 1171,57.1875 C1171,57.1875 1189,57.1875 1189,67.1875 L1189,93.1875 C1189,103.1875 1171,103.1875 1171,103.1875 C1171,103.1875 1153,103.1875 1153,93.1875 L1153,67.1875 " fill="#E2E2F0" style="stroke:#181818;stroke-width:1.5;"/><path d="M1153,67.1875 C1153,77.1875 1171,77.1875 1171,77.1875 C1171,77.1875 1189,77.1875 1189,67.1875 " fill="none" style="stroke:#181818;stroke-width:1.5;"/><text fill="#000000" font-family="sans-serif" font-size="14" lengthAdjust="spacing" textLength="77" x="1129.5" y="827.1582">&#171;Database&#187;</text><text fill="#000000" font-family="sans-serif" font-size="14" lengthAdjust="spacing" textLength="66" x="1135" y="844.7676">:MongoDB</text><path d="M1153,857.8438 C1153,847.8438 1171,847.8438 1171,847.8438 C1171,847.8438 1189,847.8438 1189,857.8438 L1189,883.8438 C1189,893.8438 1171,893.8438 1171,893.8438 C1171,893.8438 1153,893.8438 1153,883.8438 L1153,857.8438 " fill="#E2E2F0" style="stroke:#181818;stroke-width:1.5;"/><path d="M1153,857.8438 C1153,867.8438 1171,867.8438 1171,867.8438 C1171,867.8438 1189,867.8438 1189,857.8438 " fill="none" style="stroke:#181818;stroke-width:1.5;"/><rect fill="#FFFFFF" height="633.8672" style="stroke:#181818;stroke-width:1.0;" width="10" x="207" y="170.7578"/><rect fill="#FFFFFF" height="603.5156" style="stroke:#181818;stroke-width:1.0;" width="10" x="410" y="201.1094"/><rect fill="#FFFFFF" height="116.4063" style="stroke:#181818;stroke-width:1.0;" width="10" x="584" y="231.4609"/><rect fill="#FFFFFF" height="30.3516" style="stroke:#181818;stroke-width:1.0;" width="10" x="584" y="545.8125"/><rect fill="#FFFFFF" height="30.3516" style="stroke:#181818;stroke-width:1.0;" width="10" x="726" y="261.8125"/><rect fill="#FFFFFF" height="151.7578" style="stroke:#181818;stroke-width:1.0;" width="10" x="821.5" y="636.8672"/><rect fill="#FFFFFF" height="91.0547" style="stroke:#181818;stroke-width:1.0;" width="10" x="983.5" y="667.2188"/><rect fill="#FFFFFF" height="91.0547" style="stroke:#181818;stroke-width:1.0;" width="10" x="1062" y="394.0547"/><rect fill="#FFFFFF" height="30.3516" style="stroke:#181818;stroke-width:1.0;" width="10" x="1166" y="424.4063"/><rect fill="#FFFFFF" height="30.3516" style="stroke:#181818;stroke-width:1.0;" width="10" x="1166" y="697.5703"/><polygon fill="#181818" points="195,166.7578,205,170.7578,195,174.7578,199,170.7578" style="stroke:#181818;stroke-width:1.0;"/><line style="stroke:#181818;stroke-width:1.0;" x1="45" x2="201" y1="170.7578" y2="170.7578"/><text fill="#000000" font-family="sans-serif" font-size="13" lengthAdjust="spacing" textLength="143" x="52" y="165.9014">req.delete('/bookings/:id')</text><polygon fill="#181818" points="398,197.1094,408,201.1094,398,205.1094,402,201.1094" style="stroke:#181818;stroke-width:1.0;"/><line style="stroke:#181818;stroke-width:1.0;" x1="217" x2="404" y1="201.1094" y2="201.1094"/><text fill="#000000" font-family="sans-serif" font-size="13" lengthAdjust="spacing" textLength="174" x="224" y="196.2529">app.use('/bookings', bookings)</text><polygon fill="#181818" points="572,227.4609,582,231.4609,572,235.4609,576,231.4609" style="stroke:#181818;stroke-width:1.0;"/><line style="stroke:#181818;stroke-width:1.0;" x1="420" x2="578" y1="231.4609" y2="231.4609"/><text fill="#000000" font-family="sans-serif" font-size="13" lengthAdjust="spacing" textLength="48" x="427" y="226.6045">protect()</text><polygon fill="#181818" points="714,257.8125,724,261.8125,714,265.8125,718,261.8125" style="stroke:#181818;stroke-width:1.0;"/><line style="stroke:#181818;stroke-width:1.0;" x1="594" x2="720" y1="261.8125" y2="261.8125"/><text fill="#000000" font-family="sans-serif" font-size="13" lengthAdjust="spacing" textLength="113" x="601" y="256.9561">verify(token, secret)</text><polygon fill="#181818" points="605,288.1641,595,292.1641,605,296.1641,601,292.1641" style="stroke:#181818;stroke-width:1.0;"/><line style="stroke:#181818;stroke-width:1.0;" x1="599" x2="730" y1="292.1641" y2="292.1641"/><text fill="#000000" font-family="sans-serif" font-size="13" lengthAdjust="spacing" textLength="49" x="611" y="287.3076">decoded</text><path d="M10,307.1641 L71,307.1641 L71,315.5156 L61,325.5156 L10,325.5156 L10,307.1641 " fill="#EEEEEE" style="stroke:#000000;stroke-width:1.5;"/><rect fill="none" height="489.4609" style="stroke:#000000;stroke-width:1.5;" width="1212.5" x="10" y="307.1641"/><text fill="#000000" font-family="sans-serif" font-size="13" font-weight="bold" lengthAdjust="spacing" textLength="16" x="25" y="321.6592">alt</text><a href="Fail" target="_top" title="Fail" xlink:actuate="onRequest" xlink:href="Fail" xlink:show="new" xlink:title="Fail" xlink:type="simple"><text fill="#0000FF" font-family="sans-serif" font-size="11" font-weight="bold" lengthAdjust="spacing" text-decoration="underline" textLength="18" x="86" y="320.583">Fail</text></a><polygon fill="#181818" points="56,343.8672,46,347.8672,56,351.8672,52,347.8672" style="stroke:#181818;stroke-width:1.0;"/><line style="stroke:#181818;stroke-width:1.0;" x1="50" x2="588" y1="347.8672" y2="347.8672"/><text fill="#000000" font-family="sans-serif" font-size="13" lengthAdjust="spacing" textLength="73" x="62" y="343.0107">response fail</text><line style="stroke:#000000;stroke-width:1.0;stroke-dasharray:2.0,2.0;" x1="10" x2="1222.5" y1="356.8672" y2="356.8672"/><a href="Success" target="_top" title="Success" xlink:actuate="onRequest" xlink:href="Success" xlink:show="new" xlink:title="Success" xlink:type="simple"><text fill="#0000FF" font-family="sans-serif" font-size="11" font-weight="bold" lengthAdjust="spacing" text-decoration="underline" textLength="47" x="15" y="368.2861">Success</text></a><polygon fill="#181818" points="1050,390.0547,1060,394.0547,1050,398.0547,1054,394.0547" style="stroke:#181818;stroke-width:1.0;"/><line style="stroke:#181818;stroke-width:1.0;" x1="589" x2="1056" y1="394.0547" y2="394.0547"/><text fill="#000000" font-family="sans-serif" font-size="13" lengthAdjust="spacing" textLength="121" x="596" y="389.1982">findById(decoded, id)</text><polygon fill="#181818" points="1154,420.4063,1164,424.4063,1154,428.4063,1158,424.4063" style="stroke:#181818;stroke-width:1.0;"/><line style="stroke:#181818;stroke-width:1.0;" x1="1072" x2="1160" y1="424.4063" y2="424.4063"/><text fill="#000000" font-family="sans-serif" font-size="13" lengthAdjust="spacing" textLength="75" x="1079" y="419.5498">UserSchema</text><polygon fill="#181818" points="1083,450.7578,1073,454.7578,1083,458.7578,1079,454.7578" style="stroke:#181818;stroke-width:1.0;"/><line style="stroke:#181818;stroke-width:1.0;" x1="1077" x2="1170" y1="454.7578" y2="454.7578"/><text fill="#000000" font-family="sans-serif" font-size="13" lengthAdjust="spacing" textLength="25" x="1089" y="449.9014">user</text><polygon fill="#181818" points="600,481.1094,590,485.1094,600,489.1094,596,485.1094" style="stroke:#181818;stroke-width:1.0;"/><line style="stroke:#181818;stroke-width:1.0;" x1="594" x2="1066" y1="485.1094" y2="485.1094"/><text fill="#000000" font-family="sans-serif" font-size="13" lengthAdjust="spacing" textLength="47" x="606" y="480.2529">req.user</text><polygon fill="#181818" points="431,511.4609,421,515.4609,431,519.4609,427,515.4609" style="stroke:#181818;stroke-width:1.0;"/><line style="stroke:#181818;stroke-width:1.0;" x1="425" x2="588" y1="515.4609" y2="515.4609"/><text fill="#000000" font-family="sans-serif" font-size="13" lengthAdjust="spacing" textLength="33" x="437" y="510.6045">next()</text><polygon fill="#181818" points="572,541.8125,582,545.8125,572,549.8125,576,545.8125" style="stroke:#181818;stroke-width:1.0;"/><line style="stroke:#181818;stroke-width:1.0;" x1="420" x2="578" y1="545.8125" y2="545.8125"/><text fill="#000000" font-family="sans-serif" font-size="13" lengthAdjust="spacing" textLength="145" x="427" y="540.9561">authorize("admin",""user)</text><polygon fill="#181818" points="431,572.1641,421,576.1641,431,580.1641,427,576.1641" style="stroke:#181818;stroke-width:1.0;"/><line style="stroke:#181818;stroke-width:1.0;stroke-dasharray:2.0,2.0;" x1="425" x2="588" y1="576.1641" y2="576.1641"/><text fill="#000000" font-family="sans-serif" font-size="13" lengthAdjust="spacing" textLength="33" x="437" y="571.3076">next()</text><polygon fill="#181818" points="572,602.5156,582,606.5156,572,610.5156,576,606.5156" style="stroke:#181818;stroke-width:1.0;"/><line style="stroke:#181818;stroke-width:1.0;" x1="420" x2="578" y1="606.5156" y2="606.5156"/><text fill="#000000" font-family="sans-serif" font-size="13" lengthAdjust="spacing" textLength="90" x="427" y="601.6592">deleteBooking()</text><polygon fill="#181818" points="809.5,632.8672,819.5,636.8672,809.5,640.8672,813.5,636.8672" style="stroke:#181818;stroke-width:1.0;"/><line style="stroke:#181818;stroke-width:1.0;" x1="594" x2="815.5" y1="636.8672" y2="636.8672"/><text fill="#000000" font-family="sans-serif" font-size="13" lengthAdjust="spacing" textLength="90" x="601" y="632.0107">deleteBooking()</text><polygon fill="#181818" points="971.5,663.2188,981.5,667.2188,971.5,671.2188,975.5,667.2188" style="stroke:#181818;stroke-width:1.0;"/><line style="stroke:#181818;stroke-width:1.0;" x1="831.5" x2="977.5" y1="667.2188" y2="667.2188"/><text fill="#000000" font-family="sans-serif" font-size="13" lengthAdjust="spacing" textLength="133" x="838.5" y="662.3623">findById(req.params.id)</text><polygon fill="#181818" points="1154,693.5703,1164,697.5703,1154,701.5703,1158,697.5703" style="stroke:#181818;stroke-width:1.0;"/><line style="stroke:#181818;stroke-width:1.0;" x1="993.5" x2="1160" y1="697.5703" y2="697.5703"/><text fill="#000000" font-family="sans-serif" font-size="13" lengthAdjust="spacing" textLength="95" x="1000.5" y="692.7139">BookingSchema</text><polygon fill="#181818" points="1004.5,723.9219,994.5,727.9219,1004.5,731.9219,1000.5,727.9219" style="stroke:#181818;stroke-width:1.0;"/><line style="stroke:#181818;stroke-width:1.0;stroke-dasharray:2.0,2.0;" x1="998.5" x2="1170" y1="727.9219" y2="727.9219"/><text fill="#000000" font-family="sans-serif" font-size="13" lengthAdjust="spacing" textLength="22" x="1010.5" y="723.0654">void</text><polygon fill="#181818" points="842.5,754.2734,832.5,758.2734,842.5,762.2734,838.5,758.2734" style="stroke:#181818;stroke-width:1.0;"/><line style="stroke:#181818;stroke-width:1.0;stroke-dasharray:2.0,2.0;" x1="836.5" x2="987.5" y1="758.2734" y2="758.2734"/><text fill="#000000" font-family="sans-serif" font-size="13" lengthAdjust="spacing" textLength="22" x="848.5" y="753.417">void</text><polygon fill="#181818" points="56,784.625,46,788.625,56,792.625,52,788.625" style="stroke:#181818;stroke-width:1.0;"/><line style="stroke:#181818;stroke-width:1.0;" x1="50" x2="825.5" y1="788.625" y2="788.625"/><text fill="#000000" font-family="sans-serif" font-size="13" lengthAdjust="spacing" textLength="106" x="62" y="783.7686">success response</text><text fill="#888888" font-family="sans-serif" font-size="10" lengthAdjust="spacing" textLength="132" x="1099.5" y="15.3809">Online Job Fair Registration</text><!--SRC=[bPHDZzem48Rl_XLMBYHQpDuHoe72IgrQLIhjQTk3iGVmhh5Jss6x_VNrLzWaGANbai7plEFnEquEG3aO_5L9eG1_qblyG8N1ts0lh3FK2QsG4qu2BbOWmG6cU2FKtYyijNxs4IvNwy_hx-kgGAYXnWac6geSBZv80SeLc5hCOZXCBnPFz4Gtp8Z6rVLFDRTWJc0Ydy8nRtJhm4Hsc_QsaKxhkHqxLXq5vn9Ug86efAqxH5K8ncpOLx04FhsatlrpZ36jdD5IWh6NtVIIDrlI76HKPY8AusfUkAtuORD7SIdyGvmwkgKM0hZASMI_QBNNgsN4kyI67U184KeZ8NMo6j_TpGtydl4uut9otntfVYxuf4A98lNGwg2YJJDhRLyocU8khD18GEheUn0sHZjWhgnGNF4PxtH8-8t4xhLq-XdKr5y5Pi1bQ44YHCYS0_FdvmXHwV2ZlxFo5yB-buuLm5IL-6FPHYllpiv32AIF7ZSjOs1jadJRdmqDJUo4uilNZxpC6qsnu5N4tp2l6ReQX26JFHxIlgKHxPjhm_pEJNYaLvt4YPo9aPEz4ohu4soyHlNy3azjn5ye2ygFGXNJeWZ5g-lLtri-tPoSAQk1irTUYLkIAoYf-s_6O3Z18F-cqAET3SRJiQI-753ttUeDwM8kzQWCcUEJ5lnMXz6kiU9_0bBdU-evc-uYxkuf0iNHFm00]--></g></svg>