<?xml version="1.0" encoding="us-ascii" standalone="no"?><svg xmlns="http://www.w3.org/2000/svg" xmlns:xlink="http://www.w3.org/1999/xlink" contentStyleType="text/css" height="259px" preserveAspectRatio="none" style="width:727px;height:259px;background:#FFFFFF;" version="1.1" viewBox="0 0 727 259" width="727px" zoomAndPan="magnify"><defs/><g><text fill="#000000" font-family="sans-serif" font-size="14" font-weight="bold" lengthAdjust="spacing" textLength="290" x="211.5" y="24.5332">Online Job Fair Registration - ER Diagram</text><!--class User--><g id="elem_User"><rect codeLine="5" fill="#F1F1F1" height="206.4844" id="User" rx="2.5" ry="2.5" style="stroke:#181818;stroke-width:0.5;" width="192" x="7" y="45.6094"/><ellipse cx="84.25" cy="61.6094" fill="#ADD1B2" rx="11" ry="11" style="stroke:#181818;stroke-width:1.0;"/><path d="M83.1094,62.4063 L83.1094,64.9063 L87.4375,64.9063 L87.4375,63.9844 Q87.4375,63.375 87.6797,63.1094 Q87.9219,62.8438 88.2969,62.8438 Q88.6719,62.8438 88.9063,63.1094 Q89.1406,63.375 89.1406,63.9844 L89.1406,66.6094 L81.1406,66.6094 Q80.5156,66.6094 80.2578,66.375 Q80,66.1406 80,65.75 Q80,65.375 80.2656,65.1406 Q80.5313,64.9063 81.1406,64.9063 L81.4063,64.9063 L81.4063,58.25 L81.1406,58.25 Q80.5156,58.25 80.2578,58.0156 Q80,57.7813 80,57.3906 Q80,57.0156 80.2578,56.7813 Q80.5156,56.5469 81.1406,56.5469 L88.7656,56.5469 L88.7656,59.1406 Q88.7656,59.75 88.5391,60.0078 Q88.3125,60.2656 87.9219,60.2656 Q87.5469,60.2656 87.3125,60.0078 Q87.0781,59.75 87.0781,59.1406 L87.0781,58.25 L83.1094,58.25 L83.1094,60.7031 L84.5938,60.7031 Q84.5938,60.0469 84.7188,59.8594 Q84.9844,59.4531 85.4531,59.4531 Q85.8281,59.4531 86.0625,59.7109 Q86.2969,59.9688 86.2969,60.5781 L86.2969,62.5469 Q86.2969,63.0938 86.1719,63.2813 Q85.9063,63.6719 85.4531,63.6719 Q84.9844,63.6719 84.7188,63.2656 Q84.5938,63.0781 84.5938,62.4063 L83.1094,62.4063 Z " fill="#000000"/><text fill="#000000" font-family="sans-serif" font-size="14" lengthAdjust="spacing" textLength="29" x="104.75" y="67.3379">User</text><line style="stroke:#181818;stroke-width:0.5;" x1="8" x2="198" y1="77.6094" y2="77.6094"/><ellipse cx="18" cy="91.9141" fill="#000000" rx="3" ry="3" style="stroke:#000000;stroke-width:1.0;"/><text fill="#000000" font-family="sans-serif" font-size="14" lengthAdjust="spacing" textLength="104" x="27" y="96.1426">userId : int &#171;PK&#187;</text><line style="stroke:#181818;stroke-width:1.0;" x1="8" x2="198" y1="103.2188" y2="103.2188"/><text fill="#000000" font-family="sans-serif" font-size="14" lengthAdjust="spacing" textLength="82" x="13" y="121.752">name : string</text><text fill="#000000" font-family="sans-serif" font-size="14" lengthAdjust="spacing" textLength="58" x="13" y="139.3613">tel: string</text><text fill="#000000" font-family="sans-serif" font-size="14" lengthAdjust="spacing" textLength="80" x="13" y="156.9707">email : string</text><text fill="#000000" font-family="sans-serif" font-size="14" lengthAdjust="spacing" textLength="107" x="13" y="174.5801">password : string</text><text fill="#000000" font-family="sans-serif" font-size="14" lengthAdjust="spacing" textLength="71" x="13" y="192.1895">role : string</text><text fill="#000000" font-family="sans-serif" font-size="14" lengthAdjust="spacing" textLength="101" x="13" y="209.7988">createdAt : date</text><text fill="#000000" font-family="sans-serif" font-size="14" lengthAdjust="spacing" textLength="180" x="13" y="227.4082">resetPasswordToken : string</text><text fill="#000000" font-family="sans-serif" font-size="14" lengthAdjust="spacing" textLength="172" x="13" y="245.0176">resetPasswordExpire : date</text></g><!--class Company--><g id="elem_Company"><rect codeLine="18" fill="#F1F1F1" height="153.6563" id="Company" rx="2.5" ry="2.5" style="stroke:#181818;stroke-width:0.5;" width="159" x="561" y="71.6094"/><ellipse cx="606.25" cy="87.6094" fill="#ADD1B2" rx="11" ry="11" style="stroke:#181818;stroke-width:1.0;"/><path d="M605.1094,88.4063 L605.1094,90.9063 L609.4375,90.9063 L609.4375,89.9844 Q609.4375,89.375 609.6797,89.1094 Q609.9219,88.8438 610.2969,88.8438 Q610.6719,88.8438 610.9063,89.1094 Q611.1406,89.375 611.1406,89.9844 L611.1406,92.6094 L603.1406,92.6094 Q602.5156,92.6094 602.2578,92.375 Q602,92.1406 602,91.75 Q602,91.375 602.2656,91.1406 Q602.5313,90.9063 603.1406,90.9063 L603.4063,90.9063 L603.4063,84.25 L603.1406,84.25 Q602.5156,84.25 602.2578,84.0156 Q602,83.7813 602,83.3906 Q602,83.0156 602.2578,82.7813 Q602.5156,82.5469 603.1406,82.5469 L610.7656,82.5469 L610.7656,85.1406 Q610.7656,85.75 610.5391,86.0078 Q610.3125,86.2656 609.9219,86.2656 Q609.5469,86.2656 609.3125,86.0078 Q609.0781,85.75 609.0781,85.1406 L609.0781,84.25 L605.1094,84.25 L605.1094,86.7031 L606.5938,86.7031 Q606.5938,86.0469 606.7188,85.8594 Q606.9844,85.4531 607.4531,85.4531 Q607.8281,85.4531 608.0625,85.7109 Q608.2969,85.9688 608.2969,86.5781 L608.2969,88.5469 Q608.2969,89.0938 608.1719,89.2813 Q607.9063,89.6719 607.4531,89.6719 Q606.9844,89.6719 606.7188,89.2656 Q606.5938,89.0781 606.5938,88.4063 L605.1094,88.4063 Z " fill="#000000"/><text fill="#000000" font-family="sans-serif" font-size="14" lengthAdjust="spacing" textLength="60" x="626.75" y="93.3379">Company</text><line style="stroke:#181818;stroke-width:0.5;" x1="562" x2="719" y1="103.6094" y2="103.6094"/><ellipse cx="572" cy="117.9141" fill="#000000" rx="3" ry="3" style="stroke:#000000;stroke-width:1.0;"/><text fill="#000000" font-family="sans-serif" font-size="14" lengthAdjust="spacing" textLength="133" x="581" y="122.1426">companyId : int &#171;PK&#187;</text><line style="stroke:#181818;stroke-width:1.0;" x1="562" x2="719" y1="129.2188" y2="129.2188"/><text fill="#000000" font-family="sans-serif" font-size="14" lengthAdjust="spacing" textLength="82" x="567" y="147.752">name : string</text><text fill="#000000" font-family="sans-serif" font-size="14" lengthAdjust="spacing" textLength="98" x="567" y="165.3613">address : string</text><text fill="#000000" font-family="sans-serif" font-size="14" lengthAdjust="spacing" textLength="94" x="567" y="182.9707">website : string</text><text fill="#000000" font-family="sans-serif" font-size="14" lengthAdjust="spacing" textLength="62" x="567" y="200.5801">tel : string</text><text fill="#000000" font-family="sans-serif" font-size="14" lengthAdjust="spacing" textLength="116" x="567" y="218.1895">description : string</text></g><!--class Booking--><g id="elem_Booking"><rect codeLine="28" fill="#F1F1F1" height="136.0469" id="Booking" rx="2.5" ry="2.5" style="stroke:#181818;stroke-width:0.5;" width="152" x="300" y="80.6094"/><ellipse cx="346.25" cy="96.6094" fill="#ADD1B2" rx="11" ry="11" style="stroke:#181818;stroke-width:1.0;"/><path d="M345.1094,97.4063 L345.1094,99.9063 L349.4375,99.9063 L349.4375,98.9844 Q349.4375,98.375 349.6797,98.1094 Q349.9219,97.8438 350.2969,97.8438 Q350.6719,97.8438 350.9063,98.1094 Q351.1406,98.375 351.1406,98.9844 L351.1406,101.6094 L343.1406,101.6094 Q342.5156,101.6094 342.2578,101.375 Q342,101.1406 342,100.75 Q342,100.375 342.2656,100.1406 Q342.5313,99.9063 343.1406,99.9063 L343.4063,99.9063 L343.4063,93.25 L343.1406,93.25 Q342.5156,93.25 342.2578,93.0156 Q342,92.7813 342,92.3906 Q342,92.0156 342.2578,91.7813 Q342.5156,91.5469 343.1406,91.5469 L350.7656,91.5469 L350.7656,94.1406 Q350.7656,94.75 350.5391,95.0078 Q350.3125,95.2656 349.9219,95.2656 Q349.5469,95.2656 349.3125,95.0078 Q349.0781,94.75 349.0781,94.1406 L349.0781,93.25 L345.1094,93.25 L345.1094,95.7031 L346.5938,95.7031 Q346.5938,95.0469 346.7188,94.8594 Q346.9844,94.4531 347.4531,94.4531 Q347.8281,94.4531 348.0625,94.7109 Q348.2969,94.9688 348.2969,95.5781 L348.2969,97.5469 Q348.2969,98.0938 348.1719,98.2813 Q347.9063,98.6719 347.4531,98.6719 Q346.9844,98.6719 346.7188,98.2656 Q346.5938,98.0781 346.5938,97.4063 L345.1094,97.4063 Z " fill="#000000"/><text fill="#000000" font-family="sans-serif" font-size="14" lengthAdjust="spacing" textLength="51" x="366.75" y="102.3379">Booking</text><line style="stroke:#181818;stroke-width:0.5;" x1="301" x2="451" y1="112.6094" y2="112.6094"/><ellipse cx="311" cy="126.9141" fill="#000000" rx="3" ry="3" style="stroke:#000000;stroke-width:1.0;"/><text fill="#000000" font-family="sans-serif" font-size="14" lengthAdjust="spacing" textLength="126" x="320" y="131.1426">bookingId : int &#171;PK&#187;</text><line style="stroke:#181818;stroke-width:1.0;" x1="301" x2="451" y1="138.2188" y2="138.2188"/><text fill="#000000" font-family="sans-serif" font-size="14" lengthAdjust="spacing" textLength="104" x="306" y="156.752">userId : int &#171;FK&#187;</text><text fill="#000000" font-family="sans-serif" font-size="14" lengthAdjust="spacing" textLength="133" x="306" y="174.3613">companyId : int &#171;FK&#187;</text><text fill="#000000" font-family="sans-serif" font-size="14" lengthAdjust="spacing" textLength="98" x="306" y="191.9707">apptDate : date</text><text fill="#000000" font-family="sans-serif" font-size="14" lengthAdjust="spacing" textLength="101" x="306" y="209.5801">createdAt : date</text></g><!--link User to Booking--><g id="link_User_Booking"><path codeLine="38" d="M207.16,148.6094 C240.11,148.6094 250.55,148.6094 281.67,148.6094 " fill="none" id="User-Booking" style="stroke:#181818;stroke-width:1.0;"/><line style="stroke:#181818;stroke-width:1.0;" x1="203.16" x2="203.16" y1="152.6094" y2="144.6094"/><line style="stroke:#181818;stroke-width:1.0;" x1="206.16" x2="206.16" y1="152.6094" y2="144.6094"/><line style="stroke:#181818;stroke-width:1.0;" x1="207.16" x2="199.16" y1="148.6094" y2="148.6094"/><line style="stroke:#181818;stroke-width:1.0;" x1="291.67" x2="299.67" y1="148.6094" y2="142.6094"/><line style="stroke:#181818;stroke-width:1.0;" x1="291.67" x2="299.67" y1="148.6094" y2="154.6094"/><line style="stroke:#181818;stroke-width:1.0;" x1="291.67" x2="299.67" y1="148.6094" y2="148.6094"/><ellipse cx="285.67" cy="148.6094" fill="none" rx="4" ry="4" style="stroke:#181818;stroke-width:1.0;"/><text fill="#000000" font-family="sans-serif" font-size="13" lengthAdjust="spacing" textLength="39" x="230" y="145.1045">makes</text></g><!--link Booking to Company--><g id="link_Booking_Company"><path codeLine="39" d="M470.22,148.6094 C504.16,148.6094 518.25,148.6094 552.61,148.6094 " fill="none" id="Booking-Company" style="stroke:#181818;stroke-width:1.0;"/><line style="stroke:#181818;stroke-width:1.0;" x1="460.22" x2="452.22" y1="148.6094" y2="154.6094"/><line style="stroke:#181818;stroke-width:1.0;" x1="460.22" x2="452.22" y1="148.6094" y2="142.6094"/><line style="stroke:#181818;stroke-width:1.0;" x1="460.22" x2="452.22" y1="148.6094" y2="148.6094"/><ellipse cx="466.22" cy="148.6094" fill="none" rx="4" ry="4" style="stroke:#181818;stroke-width:1.0;"/><line style="stroke:#181818;stroke-width:1.0;" x1="556.61" x2="556.61" y1="144.6094" y2="152.6094"/><line style="stroke:#181818;stroke-width:1.0;" x1="553.61" x2="553.61" y1="144.6094" y2="152.6094"/><line style="stroke:#181818;stroke-width:1.0;" x1="552.61" x2="560.61" y1="148.6094" y2="148.6094"/><text fill="#000000" font-family="sans-serif" font-size="13" lengthAdjust="spacing" textLength="47" x="483" y="145.1045">receives</text></g><!--SRC=[bLB1Ri8m3BtdAtoRD2a_W13IDa0QEmoXxGDCOuf5caI9DuOe_xwqh1q5QT9oIVoUO_lP5XPByEeiEuA5NyCSESAAIauIKTWxq31RmPInZ5WfIni1yH2vt0eOZbGqJahTmPGsJP2P4nQcfAXv7E0zKOIZWdpkuICRpmP6m4vWF5w-J2OjetLxEQmeaparkx95XEp0fWhP3bq2fhJtqGpHwErLg28I2fa7oR39hxCR9PBbJuGtloDt5UQIdts5BBZxVbATn2TV1NI7NcLnjlyb58t9kT8GtDCwiTosP0WOIaNaq0wh9twhU_H-bv6-klNP_gEwgodDE_fMLqzX2395eSlUtZJyrAp9YcoxLsdB8QbsE-fQQt_i2nr1XJjAe3hWvBMkwxxDepoLWlWpxzWt]--></g></svg>